<?xml version="1.0" encoding="UTF-8" standalone="no"?>
<!-- Created with Inkscape (http://www.inkscape.org/) -->

<svg
   version="1.1"
   id="svg1"
   width="1070.6667"
   height="665.47473"
   viewBox="0 0 1070.6667 665.47473"
   xmlns="http://www.w3.org/2000/svg"
   xmlns:svg="http://www.w3.org/2000/svg">
  <defs
     id="defs1" />
  <g
     id="g1"
     transform="translate(0,-0.2831161)">
    <path
       style="fill:#ffffff"
       d="m 620.04047,665.58685 c -4.01111,-0.22725 -7.91111,-0.89451 -8.66667,-1.48282 -0.75557,-0.5883 -3.17375,-1.47619 -5.37375,-1.97308 -4.90348,-1.1075 -21.56326,-9.39151 -25.67083,-12.76471 l -3.00416,-2.46707 5.59955,-10.77154 c 5.38495,-10.35874 5.70447,-10.6938 8.33749,-8.74293 9.66354,7.15993 19.3085,12.58995 23.67216,13.32719 2.78618,0.47072 5.06579,1.40312 5.06579,2.07199 0,1.73669 15.60792,1.50764 19.08765,-0.28011 1.60179,-0.82294 4.56235,-3.03519 6.57902,-4.91612 3.01131,-2.80863 3.66666,-4.55862 3.66666,-9.79111 0,-5.26487 -0.6868,-7.07384 -3.95506,-10.41722 -2.17528,-2.22528 -4.87528,-4.04597 -6,-4.04597 -1.12472,0 -2.04494,-0.5437 -2.04494,-1.20821 0,-0.66452 -3,-1.62083 -6.66667,-2.12512 -3.66666,-0.5043 -6.66666,-1.3833 -6.66666,-1.95334 0,-0.57005 -2.97534,-1.43114 -6.61187,-1.91354 -3.63653,-0.4824 -6.92107,-1.3774 -7.29899,-1.98888 -0.37791,-0.61148 -3.40257,-1.87206 -6.72146,-2.80129 -3.31889,-0.92923 -6.03435,-2.14649 -6.03435,-2.70502 0,-0.55853 -1.46122,-1.38225 -3.24716,-1.8305 -4.28999,-1.07671 -11.89022,-10.74808 -13.85356,-17.62879 -5.34524,-18.73288 2.41133,-38.64891 17.58937,-45.16305 2.29791,-0.98622 6.49754,-2.80433 9.33252,-4.04024 4.1253,-1.79842 8.30514,-2.15342 20.93354,-1.7779 10.27527,0.30555 16.36029,1.05055 17.44549,2.13588 0.91656,0.91667 2.78492,1.66667 4.15191,1.66667 2.77364,0 15.02747,5.54438 18.66635,8.4458 2.21279,1.76434 2.0587,2.45675 -2.60694,11.71468 -5.97691,11.85986 -5.67101,11.42455 -6.81735,9.70147 -0.98736,-1.48414 -8.16639,-5.48034 -16.9275,-9.42268 -6.50349,-2.92646 -27.42283,-3.49691 -28.33242,-0.77261 -0.30606,0.91667 -1.27711,1.66667 -2.15788,1.66667 -2.67152,0 -6.17637,7.41536 -6.17637,13.0676 0,4.42386 0.79598,6.0217 4.71306,9.46094 2.59219,2.27597 5.77219,4.13813 7.06667,4.13813 1.29448,0 2.9236,0.50374 3.62027,1.11943 0.69667,0.61569 7.71667,2.79358 15.6,4.83977 7.88334,2.04618 14.33334,4.19477 14.33334,4.77463 0,0.57986 1.8,1.44963 4,1.93283 2.2,0.48321 4,1.43088 4,2.10595 0,0.67506 0.81789,1.22739 1.81754,1.22739 0.99965,0 4.55128,2.92258 7.8925,6.49462 4.76963,5.09912 6.27788,7.84775 7.01932,12.79201 1.32217,8.81692 0.0695,23.31362 -2.42453,28.05733 -2.38568,4.53769 -11.03738,13.98937 -12.80532,13.98937 -0.64515,0 -1.88792,0.86144 -2.76172,1.9143 -0.8738,1.05286 -3.49726,2.32214 -5.82992,2.82063 -2.33267,0.49848 -4.84121,1.3682 -5.57454,1.9327 -1.63826,1.2611 -16.09901,2.14451 -25.95958,1.58587 z M 0,597.50484 v -65.50482 h 33.053204 c 35.084584,0 42.288749,0.91718 54.946803,6.9954 7.149476,3.43308 18.077673,13.31557 20.969143,18.96262 1.13828,2.22309 2.49681,4.34198 3.01895,4.70864 0.52214,0.36667 2.26547,4.65096 3.87407,9.52065 4.13367,12.51376 4.1276,34.61906 -0.0128,46.67225 -1.60096,4.66058 -3.34114,8.77377 -3.86706,9.14044 -0.52592,0.36667 -1.37805,2.01835 -1.89363,3.67041 -1.32928,4.25939 -16.52513,19.56221 -22.088673,22.24416 -14.768084,7.11906 -18.996496,7.77682 -54.333338,8.4519 L 0,663.00966 Z m 53.285304,42.45344 c 6.940249,-0.73087 13.210249,-1.92048 13.933334,-2.64356 0.723085,-0.72309 2.302895,-1.3147 3.510688,-1.3147 4.303766,0 14.897927,-10.38033 18.915317,-18.53353 2.609751,-5.29643 3.022031,-8.22499 3.022031,-21.46647 v -15.33334 l -5.147806,-8 c -4.98483,-7.74672 -14.17818,-15.33333 -18.580729,-15.33333 -1.127085,0 -2.269643,-0.66119 -2.539018,-1.46932 -0.324701,-0.9741 -7.439898,-1.53583 -21.111112,-1.66666 l -20.62134,-0.19735 -0.354088,42 c -0.400822,47.54331 -0.897615,45.3527 10.275594,45.31023 3.343172,-0.0127 11.75688,-0.6211 18.697129,-1.35197 z m 112.045456,17.72815 c 1.46809,-2.73914 2.66925,-5.68914 2.66925,-6.55555 0,-0.86642 0.45,-1.7753 1,-2.01975 0.55,-0.24444 2.00518,-2.54444 3.23374,-5.11111 7.92114,-16.54864 13.0996,-27.85716 13.0996,-28.60639 0,-0.47787 -2.84579,-5.18693 -6.32398,-10.46457 -7.6269,-11.5727 -8.31677,-12.67503 -11.52873,-18.42159 -1.38566,-2.4791 -2.92451,-4.80745 -3.41967,-5.17412 -0.49516,-0.36667 -6.39171,-9.06667 -13.10344,-19.33333 -6.71173,-10.26667 -12.67288,-19.28466 -13.247,-20.03998 -0.57412,-0.75532 -2.12777,-3.30532 -3.45257,-5.66667 l -2.40871,-4.29335 h 14.64681 c 15.39157,0 17.63127,0.76636 19.50646,6.67456 0.46412,1.46232 1.27447,2.65877 1.80078,2.65877 0.5263,0 2.73587,3.2979 4.91015,7.32867 2.17427,4.03077 4.40323,7.33077 4.95323,7.33333 0.55,0.003 1,0.61082 1,1.35167 0,0.74086 2.001,4.19386 4.44666,7.67333 2.44567,3.47948 4.69621,6.92332 5.00121,7.65299 1.6752,4.00773 9.64473,15.32668 10.79132,15.32668 0.73909,0 1.6576,-1.2 2.04115,-2.66667 0.38354,-1.46667 1.17969,-2.66667 1.76923,-2.66667 0.58954,0 1.46723,-1.8 1.95043,-4 0.4832,-2.2 1.36583,-4 1.9614,-4 0.59557,0 1.49338,-1.65 1.99514,-3.66666 0.50177,-2.01667 2.66681,-6.52568 4.81121,-10.02003 2.14441,-3.49435 3.89892,-6.70572 3.89892,-7.13637 0,-0.43065 2.23944,-5.52163 4.97654,-11.3133 l 4.97655,-10.5303 h 15.02345 c 11.30766,0 14.94102,0.41222 14.69013,1.66666 -0.18333,0.91667 -0.6394,1.96667 -1.01349,2.33334 -1.38281,1.35538 -7.98651,15.42777 -7.98651,17.01913 0,0.90615 -0.53496,1.64753 -1.18879,1.64753 -0.65383,0 -1.60141,1.64399 -2.10571,3.65331 -0.50431,2.00933 -1.31936,3.95933 -1.81121,4.33334 -1.37613,1.04641 -26.89429,52.53609 -26.89429,54.26636 0,0.83863 -0.45,1.72477 -1,1.96922 -1.24456,0.55313 -9.66667,17.68518 -9.66667,19.66369 0,0.79608 -0.55233,1.44742 -1.22739,1.44742 -0.67507,0 -1.62274,1.8 -2.10594,4 -0.48321,2.2 -1.33591,4 -1.89489,4 -0.55899,0 -1.73541,2.4 -2.61425,5.33333 -0.87885,2.93334 -2.17382,5.33334 -2.87772,5.33334 -0.7039,0 -1.27981,0.9 -1.27981,2 0,1.66185 -2.59288,2 -15.33593,2 H 162.6615 Z m 117.33593,-60.3048 v -65.38161 h 5.78576 c 4.81777,0 6.45527,0.72499 9.78749,4.33333 2.20094,2.38333 11.29735,11.39524 20.21423,20.02646 8.91689,8.63122 16.21252,16.28122 16.21252,17 0,0.71878 0.62352,1.30687 1.38561,1.30687 0.76208,0 8.61216,7.2 17.44463,16 8.83246,8.8 16.60894,16.00001 17.28106,16.00001 0.7114,0 1.22204,-15.60005 1.22204,-37.33334 v -37.33333 h 13.33333 13.33334 v 65.33333 65.33334 h -4.05341 c -2.99451,0 -5.37879,-1.39327 -9.12689,-5.33334 -2.79041,-2.93333 -5.49503,-5.33333 -6.01025,-5.33333 -0.51523,0 -2.25814,-1.35482 -3.87312,-3.01072 -3.60905,-3.70047 -30.34501,-28.31034 -37.46363,-34.48446 -2.85668,-2.47765 -8.98126,-8.18087 -13.61018,-12.67383 -4.62892,-4.49295 -9.34164,-8.52412 -10.47271,-8.95815 -1.13107,-0.43403 -2.05649,-1.40798 -2.05649,-2.16433 0,-0.75635 -0.59035,-1.37518 -1.3119,-1.37518 -0.81954,0 -1.44505,13.63603 -1.66667,36.33334 l -0.35476,36.33333 -13,0.38162 -13,0.38161 z m 141.33334,64.4311 c 0,-1.5356 5.97425,-13.1346 7,-13.59049 0.55,-0.24444 1,-1.08994 1,-1.87889 0,-2.04597 58.66981,-118.93074 59.9296,-119.39457 0.57448,-0.21152 8.44723,14.48848 17.495,32.66667 9.04778,18.17818 16.87131,33.35123 17.38564,33.7179 0.51432,0.36667 0.97396,1.26667 1.02143,2 0.12959,2.00199 12.6813,26.59836 13.83501,27.11111 0.55,0.24445 1,1.02569 1,1.7361 0,0.71041 4.12119,9.68053 9.1582,19.9336 l 9.1582,18.64195 -13.48622,-0.37805 -13.48622,-0.37804 -5.38641,-10.66667 -5.38641,-10.66666 -30.84414,-0.35765 -30.84414,-0.35764 -2.59984,3.69098 c -1.42991,2.03003 -3.04697,5.19097 -3.59346,7.02431 -0.54649,1.83333 -2.17415,5.28333 -3.61701,7.66666 l -2.62338,4.33334 h -12.55793 c -6.90685,0 -12.55792,-0.38428 -12.55792,-0.85396 z m 87.29259,-44.41343 c 0.43081,-0.69707 -0.43378,-3.53818 -1.92131,-6.31359 -1.48753,-2.77541 -2.7046,-6.10509 -2.7046,-7.39928 0,-1.29419 -0.45,-2.36782 -1,-2.38584 -0.55,-0.018 -3.40001,-5.1215 -6.33334,-11.34106 -3.57454,-7.57911 -5.99213,-11.18994 -7.33105,-10.94941 -2.14104,0.38462 -6.7485,8.04359 -9.41863,15.65656 -0.90021,2.56667 -2.06916,4.96667 -2.59767,5.33334 -1.93157,1.3401 -8.13937,16.00647 -7.32959,17.31671 1.07246,1.73527 37.56656,1.81326 38.63619,0.0826 z m 224.70744,-7.23602 c 0,-41.87653 -0.35644,-52.79923 -1.76103,-53.96493 -1.06427,-0.88327 -9.97461,-1.60729 -22.52062,-1.82993 l -20.7596,-0.3684 5.43266,-11 5.43267,-11 h 51.08796 c 28.09838,0 51.08796,0.20482 51.08796,0.45516 0,0.25034 -2.42463,5.35034 -5.38807,11.33334 l -5.38808,10.87816 h -15.94526 c -14.28454,0 -15.94869,0.24302 -15.97816,2.33334 -0.0181,1.28333 -0.0166,25.58333 0.003,54 l 0.0362,51.66667 H 748.6697 735.99971 Z m 61.34052,51.50341 c 0.004,-0.55 8.70395,-18.38351 19.33333,-39.63002 10.62938,-21.24652 19.32615,-39.39652 19.32615,-40.33334 0,-0.93682 0.4634,-1.70331 1.02978,-1.70331 0.56638,0 3.70298,-5.7 6.97022,-12.66667 3.26725,-6.96667 6.35618,-12.66667 6.86429,-12.66667 0.50811,0 1.31918,-1.8 1.80238,-4 0.4832,-2.2 1.43088,-4 2.10594,-4 0.67507,0 1.09015,-0.45 0.9224,-1 -0.16775,-0.55 1.68222,-5.05 4.11105,-10 4.22186,-8.60421 6.86061,-11.29658 6.86061,-7 0,1.1 0.53496,2 1.18879,2 0.65384,0 1.60207,1.64665 2.10719,3.65921 0.50513,2.01256 1.44238,4.29055 2.08279,5.0622 0.64041,0.77165 14.90661,28.825 31.70266,62.34079 l 30.53829,60.93781 -12.80986,-0.0204 c -7.04542,-0.0112 -13.51228,-0.46724 -14.37081,-1.01336 -0.85852,-0.54611 -1.97357,-2.63692 -2.47788,-4.64625 -0.5043,-2.00932 -1.4042,-3.65331 -1.99977,-3.65331 -0.59557,0 -1.484,-1.82645 -1.97431,-4.05878 -0.4903,-2.23234 -2.15111,-5.23234 -3.69069,-6.66667 -2.60431,-2.42629 -4.84746,-2.60646 -32.21448,-2.58746 -16.17839,0.0112 -30.05663,0.46123 -30.84053,1 -1.68703,1.15948 -7.24139,12.46081 -7.24139,14.73388 0,0.86847 -0.53002,1.57903 -1.17783,1.57903 -0.6478,0 -1.49163,1.2 -1.87517,2.66667 -0.63622,2.4329 -1.81869,2.66667 -13.48884,2.66667 -7.03532,0 -12.78826,-0.45 -12.78431,-1 z m 87.48353,-44.58798 c 0.53979,-0.87339 0.2752,-1.82339 -0.58797,-2.11111 -0.86318,-0.28773 -1.56941,-1.11029 -1.56941,-1.82793 0,-3.08266 -16.00596,-35.80632 -17.51377,-35.80632 -0.65782,0 -2.23633,2.25 -3.5078,5 -1.27147,2.75 -2.76176,5.2 -3.31176,5.44445 -0.55,0.24444 -1,1.07591 -1,1.8477 0,1.99306 -11.11646,24.2794 -12.38899,24.83751 -0.5806,0.25465 -0.35714,1.30465 0.4966,2.33334 2.05889,2.48081 37.86572,2.73753 39.3831,0.28236 z m 74.5093,44.81642 c -0.86992,-0.36604 -1.20876,-23.06332 -0.97491,-65.30408 l 0.35844,-64.74303 37.64157,0.44528 37.64159,0.44529 7.0501,3.65802 c 14.8588,7.70973 22.2211,19.51244 22.2086,35.60341 0,5.5 -0.7918,12.75899 -1.7499,16.13108 -1.8932,6.6628 -9.2974,15.51223 -15.2057,18.17367 -3.9721,1.78927 -4.9578,6.7656 -1.9698,9.94473 0.9167,0.97531 3.4667,5.36816 5.6667,9.7619 2.2,4.39374 4.75,8.46843 5.6666,9.05487 0.9167,0.58644 1.6667,1.93644 1.6667,3 0,1.06356 0.6,1.93375 1.3333,1.93375 0.7334,0 1.3334,0.54729 1.3334,1.21621 0,0.66891 2.4,5.37895 5.3333,10.46675 2.9333,5.0878 5.3333,9.6405 5.3333,10.11712 0,1.19975 -25.6634,1.05584 -27.4327,-0.15383 -0.788,-0.53877 -2.888,-3.67958 -4.6667,-6.97958 -1.7786,-3.3 -3.6131,-6.3 -4.0766,-6.66667 -0.7537,-0.59633 -2.1238,-3.08926 -8.0604,-14.66667 -0.9401,-1.83333 -2.069,-3.63333 -2.5087,-4 -0.4396,-0.36666 -2.5518,-3.81605 -4.6938,-7.66531 l -3.8944,-6.99864 -15.66666,-10e-4 -15.66667,-10e-4 v 24 24 l -11.66666,-0.10527 c -6.41667,-0.0579 -12.26667,-0.35772 -13,-0.66629 z m 67.33329,-71.22845 c 0,-0.73333 0.813,-1.33333 1.8067,-1.33333 2.6681,0 8.7144,-7.87117 10.4205,-13.56573 1.7485,-5.83587 0.2295,-10.62407 -5.3434,-16.84318 -4.7699,-5.32316 -11.4204,-6.91161 -28.8838,-6.89878 -22.42722,0.0165 -20.66663,-1.67946 -20.66663,19.90764 0,10.05892 0.4,18.68894 0.88889,19.17783 1.47697,1.47696 41.77774,1.04823 41.77774,-0.44445 z M 305.33336,396.83553 c 0,-0.44211 10.24073,-18.34462 13.44389,-23.50219 0.68317,-1.1 1.97556,-3.5 2.87198,-5.33333 0.89642,-1.83333 1.94206,-3.63333 2.32366,-4 0.9938,-0.95493 3.60209,-5.26708 6.45195,-10.66667 4.30252,-8.15193 9.88972,-17.94629 11.14998,-19.54591 0.66987,-0.85024 2.90807,-4.75024 4.97377,-8.66666 2.0657,-3.91642 5.32978,-9.82076 7.2535,-13.12076 1.92372,-3.3 4.24823,-7.5 5.16559,-9.33333 0.91735,-1.83334 2.38069,-4.08198 3.25187,-4.99699 0.87118,-0.915 3.27818,-5.03496 5.34889,-9.15546 5.94703,-11.83397 6.34444,-12.51422 7.31102,-12.51422 0.50257,0 1.60683,-2.1 2.4539,-4.66667 0.84708,-2.56667 2.09361,-4.66667 2.77007,-4.66667 0.67646,0 1.22993,-0.64625 1.22993,-1.43612 0,-1.17739 15.33155,-28.69716 19.9987,-35.89721 0.71303,-1.1 2.42857,-4.1 3.8123,-6.66667 6.68685,-12.40334 11.40766,-20.72931 12.09597,-21.33333 0.41784,-0.36667 1.79971,-2.76667 3.07083,-5.33333 1.27112,-2.56667 4.41994,-8.26667 6.99738,-12.66667 2.57744,-4.4 5.43043,-9.5 6.33999,-11.33333 0.90955,-1.83334 2.41073,-4.1262 3.33595,-5.09524 0.92522,-0.96905 1.68222,-2.61905 1.68222,-3.66667 0,-1.04762 0.55347,-1.90476 1.22993,-1.90476 0.67646,0 1.92299,-2.1 2.77007,-4.66667 C 443.51378,154.1 444.74888,152 445.41137,152 c 0.66249,0 1.581,-1.5 2.04114,-3.33333 0.46014,-1.83333 1.24002,-3.33333 1.73308,-3.33333 0.49306,0 1.6187,-1.65 2.50141,-3.66667 0.88271,-2.01667 3.30143,-6.66667 5.37493,-10.33333 6.21187,-10.98473 24.28812,-42.517383 25.60539,-44.666671 0.67417,-1.1 2.87518,-5.15 4.89112,-9 2.01595,-3.85 4.07496,-7 4.5756,-7 0.50063,0 1.32286,-1.64399 1.82717,-3.653311 0.5043,-2.009321 1.33913,-3.959321 1.85516,-4.333334 1.52991,-1.108862 12.18367,-19.687384 12.18367,-21.246463 0,-0.788458 0.5413,-1.43356 1.2029,-1.43356 0.66159,0 1.8832,-1.65 2.71468,-3.666667 1.49038,-3.61476 4.22946,-8.55367 11.2767,-20.333334 1.97424,-3.3 3.93315,-7.0499997 4.35313,-8.3333331 0.41999,-1.2833334 1.29363,-2.3333334 1.94143,-2.3333334 0.64781,0 1.17783,-0.8645898 1.17783,-1.9213107 0,-1.0567209 0.69451,-2.3505441 1.54336,-2.87516265 1.05395,-0.65137323 1.30872,-0.0565556 0.80341,1.87572865 -0.40697,1.5562694 -0.35148,2.7790399 0.12331,2.7172679 2.78722,-0.3626292 4.0051,0.5923459 4.80136,3.7649144 0.49163,1.9587909 2.05667,5.0397059 3.47788,6.8464789 1.42121,1.806772 2.58401,4.104125 2.58401,5.105229 0,1.001104 0.6,1.820188 1.33333,1.820188 0.73334,0 1.33334,0.555052 1.33334,1.233449 0,0.678396 3.6,7.574613 8,15.324927 4.4,7.750313 8,14.695262 8,15.433219 0,0.737957 0.59195,1.34174 1.31544,1.34174 0.72349,0 2.19378,1.95 3.26731,4.333333 1.07352,2.383334 4.07578,7.933334 6.67169,12.333334 2.5959,4.4 5.48265,9.5 6.41498,11.333334 0.93234,1.833333 3.23285,5.733333 5.11225,8.666666 1.87941,2.933334 5.14772,8.783331 7.26293,13.000001 2.1152,4.21667 4.32048,7.66667 4.90061,7.66667 0.58014,0 1.05479,0.62425 1.05479,1.38722 0,0.76298 4.8,9.73872 10.66667,19.94611 5.86667,10.20739 10.66667,19.18314 10.66667,19.94611 0,0.76297 0.53002,1.38722 1.17782,1.38722 0.64781,0 1.5222,1.05 1.94311,2.33334 0.42091,1.28333 2.30429,4.73333 4.18529,7.66667 1.881,2.93333 4.13815,6.98333 5.01588,9 0.87772,2.01666 2.06432,3.66666 2.63688,3.66666 0.57256,0 1.04102,0.81909 1.04102,1.82019 0,1.0011 1.1628,3.29846 2.58401,5.10523 1.42121,1.80677 2.98625,4.88769 3.47788,6.84648 0.49162,1.95879 1.29135,3.56144 1.77717,3.56144 0.48581,0 2.3666,2.85 4.17953,6.33333 1.81292,3.48333 3.98946,7.23333 4.83676,8.33333 0.8473,1.1 3.32017,5.3 5.49527,9.33334 6.17955,11.45888 33.71409,59.92789 36.35747,64 0.71405,1.1 1.93438,3.48779 2.71184,5.3062 0.77747,1.8184 1.83825,3.6184 2.35729,4 0.51905,0.38159 1.68314,2.1938 2.58688,4.02713 2.812,5.70452 9.89911,17.96669 10.78868,18.66667 0.46597,0.36667 1.87632,2.76667 3.13409,5.33333 2.6913,5.49196 8.8178,16.32929 15.17365,26.84108 2.49672,4.12927 4.53949,8.1058 4.53949,8.83675 0,0.73094 0.84113,2.02707 1.86918,2.88027 1.02805,0.85321 2.27562,3.17066 2.77238,5.14991 0.49676,1.97924 1.35756,3.90463 1.9129,4.27864 1.52996,1.0304 15.86001,25.17756 16.0236,27.00091 0.10628,1.18451 -17.71801,-7.2191 -18.35584,-8.65422 -0.24445,-0.55 -1.21353,-1 -2.15352,-1 -0.94,0 -3.18735,-1.16281 -4.99412,-2.58402 -1.80677,-1.4212 -4.88769,-2.98625 -6.84648,-3.47787 -1.95879,-0.49163 -3.56144,-1.29728 -3.56144,-1.79034 0,-0.49306 -1.65,-1.60623 -3.66667,-2.47371 -3.63195,-1.56231 -8.381,-4.3632 -9.66666,-5.7012 -0.36667,-0.38159 -2.16667,-1.44349 -4,-2.35978 -1.83334,-0.91628 -5.54852,-3.00407 -8.25597,-4.63952 -2.70744,-1.63546 -8.40744,-5.03394 -12.66666,-7.55219 -4.25922,-2.51824 -8.04404,-4.97827 -8.41071,-5.46674 -0.36667,-0.48846 -1.26667,-1.12808 -2,-1.42137 -1.3524,-0.54089 -24.21799,-15.58571 -26.66667,-17.54581 -2.03788,-1.63128 -14.6884,-10.73177 -18.05375,-12.98745 -1.64113,-1.1 -4.55041,-3.24562 -6.46506,-4.76803 -1.91466,-1.52242 -10.98119,-8.41137 -20.14786,-15.30878 -9.16666,-6.89741 -17.86667,-13.64454 -19.33333,-14.99362 -1.46667,-1.34908 -5.51667,-4.63342 -9,-7.29854 -3.48334,-2.66511 -6.33334,-5.32237 -6.33334,-5.90502 0,-0.58264 -0.87018,-1.05935 -1.93374,-1.05935 -1.06356,0 -2.41356,-0.75861 -3,-1.6858 -0.58644,-0.92719 -4.34928,-4.37719 -8.36187,-7.66667 -4.01258,-3.28947 -8.26182,-6.88086 -9.44275,-7.98086 -5.84484,-5.44428 -12.28939,-10.66667 -13.16294,-10.66667 -0.53768,0 -4.62422,3.3 -9.08119,7.33333 -4.45698,4.03334 -8.44832,7.33334 -8.86963,7.33334 -0.42132,0 -2.8265,1.95 -5.34484,4.33333 -2.51835,2.38333 -7.12255,6.43333 -10.23157,9 -3.10901,2.56667 -6.30946,5.27047 -7.11211,6.00845 -1.87764,1.72636 -10.01158,8.20184 -13.45936,10.71509 -1.46667,1.06912 -6.67238,5.2437 -11.56825,9.27683 -4.89587,4.03313 -9.49587,7.33297 -10.22222,7.33297 -0.72636,0 -1.52065,0.47408 -1.76509,1.05351 -0.24445,0.57944 -3.41093,3.12944 -7.03664,5.66667 -3.62571,2.53723 -7.53499,5.51315 -8.68731,6.61315 -1.15231,1.1 -6.43582,4.95591 -11.74114,8.56868 -5.30531,3.61278 -9.64602,7.06278 -9.64602,7.66667 0,0.60389 -0.65865,1.09798 -1.46365,1.09798 -0.80501,0 -6.14637,3.3 -11.86969,7.33334 -5.72332,4.03333 -10.85804,7.33333 -11.4105,7.33333 -0.55245,0 -2.97106,1.5 -5.37468,3.33333 -2.40363,1.83334 -4.67815,3.33334 -5.0545,3.33334 -0.37634,0 -5.36638,2.99992 -11.08896,6.66648 -5.72258,3.66657 -11.12488,6.66657 -12.00511,6.66667 -0.88023,1e-4 -2.08023,0.75018 -2.66667,1.66685 -0.58644,0.91666 -4.36625,3.39267 -8.39958,5.50223 -16.33884,8.54574 -30.31026,15.97135 -35.71398,18.98148 -5.65538,3.15031 -6.95269,3.65134 -6.95269,2.68514 z"
       id="path1" />
  </g>
</svg>
