<?xml version="1.0" encoding="UTF-8" standalone="no"?>
<!-- Created with Inkscape (http://www.inkscape.org/) -->

<svg
   version="1.1"
   id="svg1"
   width="1997.8396"
   height="402.31747"
   viewBox="0 0 1997.8396 402.31747"
   xmlns="http://www.w3.org/2000/svg"
   xmlns:svg="http://www.w3.org/2000/svg">
  <defs
     id="defs1" />
  <g
     id="g1"
     transform="translate(-1.1603748,-0.60426206)">
    <path
       style="fill:#ffffff"
       d="m 179.77066,401.84044 c -2.06705,-0.57053 -5.03723,-2.51895 -6.66359,-4.37128 -3.78309,-4.3087 -4.314,-9.32558 -3.91226,-36.96916 l 0.30519,-21 h 4 4 l 0.5,25.72416 c 0.48796,25.10473 0.5548,25.77897 2.77578,28 2.20309,2.20315 2.95741,2.28605 23.61526,2.59556 23.6824,0.35482 27.72871,-0.37429 29.61532,-5.33645 C 234.56637,389.01032 235,377.18004 235,363.37454 v -24.49527 l 3.75,0.31036 3.75,0.31037 0.25543,26.5 c 0.36629,38.00109 1.87516,36.40845 -34.75543,36.68489 -14.33786,0.10821 -26.04686,-0.24206 -28.22934,-0.84445 z m 711.22287,0.22522 c -5.8698,-1.78551 -8.85063,-4.13686 -11.14112,-8.78838 C 877.65414,388.81302 877.5,387.35335 877.5,371 c 0,-16.66667 0.11905,-17.7381 2.5,-22.5 1.91366,-3.82732 3.54648,-5.52771 6.96189,-7.25 4.2807,-2.15863 5.49895,-2.24977 30,-2.24442 14.04596,0.003 27.13869,0.45022 29.09496,0.99367 4.27732,1.18824 8.26529,5.132 10.43018,10.31454 1.27303,3.04754 1.56733,7.36194 1.46475,21.47373 l -0.12836,17.65995 2.75526,2.19696 c 2.68196,2.13853 2.7103,2.26558 1.06524,4.77627 -1.94863,2.97398 -2.54579,3.10608 -5.20279,1.1509 -1.71514,-1.2621 -2.17729,-1.20782 -3.9696,0.4662 -4.60974,4.3055 -9.33796,4.96713 -34.84726,4.87625 -13.26835,-0.0473 -25.25218,-0.42905 -26.63074,-0.84839 z m 53.95916,-8.57201 2.00445,-2.00634 -12.46897,-7.85562 -12.46897,-7.85561 1.70601,-2.88804 c 0.9383,-1.58842 1.97577,-2.88804 2.30547,-2.88804 0.32971,0 5.27679,2.97523 10.99352,6.61163 5.71672,3.6364 11.01654,6.85051 11.77737,7.14247 1.14974,0.4412 1.3255,-2.06825 1.04088,-14.86164 -0.38107,-17.12831 -1.2422,-19.79036 -7.05766,-21.81764 C 940.9412,346.43214 930.69527,346 917.30112,346 885.57801,346 886,345.66994 886,370.48246 c 0,19.71968 0.83314,22.02463 9,24.89928 0.825,0.29039 11.95085,0.4358 24.72412,0.32312 21.76677,-0.192 23.34991,-0.33076 25.22857,-2.21121 z m 108.17011,8.54282 c -4.1773,-1.03394 -8.2245,-3.95966 -9.8669,-7.13287 -0.9196,-1.77674 -1.1804,-9.31476 -1,-28.9036 l 0.2441,-26.5 3.75,-0.31037 3.75,-0.31036 v 25.12611 c 0,16.08624 0.3887,25.85247 1.0805,27.14502 2.175,4.06403 6.6166,4.8496 27.4195,4.8496 20.8029,0 25.2445,-0.78557 27.4195,-4.8496 0.6916,-1.29218 1.0805,-11.04166 1.0805,-27.08466 V 339 h 4.0446 4.0445 l -0.2945,27.89673 c -0.2773,26.25717 -0.412,28.02637 -2.2922,30.10238 -4.7116,5.20221 -6.3189,5.48783 -32.0024,5.68707 -13.2,0.10241 -25.5197,-0.18997 -27.3772,-0.64971 z M 20.235753,370.75 20.5,339.5 H 50 c 26.617757,0 29.825232,0.17747 32.828778,1.81642 5.00803,2.73273 6.413071,7.1389 6.009344,18.84512 -0.325242,9.4305 -0.456107,9.92188 -3.435351,12.89921 -4.043645,4.04106 -10.268206,4.86309 -37.152771,4.90653 L 28,378 v 12 12 h -4.014247 -4.014246 z m 54.738175,-1.05644 c 4.728319,-1.62454 6.183648,-4.80167 5.761143,-12.57718 C 80.155625,346.45266 77.802948,345.6911 47,346.19648 L 28.5,346.5 28.214284,357.43573 c -0.157143,6.01466 -0.05877,11.52716 0.218615,12.25 0.680539,1.77346 41.382131,1.7803 46.541029,0.008 z M 328,370.42178 v -31.57822 l 29.75,0.32822 c 27.7635,0.3063 30.01709,0.46635 33.75,2.39685 5.60644,2.8994 7.49652,7.09231 7.49845,16.63432 0.002,9.45386 -1.20925,12.30416 -6.15562,14.4865 l -3.83789,1.69327 2.86923,1.20642 C 397.01078,377.74892 398,380.35419 398,391.72251 V 402 h -3.90629 -3.9063 l -0.3437,-10.08983 c -0.30897,-9.07001 -0.57374,-10.27594 -2.61963,-11.93128 -3.16004,-2.5568 -9.73198,-3.13315 -31.72408,-2.78214 l -19,0.30325 -0.28078,12.25 -0.28078,12.25 H 331.96922 328 Z m 58.70777,-2.05292 C 389.3464,366.39884 389.5,365.85594 389.5,358.5 c 0,-7.37561 -0.14813,-7.89479 -2.82236,-9.89208 -2.68466,-2.00508 -3.97757,-2.10792 -26.5,-2.10792 H 336.5 l -0.28572,10.93573 c -0.15714,6.01466 -0.0387,11.57937 0.26314,12.36603 0.46037,1.19969 4.32882,1.36754 23.99349,1.04105 21.86925,-0.36309 23.63226,-0.52933 26.23686,-2.47395 z M 482.23575,370.75 482.5,339.5 h 30.5 30.5 l 0.31336,3.25 0.31336,3.25 H 517.56336 491 v 9.98283 9.98283 l 25.25,0.26717 25.25,0.26717 0.31336,3.25 0.31336,3.25 H 516.56336 491 v 11 11 h 26.5 26.5 v 3.5 3.5 h -31.01425 -31.01424 z m 254,0 0.26425,-31.25 30.25,-0.26466 30.25,-0.26467 v 3.49806 3.49806 l -26.25,0.26661 -26.25,0.2666 -0.28621,9.75 -0.28621,9.75 H 769.46379 795 v 3.48283 3.48283 l -25.25,0.26717 -25.25,0.26717 -0.28367,10.7336 -0.28366,10.73361 26.78366,0.26639 26.78367,0.2664 0.31336,3.25 0.31336,3.25 h -31.07761 -31.0776 z m 465.00005,0 0.2642,-31.25 3.75,-0.31037 3.75,-0.31036 V 370.43963 402 h -4.0142 -4.0143 z m 93,0 0.2642,-31.25 h 30 c 28.0546,0 30.2107,0.12744 33.2495,1.96533 4.8178,2.91379 6.6082,8.49727 6.062,18.90399 -0.4961,9.45281 -1.9481,12.59482 -7.0709,15.30084 -2.7389,1.44675 -7.15,1.77821 -28.4906,2.14081 L 1303,378.24 V 390.12 402 h -4.5142 -4.5143 z m 55.0941,-0.82464 c 2.9514,-0.81955 4.1556,-1.84305 5.25,-4.4623 3.0227,-7.23427 0.7861,-16.76856 -4.264,-18.17747 C 1348.7672,346.85352 1337.6,346.5 1325.5,346.5 h -22 l -0.2857,10.93573 c -0.1572,6.01466 -0.059,11.52716 0.2186,12.25 0.6392,1.66563 40.0211,1.87124 45.897,0.23963 z m 94.9059,0.82464 0.2642,-31.25 6.1183,-0.2943 6.1183,-0.2943 18.1753,26.0443 c 9.9963,14.32437 18.4931,26.02932 18.8816,26.011 0.3886,-0.0183 8.3565,-11.10179 17.7065,-24.62996 9.35,-13.52817 17.6148,-25.2333 18.3661,-26.01141 0.957,-0.99098 3.2035,-1.32646 7.5,-1.12003 l 6.1339,0.2947 0.2642,31.25 0.2643,31.25 h -4.4982 -4.4982 l -0.266,-27.04314 -0.2661,-27.04314 -18.6056,26.79314 c -17.6887,25.47285 -18.773,26.80771 -22.0035,27.08881 -3.3924,0.29519 -3.4277,0.25269 -21.8028,-26.25 C 1461.9654,360.94555 1453.3045,349 1452.8416,349 1452.3787,349 1452,360.925 1452,375.5 V 402 h -4.0142 -4.0143 z m 184,0 0.2642,-31.25 h 30.5 30.5 l 0.3134,3.25 0.3133,3.25 H 1663.5634 1637 v 9.98283 9.98283 l 25.25,0.26717 25.25,0.26717 0.3134,3.25 0.3133,3.25 H 1662.5634 1637 v 11 11 h 26.5 26.5 v 3.5 3.5 h -31.0142 -31.0143 z m 143,0 0.2642,-31.25 5.7673,-0.30042 5.7673,-0.30042 19.0971,18.30042 c 10.5034,10.06523 23.4331,22.40558 28.7327,27.423 l 9.6356,9.12258 0.5,-27.12258 0.5,-27.12258 3.75,-0.31037 3.75,-0.31036 V 370.43963 402 l -6.25,-0.0264 -6.25,-0.0264 -28.1748,-26.97362 C 1792.829,360.13813 1779.8915,348 1779.5752,348 1779.2588,348 1779,360.15 1779,375 v 27 h -4.0142 -4.0143 z m 187.53,3.5 -0.2658,-27.75 -15.8114,-0.2757 -15.8115,-0.27571 0.3115,-3.22429 0.3114,-3.2243 35.75,-0.26263 35.75,-0.26263 V 342.48737 346 h -15.393 c -13.1139,0 -15.4829,0.2342 -16,1.58179 -0.3339,0.86998 -0.607,13.46998 -0.607,28 V 402 h -3.9842 -3.9842 z M 175.8125,259.31689 c 0.72187,-0.28887 1.58437,-0.25335 1.91667,0.0789 0.33229,0.33229 -0.25834,0.56864 -1.3125,0.52522 -1.16495,-0.048 -1.4019,-0.28494 -0.60417,-0.60416 z m -7.54347,-1.00988 c 0.97297,-0.25354 2.32297,-0.23687 3,0.0371 0.67703,0.27393 -0.11903,0.48137 -1.76903,0.46099 -1.65,-0.0204 -2.20394,-0.2445 -1.23097,-0.49804 z M 144.5,254.53796 C 43.284267,233.34708 -12.566791,187.08919 4.0649014,138.22447 8.3871494,125.52549 21.473343,109.60532 36.640355,98.594393 58.316073,82.858285 91.076625,68.939264 127.4888,59.995488 c 17.92431,-4.402674 38.75621,-8.309853 41.32258,-7.750358 0.92874,0.202475 -0.56138,0.713475 -3.31138,1.135557 -8.60284,1.320399 -27.50638,6.352861 -39.84251,10.606791 C 98.523258,73.344314 77.531111,85.650673 62.251606,101.15831 53.998198,109.53495 49.552592,115.80088 44.981447,125.5 34.155918,148.46977 35.989625,172.88613 50.179018,194.70726 67.73273,221.7022 104.63385,243.08426 154,254.8655 c 16.97092,4.05012 10.31292,3.82056 -9.5,-0.32754 z m 199.42133,0.34517 c 31.6555,-8.22587 44.0435,-19.23093 37.05892,-32.92185 -3.69151,-7.23595 -13.96341,-12.18289 -29.16691,-14.04676 -11.1371,-1.36535 -20.99201,-0.69421 -37.90027,2.58111 -28.6327,5.54647 -65.71377,7.91627 -87.41307,5.58643 -32.53588,-3.49334 -58.15192,-14.96444 -72.23997,-32.34974 l -4.23998,-5.23232 69.23998,-0.51231 c 68.03511,-0.5034 69.35308,-0.55063 75.73997,-2.71413 15.31527,-5.1879 23.02369,-14.07442 20.59665,-23.74449 -0.9498,-3.78432 -7.28986,-10.33992 -12.60459,-13.0331 C 292.20584,133.03018 291.74239,133 218.60566,133 158.01153,133 151,132.83815 151,131.43939 c 0,-0.85833 3.48778,-5.02083 7.75062,-9.25 12.27608,-12.1791 29.05602,-20.47893 51.27494,-25.362034 C 219.63712,94.715 222.93019,94.524605 250,94.516157 c 31.35957,-0.0098 35.68917,0.371781 64,5.640353 14.83539,2.76082 17.91239,3.02276 30.5,2.59635 16.35953,-0.55419 24.93288,-2.863648 31.50087,-8.485598 11.99439,-10.266752 8.78744,-21.760607 -8.51648,-30.523458 -6.16016,-3.119558 -22.64061,-8.250915 -31.72917,-9.879203 -3.70962,-0.664609 -6.55181,-1.40134 -6.31598,-1.637179 0.64185,-0.641843 19.33535,2.597551 33.88884,5.87259 71.48883,16.087469 120.3733,46.219398 132.24896,81.517018 2.36766,7.03733 2.60023,8.95571 2.16801,17.88297 -0.57807,11.93956 -2.7531,18.35423 -9.79154,28.87757 -20.22709,30.24201 -69.70179,55.10667 -136.45351,68.57789 -18.92797,3.81987 -22.42842,3.78646 -7.57867,-0.0723 z M 795,248.36926 C 741.57307,244.45462 700.84076,232.27759 674,212.19599 660.03838,201.75025 649.46655,188.4785 644.9887,175.77553 641.88832,166.98024 641.15078,149.96025 643.48176,141 646.40129,129.77734 652.453,119.59886 661.96379,109.91474 681.3837,90.140912 710.95636,76.540206 751.88304,68.560148 775.20907,64.011942 792.70207,62.622495 826,62.673135 c 45.4619,0.06914 76.92415,4.341026 94.60535,12.845341 C 930.0989,80.08469 934,84.511632 934,90.718634 c 0,4.241622 -0.41721,5.049199 -4.76078,9.215204 -9.70449,9.307792 -27.02728,12.169152 -49.23922,8.133282 -31.33394,-5.69331 -37.27738,-6.25611 -61,-5.77622 -29.12443,0.58917 -44.74682,3.54909 -60.44834,11.45291 C 748.82393,118.64055 737,129.56129 737,133.6492 c 0,1.02842 10.95391,1.34217 54.75,1.56822 l 54.75,0.28258 5.83196,2.35251 c 16.80816,6.78013 20.75771,20.27482 8.52699,29.13471 -2.23812,1.62128 -6.60948,3.973 -9.71413,5.22603 -5.57162,2.24871 -6.34511,2.28479 -59.64482,2.7825 l -54,0.50425 8.05022,8.13467 c 6.90417,6.9766 9.53789,8.85282 18.5,13.1791 16.52894,7.97901 27.4047,10.30567 51.0603,10.92334 22.58666,0.58976 40.22351,-0.7031 59.25952,-4.34398 24.625,-4.70984 40.25331,-4.21426 52.3184,1.65904 9.32394,4.53891 12.80295,12.25039 8.90903,19.74749 -4.8973,9.42893 -29.31064,17.51147 -65.68247,21.74553 -12.89501,1.50111 -62.75413,2.71511 -74.915,1.82407 z m 771,-0.0188 c -1.925,-0.18124 -9.125,-0.81363 -16,-1.40531 -23.4886,-2.02152 -53.0573,-8.61886 -71.5456,-15.96323 -38.392,-15.2509 -61.3257,-37.972 -66.1061,-65.49313 -6.8345,-39.34707 25.3437,-73.90034 84.7611,-91.017338 29.9932,-8.640431 56.3934,-11.845042 97.3906,-11.821808 49.3211,0.02795 83.6807,5.11017 99.7742,14.75787 16.9929,10.18679 10.8019,25.589956 -12.4927,31.082016 -8.6812,2.04673 -18.5007,1.87538 -32.4321,-0.56595 -29.2569,-5.12693 -36.6263,-5.90942 -55.7211,-5.91652 -35.762,-0.0133 -60.1093,5.97994 -76.1747,18.75084 -5.2028,4.13589 -11.8342,12.52822 -10.7534,13.60898 0.3482,0.34824 24.3607,0.63317 53.3611,0.63317 49.808,0 53.0847,0.11016 59.1685,1.98926 19.6481,6.06869 24.6687,21.00425 10.337,30.75142 -9.8344,6.68847 -9.4451,6.64734 -68.4236,7.23115 l -53.3568,0.52817 3.8568,4.76209 c 8.4938,10.48754 23.8065,19.1575 42.3568,23.98214 10.3104,2.68158 13.5285,3.04342 31.1105,3.49795 22.6505,0.58557 40.8148,-0.74722 58.8895,-4.32095 29.7334,-5.87891 50.2101,-3.5724 59.4916,6.7012 2.8072,3.10716 3.5084,4.70137 3.5084,7.97616 0,5.5559 -2.274,8.99572 -8.7786,13.27938 -16.3607,10.77433 -60.6378,17.85224 -109.2214,17.45957 -10.725,-0.0867 -21.075,-0.3059 -23,-0.48713 z m -579,-2.32014 c -14.1635,-1.78145 -23.63105,-6.00497 -27.89221,-12.44286 l -2.60779,-3.94 -0.27558,-71.87188 c -0.18306,-47.74409 0.0756,-73.176071 0.77053,-75.756809 1.52829,-5.675647 8.26477,-11.197818 17.25242,-14.142524 C 980.69537,65.76363 983.33057,65.5 998,65.5 c 14.2693,0 17.4463,0.29983 23.5,2.217822 8.8793,2.813229 13.9523,6.288237 16.5159,11.313342 1.9826,3.88614 2.0166,5.396457 1.753,77.794246 l -0.2689,73.83117 -2.812,3.68628 c -3.1676,4.15248 -10.0445,7.99402 -18.0371,10.07582 -6.9772,1.81733 -23.37639,2.65234 -31.6509,1.61159 z m 773,-0.0553 c -13.9739,-1.63863 -23.611,-5.91893 -27.8922,-12.38823 L 1729.5,229.64606 V 155.99519 82.344316 l 2.7417,-3.594545 c 3.0177,-3.956423 10.0316,-7.754034 19.2583,-10.427202 5.3297,-1.544123 12.6473,-1.778726 65.5,-2.099916 63.3678,-0.385092 83.4223,0.363066 104.1647,3.885995 36.0563,6.123883 60.9969,19.292114 69.5479,36.720172 3.8572,7.86144 4.3583,18.28536 1.274,26.49881 -6.0962,16.23393 -30.1481,30.00024 -62.2405,35.62386 -6.7354,1.18025 -13.9458,2.46149 -16.0231,2.84721 -3.6817,0.68359 -2.8368,1.1937 33.4614,20.2013 20.4811,10.725 39.7308,21.15279 42.777,23.17287 11.2989,7.49278 11.9139,15.68871 1.7044,22.71307 -15.3013,10.52755 -49.4575,11.85347 -67.8159,2.63256 -4.0585,-2.03846 -87.195,-52.7186 -103.6193,-63.1665 -2.8982,-1.8436 -5.7107,-3.352 -6.25,-3.352 -0.6167,0 -0.9806,10.05736 -0.9806,27.09887 0,30.1292 -0.2447,31.48437 -6.6365,36.75304 -4.5034,3.71205 -13.9776,6.8752 -24.3373,8.12544 -9.3345,1.12653 -12.4017,1.1262 -22.0262,-0.002 z m 126.5,-104.48396 c 12.4063,-2.61296 20.079,-6.9766 22.9665,-13.06166 3.3754,-7.11319 -0.1121,-13.65263 -9.8334,-18.43841 -10.2623,-5.05209 -18.158,-5.91682 -54.3831,-5.95601 L 1813,104 v 19.5 19.5 l 33.25,-0.0174 c 25.4113,-0.0133 34.9003,-0.36494 40.25,-1.49167 z M 1105,243.4816 c -12.8702,-2.83296 -20.1702,-7.04239 -23.5511,-13.58038 -2.1307,-4.12032 -2.1722,-144.610405 -0.044,-148.70088 2.9253,-5.622272 9.4695,-9.70112 20.655,-12.873723 5.9662,-1.692228 11.6636,-1.824985 77.44,-1.804442 67.9924,0.02124 71.6977,0.117403 87.4695,2.270173 50.7572,6.928066 85.8245,21.430047 107.6985,44.538392 19.463,20.56133 23.5303,44.42795 11.664,68.44352 -4.7717,9.6571 -17.4615,23.18876 -28.8562,30.77056 -21.3746,14.22219 -51.9138,24.36115 -89.4758,29.70583 -13.3583,1.90075 -20.0903,2.08677 -85.5,2.36246 -58.7167,0.24748 -72.1245,0.0517 -77.5,-1.13151 z m 139,-38.78994 c 14.1728,-2.84292 20.5186,-4.82045 29.5,-9.19302 20.8242,-10.13822 30.3012,-24.01222 29.3094,-42.9079 -1.1551,-22.00736 -17.172,-36.69059 -48.0961,-44.09122 -14.6257,-3.50016 -28.2551,-4.49774 -61.4633,-4.49868 L 1164,104 v 51.59425 51.59425 l 36.25,-0.49621 c 26.5747,-0.36376 38.2518,-0.89775 43.75,-2.00063 z M 171.75,51.337719 c 0.6875,-0.277412 1.8125,-0.277412 2.5,0 0.6875,0.277413 0.125,0.504386 -1.25,0.504386 -1.375,0 -1.9375,-0.226973 -1.25,-0.504386 z m 153.0625,-0.02083 c 0.72187,-0.288871 1.58438,-0.253344 1.91667,0.07895 0.33229,0.332292 -0.25834,0.568641 -1.3125,0.52522 -1.16495,-0.04798 -1.4019,-0.284941 -0.60417,-0.604167 z M 977.5,47.899542 C 965.16991,46.13927 957.8665,41.135761 956.42701,33.462608 955.27055,27.298147 956.44053,13.502804 958.36947,10.558865 962.99655,3.497052 974.58055,0.58734431 998,0.60433599 c 23.0584,0.0167297 32.7902,2.23159111 39,8.87601671 2.3118,2.4735793 2.522,3.5161933 2.7927,13.8473183 0.2404,9.174943 -0.028,11.798058 -1.5,14.672329 -2.3359,4.560561 -10.4218,8.631351 -19.7927,9.964517 -8.3156,1.183031 -32.52692,1.144662 -41,-0.06498 z"
       id="path1" />
  </g>
</svg>
