<?xml version="1.0" encoding="UTF-8" standalone="no"?>
<!-- Generator: Adobe Illustrator 24.0.0, SVG Export Plug-In . SVG Version: 6.00 Build 0)  -->

<svg
   version="1.1"
   id="Camada_1"
   x="0px"
   y="0px"
   viewBox="0 0 612 430.9"
   style="enable-background:new 0 0 612 430.9;"
   xml:space="preserve"
   sodipodi:docname="oakley.svg"
   inkscape:version="1.4 (e7c3feb1, 2024-10-09)"
   xmlns:inkscape="http://www.inkscape.org/namespaces/inkscape"
   xmlns:sodipodi="http://sodipodi.sourceforge.net/DTD/sodipodi-0.dtd"
   xmlns="http://www.w3.org/2000/svg"
   xmlns:svg="http://www.w3.org/2000/svg"><defs
   id="defs10" /><sodipodi:namedview
   id="namedview10"
   pagecolor="#ffffff"
   bordercolor="#000000"
   borderopacity="0.25"
   inkscape:showpageshadow="2"
   inkscape:pageopacity="0.0"
   inkscape:pagecheckerboard="0"
   inkscape:deskcolor="#d1d1d1"
   inkscape:zoom="0.78628207"
   inkscape:cx="338.30098"
   inkscape:cy="188.22762"
   inkscape:window-width="1648"
   inkscape:window-height="645"
   inkscape:window-x="0"
   inkscape:window-y="39"
   inkscape:window-maximized="0"
   inkscape:current-layer="g10" />
<style
   type="text/css"
   id="style1">
	.st0{fill-rule:evenodd;clip-rule:evenodd;}
</style>
<g
   id="g10">
	<g
   id="g9">
		<path
   class="st0"
   d="m 298.80371,9.5813976 c 29.63145,0 52.93387,2.8768404 78.25007,12.2265734 27.61767,10.068943 53.22156,23.590096 73.9348,49.193979 1.58227,1.869946 2.73301,3.164526 4.7468,5.897524 8.05515,11.075837 18.12409,28.912246 19.99405,52.933886 1.58225,19.27481 -2.58917,35.09744 -7.19212,46.31712 -4.74678,11.65121 -10.50047,20.56941 -16.68567,28.0492 -25.17235,30.7822 -58.39986,47.18019 -92.77812,55.66687 -15.96647,3.88373 -32.79599,6.76057 -52.50235,6.76057 -19.13099,0 -36.10434,-1.72609 -52.3585,-5.17831 -33.22751,-7.04826 -68.03729,-22.00783 -94.07269,-50.48855 -6.47289,-7.04827 -12.65811,-14.81573 -18.1241,-25.31621 -5.17831,-9.92508 -10.21278,-22.15167 -11.50737,-39.12503 -2.30146,-28.33688 6.90442,-49.05013 14.67189,-61.708231 8.34284,-13.664997 18.98716,-25.028518 29.19993,-33.227515 21.28863,-17.117203 47.03636,-28.480725 72.4964,-35.097458 16.97336,-4.459104 32.07677,-6.7605769 51.92698,-6.9044184 z m 0.71921,25.6038844 c -23.01473,0 -44.87873,8.918206 -64.00971,24.165462 -9.34974,7.335945 -17.69257,16.541836 -25.02853,29.775302 -6.47289,11.507364 -13.95267,30.062984 -12.22656,55.523034 1.58225,21.86399 9.63741,37.54278 16.54183,47.8994 7.76747,11.6512 16.97337,20.42557 26.3231,26.89846 20.28172,14.09652 43.00877,20.13789 66.45502,19.70637 22.29551,-0.43154 45.74177,-8.77437 64.15355,-24.30931 9.06206,-7.62363 17.83642,-16.97337 24.88468,-29.91916 6.61673,-11.93888 13.52114,-31.06987 11.79505,-54.94765 -1.58227,-21.43247 -9.2059,-36.967403 -16.54185,-47.899403 -8.05515,-12.082731 -16.68566,-19.994044 -26.32309,-26.898461 -14.81572,-10.644311 -31.64524,-16.973361 -47.8994,-18.699465 -5.03447,-0.575369 -11.79504,-1.582263 -17.98025,-1.006895 0,-0.287684 0,-0.287684 -0.14384,-0.287684 z"
   id="path1"
   style="fill:#ffffff;stroke-width:1.43842" />
		
		
		<path
   class="st0"
   d="m 70.238699,314.67037 c 9.781262,0 18.555633,-0.28768 26.610775,3.30838 2.733007,1.15073 5.753686,3.45219 6.616726,7.76746 0.86306,4.02759 0.57537,10.78815 0.57537,20.56942 0,18.26794 0,34.9536 0,54.08461 0,3.4522 0.14386,7.76746 -0.28768,10.35662 -1.29457,7.62363 -8.486666,9.49357 -12.082726,10.35663 -9.78126,2.15764 -21.576307,2.01378 -31.645252,0 -3.883735,-0.86306 -10.931995,-2.58917 -12.514256,-9.78127 -0.863053,-4.31526 -0.431527,-14.3842 -0.431527,-20.85709 0,-15.53494 0,-27.0423 0,-43.00877 0,-7.62362 -0.575369,-17.69256 0.863052,-22.29551 1.43842,-4.60295 6.041367,-7.1921 9.925101,-8.48669 4.315262,-1.43842 7.623628,-1.86994 12.370417,-2.01379 z m -0.863054,13.37732 c -0.431526,1.72611 -0.287683,6.61673 -0.287683,9.63741 0,18.1241 0,33.2275 0,51.06393 0,6.04136 -0.575368,16.54183 0.287683,19.85021 0.863054,3.45219 3.45221,3.45219 6.041367,3.45219 2.013789,0 5.178311,0.28769 6.041365,-3.30836 0.863043,-3.30837 0.287681,-12.94578 0.287681,-19.41867 0,-16.54183 0,-24.74083 0,-40.7073 0,-4.31527 0.575362,-16.68568 -0.143835,-20.13789 -0.719208,-4.31526 -6.041369,-4.02757 -7.911315,-3.73989 -1.006894,0.28767 -3.596051,0.43153 -4.315263,3.30837 z"
   id="path4"
   style="fill:#ffffff;stroke-width:1.43842" />
		<path
   class="st0"
   d="m 155.39319,315.96495 c 8.77437,0 18.55562,0 27.76151,0 6.32906,34.80977 12.80195,69.61954 19.13099,104.57317 -8.34284,0 -16.68567,0 -25.02851,0 -1.43843,-8.63053 -2.58917,-17.4049 -4.02758,-26.03541 -4.74679,-0.43153 -10.06894,-0.43153 -14.81573,0 -1.29458,8.34284 -2.30148,17.26104 -3.45221,26.03541 -5.75368,0 -11.36351,0 -17.1172,0 4.31525,-26.03541 8.77437,-52.07082 13.08962,-78.10623 1.29458,-8.77437 3.02068,-18.84331 4.45911,-26.46694 z m 4.02758,66.45503 c 3.88373,-0.43154 8.34284,-0.43154 12.22657,0 -2.15763,-13.80884 -4.31526,-27.61768 -6.61674,-40.99499 -1.86994,13.80884 -3.88374,27.04231 -5.60983,40.99499 z"
   id="path5"
   style="fill:#ffffff;stroke-width:1.43842" />
		<path
   class="st0"
   d="m 262.98704,357.96683 c 5.17831,-11.50737 10.64431,-24.45315 15.96646,-37.2551 0.71921,-1.58225 1.86996,-4.60294 2.44532,-4.89062 1.29458,-0.7192 3.59605,0 5.17832,0 5.03447,0 10.21277,0.14384 15.10341,-0.28769 0.14384,1.29457 -0.57537,1.86996 -0.86306,2.58916 -5.60983,13.3773 -11.6512,27.47384 -17.54873,40.7073 5.75368,20.42558 11.9389,41.28267 17.4049,61.5644 -8.34284,0 -16.82953,0 -25.17236,0 -4.45911,-14.67189 -8.199,-30.7822 -12.51426,-45.59794 0,15.24727 0,30.35068 0,45.59794 -7.91131,0 -15.82262,0 -23.73395,0 -0.14383,-33.80289 0.14386,-70.19492 -0.14383,-104.28549 7.62362,-0.57537 16.11031,-0.14384 23.59009,-0.28768 0.57537,-0.14384 0.28769,2.87685 0.28769,4.4591 0,11.93889 0,25.74773 0,37.68662 z"
   id="path6"
   style="fill:#ffffff;stroke-width:1.43842" />
		<path
   class="st0"
   d="m 337.92874,315.96495 c 7.91132,0 15.82263,0 23.5901,0 0,30.06299 0,61.27671 0,90.62049 7.91131,0.14383 15.96646,-0.28768 23.5901,0.28769 0,4.60295 0,9.20588 0,13.80882 -15.82264,0 -31.64526,0 -47.46788,0 0.28768,-32.07676 0,-70.05106 0.14385,-104.14163 -0.14385,-0.43153 0.14383,-1.15074 0.14383,-0.57537 z"
   id="path7"
   style="fill:#ffffff;stroke-width:1.43842" />
		<path
   class="st0"
   d="m 420.63792,315.96495 c 15.53493,0 31.06988,0 46.46097,0 0,4.4591 0,8.91821 0,13.37731 -7.62362,0 -15.10341,0 -22.72704,0 -0.28768,10.21279 0,21.43246 -0.14383,32.07677 5.75368,0.14385 11.93888,-0.28768 17.54873,0.2877 0,4.45909 -0.14385,8.77436 0.14383,12.22657 -5.89751,0 -11.65121,0 -17.54873,0 0,11.07584 0,22.15167 0,33.22751 7.33595,0.57536 15.10342,0.14384 22.58321,0.28768 0,4.4591 0,8.91821 0,13.37732 -15.53494,0 -31.06989,0 -46.46098,0 0,-34.66594 0,-69.47572 0,-104.14165 0,-0.71921 0.14384,-1.15074 0.14384,-0.71921 z"
   id="path8"
   style="fill:#ffffff;stroke-width:1.43842" />
		<path
   class="st0"
   d="m 559.58933,315.67727 c 0.14384,0 0.14384,0.14384 0.14384,0.28768 -6.47289,21.86399 -13.66499,44.01567 -20.42556,66.02349 0,12.51427 -0.14384,27.04231 0.14383,38.40584 -7.76746,0.57537 -15.96646,0.14384 -24.02162,0.28767 0,-9.20587 0,-18.8433 0,-28.7684 0,-3.16452 0.28769,-6.76057 0,-9.63742 -0.28767,-2.44531 -1.7261,-5.75368 -2.58915,-8.48669 -6.18521,-19.27481 -12.22657,-38.83734 -17.98026,-57.82449 8.34284,0 16.82953,0 25.17236,0 3.73989,12.51426 7.04826,25.74773 10.50047,38.83735 3.59606,-12.80194 7.04826,-26.0354 10.64431,-38.83735 6.1852,-0.14384 12.51426,0.28769 18.41178,-0.28768 z"
   id="path9"
   style="fill:#ffffff;stroke-width:1.43842" />
	</g>
</g>
</svg>
