<?xml version="1.0" encoding="UTF-8" standalone="no"?>
<svg
   version="1.1"
   id="logo"
   x="0px"
   y="0px"
   width="500"
   height="202.37349"
   viewBox="245 167.8 500 203.63833"
   enable-background="new 245 167.8 160 64.4"
   xml:space="preserve"
   sodipodi:docname="oxbow.svg"
   inkscape:version="1.4 (e7c3feb1, 2024-10-09)"
   xmlns:inkscape="http://www.inkscape.org/namespaces/inkscape"
   xmlns:sodipodi="http://sodipodi.sourceforge.net/DTD/sodipodi-0.dtd"
   xmlns="http://www.w3.org/2000/svg"
   xmlns:svg="http://www.w3.org/2000/svg"
   xmlns:rdf="http://www.w3.org/1999/02/22-rdf-syntax-ns#"
   xmlns:cc="http://creativecommons.org/ns#"
   xmlns:dc="http://purl.org/dc/elements/1.1/"><metadata
   id="metadata852"><rdf:RDF><cc:Work
       rdf:about=""><dc:format>image/svg+xml</dc:format><dc:type
         rdf:resource="http://purl.org/dc/dcmitype/StillImage" /></cc:Work></rdf:RDF></metadata><defs
   id="defs850" /><sodipodi:namedview
   pagecolor="#ffffff"
   bordercolor="#666666"
   borderopacity="1"
   objecttolerance="10"
   gridtolerance="10"
   guidetolerance="10"
   inkscape:pageopacity="0"
   inkscape:pageshadow="2"
   inkscape:window-width="1712"
   inkscape:window-height="1040"
   id="namedview848"
   showgrid="false"
   inkscape:zoom="0.90819027"
   inkscape:cx="256.55417"
   inkscape:cy="26.976726"
   inkscape:window-x="0"
   inkscape:window-y="39"
   inkscape:window-maximized="0"
   inkscape:current-layer="logo"
   inkscape:showpageshadow="2"
   inkscape:pagecheckerboard="0"
   inkscape:deskcolor="#d1d1d1" />
    <path
   fill="#00263a"
   d="m 624.33326,174.77536 10.69312,1.88702 c 12.26563,2.51603 24.53126,5.97556 36.16789,10.06411 l 10.69311,4.08854 c 15.72517,6.91907 31.13583,15.72517 44.65948,26.73279 4.40304,3.77404 6.91907,10.0641 5.03205,16.03967 -0.62901,1.88702 -2.20152,3.77404 -4.71755,3.77404 -3.14503,-0.31451 -4.71755,-2.83053 -6.91907,-4.08855 -17.61219,-12.26563 -37.1114,-20.75722 -57.86862,-27.04729 l -9.4351,-2.83053 -10.69312,-2.83053 -5.34655,-1.25801 -13.83815,-2.83053 c -5.97557,-0.94351 -12.26563,-1.88702 -18.5557,-2.83053 l -13.20914,-1.57252 -8.49159,-0.629 -14.15265,-0.94351 -12.58014,-0.31451 h -18.24119 c -22.95875,0.31451 -44.97398,2.20153 -67.30372,5.34656 l -14.15265,1.88702 c -2.83053,0.3145 -5.34656,0.94351 -8.17709,1.25801 l -11.32212,1.88702 -13.83815,2.51603 -10.06411,1.88702 -10.69311,2.20152 -12.26563,2.83053 c -17.61219,4.40305 -35.22438,8.8061 -52.83657,14.15266 l -12.89463,4.08854 -13.83815,4.71755 -9.1206,3.45954 -11.32212,4.40304 c -5.34656,2.20153 -12.26563,6.29007 -17.61219,1.88702 -1.88702,-1.88702 -2.51603,-5.66106 -1.57252,-8.17708 2.83053,-8.49159 12.26564,-10.06411 18.87021,-13.83815 l 11.00761,-4.71755 10.37861,-4.08855 13.20915,-5.03205 c 11.95112,-4.40305 23.58775,-8.49159 35.85338,-11.95113 l 11.95113,-3.45953 12.89463,-3.14504 11.00762,-2.51602 14.46716,-3.14504 16.03967,-3.14503 13.83815,-2.51603 c 12.73204,-2.37293 24.49789,-3.44441 37.4259,-5.03205 l 15.72516,-1.57252 12.89464,-1.25801 19.18471,-0.94351 11.00761,-0.31451 c 37.98937,-0.49285 61.72915,2.28732 88.06094,6.91908 z"
   id="path833"
   sodipodi:nodetypes="ccccccccccccccccccccccccccccccccccccccccccccccccccc"
   style="stroke-width:1;fill:#ffffff" /><g
   id="g865"><path
     fill="#00263a"
     d="m 746.04606,272.5859 c 2.51603,0 1.57252,1.57252 0.31451,1.88702 -1.25802,0.31451 -1.88702,0.31451 -3.14504,0.62901 -16.66867,4.40305 -19.4992,10.69311 -19.4992,10.69311 l -7.86259,10.69312 -17.61219,25.47477 c -1.88702,2.83053 -3.77404,5.66106 -5.66106,8.49159 l -22.95874,33.02285 c -1.25801,1.57252 -1.88702,3.14504 -3.45954,4.40305 -1.57252,0.62901 -0.62901,0 -1.88702,0.62901 -0.62901,0 -3.45954,1.57251 -3.77404,1.25801 l -0.3145,-0.62901 -0.31451,-3.45953 -0.629,-23.27325 -0.62901,-19.49921 -0.62901,-18.8702 c 0,-0.62901 0,-1.25801 -0.629,-1.57252 -0.62901,0.31451 -1.25802,0.94351 -1.57252,1.57252 l -3.77404,5.97556 -7.23358,11.95113 -13.83814,22.01524 -13.20915,21.38622 c -0.94351,1.25802 -1.25801,1.88702 -1.88702,2.51603 -0.3145,0.3145 -1.25801,0.62901 -1.57251,0.62901 -1.25802,0.629 -2.51603,0.629 -4.08855,1.25801 -0.3145,0 -0.629,-0.3145 -0.629,-0.62901 l -1.88702,-35.22437 -0.94351,-18.2412 -0.94351,-16.03967 -0.94351,-16.66868 c 0,-2.20152 -0.94351,-5.66106 -2.83053,-6.91907 -1.88702,-1.25801 -4.08855,-0.94351 -5.66106,-1.88702 -1.25802,-0.3145 -1.57252,-1.57252 1.25801,-1.57252 h 0.62901 29.24881 c 0.94351,0 2.20152,0 2.83053,0.94351 0,0.31451 0,0.31451 0,0.62901 -1.57252,1.88702 -4.40305,0.62901 -6.60457,1.88702 -2.83053,1.57252 -3.45954,5.66106 -3.45954,8.80609 l 0.62901,28.93431 0.629,29.87782 c 0,1.88702 0,4.08855 0.31451,6.29007 0,0.3145 0.3145,0 0.629,0 l 0.94351,-1.25801 5.66107,-9.74961 11.00761,-17.61219 8.17709,-12.89463 8.17709,-12.89464 c 0.629,-0.94351 1.25801,-2.20153 1.25801,-3.45954 0,-4.08854 0,-7.86258 -0.3145,-12.26563 0,-2.51603 -1.88702,-4.08854 -3.77404,-4.40305 -0.94351,-0.3145 -2.20153,-0.3145 -3.45954,-0.3145 -2.51603,0 -3.45954,-1.88702 0,-2.20152 h 29.56332 c 2.20152,0.3145 1.57251,1.88702 0,1.88702 -1.88702,0.629 -4.71755,-0.31451 -6.29007,1.88702 -1.57252,1.88702 -1.57252,5.34655 -1.88702,7.54808 l 0.3145,65.7312 c 0,0.3145 0,1.25801 0.62901,1.57252 1.25801,0 1.88702,-1.25802 2.20152,-1.88702 3.77404,-5.66106 7.86259,-11.32212 11.95113,-17.29769 l 12.58013,-18.5557 6.91908,-10.37861 12.26563,-18.24119 c 0.94351,-1.88702 0.62901,-5.03206 -0.3145,-6.91908 -1.88702,-2.51602 -4.71755,-3.14503 -7.54808,-3.14503 -0.62901,-0.3145 -1.57252,-0.3145 -1.57252,-1.25801 0,-0.31451 0.3145,-0.62901 0.94351,-0.94351 h 1.57252 z"
     id="path835"
     style="stroke-width:1;fill:#ffffff" /><path
     fill="#00263a"
     d="m 425.25264,272.5859 c 0.629,0 1.25801,0 1.57251,0.62901 0,0.3145 0,0.62901 -0.3145,0.94351 -0.94351,0.94351 -2.20152,0.62901 -3.45954,0.94351 -6.60457,1.88702 -13.20914,4.08854 -18.24119,8.80609 l -7.23358,7.54808 -11.32212,11.95113 c -2.83053,3.14504 -5.66106,6.29007 -8.80609,9.74961 0,0.3145 -0.31451,0.94351 0,1.57251 0.94351,1.88702 1.57251,3.77404 2.20152,5.34656 l 5.66106,15.41067 3.77404,9.7496 4.71755,11.95113 c 0.94351,1.88702 1.88702,3.45953 3.14504,5.34655 1.57251,3.14504 5.97556,1.57252 7.23357,3.77404 0.31451,0.31451 0.31451,0 0,0.31451 -0.94351,1.25801 -2.51602,1.25801 -3.77404,1.25801 h -33.33735 c -0.62901,0 -0.94351,-0.3145 -0.94351,-0.62901 0,-0.3145 0.3145,-0.629 0.629,-0.94351 2.51603,-1.57251 4.40305,-1.57251 6.91908,-2.51602 1.88702,-0.62901 3.77404,-1.25802 4.40304,-3.45954 0.62901,-1.88702 0,-3.77404 -0.3145,-5.66106 l -4.40305,-12.26563 -5.03205,-12.89464 -1.57252,-3.77404 c 0,-0.3145 -0.3145,-0.3145 -0.629,-0.62901 -1.25802,0.31451 -1.88702,1.57252 -2.83053,2.20153 l -6.60457,6.60457 -11.32213,11.00762 -8.49159,8.49159 c -1.57251,1.88702 -2.20152,4.40304 -1.88702,6.60457 1.57252,3.77404 5.34656,3.77404 8.8061,5.03205 0.629,0.3145 0.94351,0.94351 0.629,1.57252 0,0.3145 -0.629,0.94351 -1.25801,0.94351 h -32.39385 c -0.629,-0.31451 -0.629,-0.31451 -0.629,-0.94351 0.94351,-1.25802 2.83053,-1.25802 3.45953,-1.88702 4.40305,-1.88702 7.54809,-4.08855 11.63663,-7.23358 l 13.20914,-12.58013 9.7496,-9.4351 c 5.03206,-5.03206 9.74961,-9.74961 14.78166,-14.15266 0.94351,-1.25801 0.31451,-2.51602 0,-3.77404 l -2.51602,-6.91907 -4.40305,-11.32212 c -1.88702,-5.34656 -4.08855,-11.00762 -6.60457,-16.35418 -2.51603,-5.03205 -7.54808,-7.86258 -13.20914,-8.17708 -1.57252,0 -2.51603,-2.51603 0.94351,-2.51603 0.94351,0 33.65186,0 33.65186,0 1.25801,0 1.57251,0.3145 1.57251,1.25801 0,0.94351 -0.629,1.25802 -1.57251,1.25802 -1.57252,0.3145 -5.97557,-0.94351 -6.60457,2.83053 0,1.88702 0.3145,3.14503 0.94351,4.71755 l 4.08854,11.63662 c 1.88702,5.03206 3.45954,9.74961 5.34656,14.78166 0,0 0.3145,0 0.629,0 l 1.25802,-1.25801 8.80609,-9.1206 11.63663,-11.95113 c 2.20152,-1.88702 5.34655,-4.71755 3.77404,-8.49159 -1.88702,-2.83053 -5.66106,-2.83053 -8.8061,-3.45954 -0.62901,0 -1.57252,-0.3145 -1.57252,-1.25801 0,-0.3145 0.31451,-0.62901 0.94351,-0.94351 h 1.25802 24.21676 7.54808 v 0.3145 z"
     id="path837"
     style="stroke-width:1;fill:#ffffff" /><path
     fill="#00263a"
     d="m 310.14441,276.04544 c 7.86258,9.1206 10.37861,21.07173 10.69311,33.65186 -0.3145,19.1847 -7.86258,36.79689 -21.38623,49.37703 -8.17708,7.23357 -18.55569,13.20914 -30.82133,12.26563 -10.69311,-1.25802 -18.8702,-10.69312 -21.70073,-20.44272 -7.23357,-23.90226 2.51603,-48.43352 18.5557,-64.47319 8.49159,-8.49159 18.2412,-15.72517 31.13583,-16.03967 5.03206,-0.3145 10.37861,1.57252 13.52365,5.66106 z m -8.17709,-1.25801 c -5.66106,-2.83053 -12.26563,0 -16.66868,3.45953 -9.7496,8.17709 -16.03967,20.44272 -21.07172,32.39385 -5.03206,13.20914 -9.1206,26.73279 -7.86259,42.14345 0.94351,6.29007 3.14504,13.20914 9.74961,15.09616 9.7496,2.51603 17.61219,-5.03205 22.95874,-11.63662 8.49159,-11.32212 14.15265,-24.53127 17.61219,-38.05491 2.83053,-11.63662 5.66106,-26.41828 0.62901,-38.05491 -1.25802,-2.20152 -2.83053,-4.40304 -5.34656,-5.34655 z"
     id="path839"
     style="stroke-width:1;fill:#ffffff" /><path
     fill="#00263a"
     d="m 573.38372,276.04544 c 7.86258,9.1206 10.37861,21.07173 10.69311,33.65186 -0.3145,19.1847 -7.86258,36.79689 -21.38622,49.37703 -8.17709,7.23357 -18.5557,13.20914 -30.82133,12.26563 -10.69312,-1.25802 -18.8702,-10.69312 -21.70074,-20.44272 -7.23357,-23.90226 2.51603,-48.43352 18.5557,-64.47319 8.49159,-8.49159 18.2412,-15.72517 31.13584,-16.03967 5.03205,-0.3145 10.0641,1.57252 13.52364,5.66106 z m -8.17709,-1.25801 c -5.66106,-2.83053 -12.26563,0 -16.66868,3.45953 -9.7496,8.17709 -16.03967,20.44272 -21.07172,32.39385 -5.03205,13.20914 -9.1206,26.73279 -7.86258,42.14345 0.94351,6.29007 3.14503,13.20914 9.7496,15.09616 9.7496,2.51603 17.61219,-5.03205 22.95875,-11.63662 8.49159,-11.32212 14.15265,-24.53127 17.61218,-38.05491 2.83053,-11.63662 5.66106,-26.41828 0.62901,-38.05491 -1.25801,-2.20152 -2.83053,-4.40304 -5.34656,-5.34655 z"
     id="path841"
     style="stroke-width:1;fill:#ffffff" /><path
     fill="#00263a"
     d="m 480.91973,272.5859 c 7.86259,0.31451 16.03967,3.45954 19.18471,11.00762 3.45953,9.7496 -1.25802,19.49921 -7.54808,26.10378 -4.40305,4.08854 -9.4351,6.91907 -15.41067,8.49159 -1.88702,0.62901 -4.08854,0.3145 -5.97556,1.25801 -0.31451,0.31451 -0.94351,0.62901 -0.62901,1.25802 1.88702,1.57251 3.77404,1.88702 5.66106,2.83053 7.86259,3.45953 13.83815,11.32212 13.20914,21.07172 -0.629,10.06411 -8.17708,18.5557 -17.29768,22.01524 -3.77404,1.57251 -7.86259,1.88702 -12.26563,1.88702 h -37.4259 c -2.83053,0 -5.34656,0 -8.49159,-0.62901 -0.31451,-0.3145 -0.62901,-0.3145 -0.62901,-0.94351 0,-0.62901 0.62901,-0.94351 1.25801,-1.57252 2.51603,-1.57251 5.97557,-1.25801 7.23358,-4.08854 0.94351,-1.57252 1.57252,-2.20152 2.20152,-3.77404 l 16.98319,-53.15107 6.91907,-22.95874 c 0.3145,-1.25802 0.3145,-2.83053 -0.62901,-4.08855 -1.88702,-1.88702 -5.03205,-1.88702 -7.86258,-2.20152 -0.62901,0 -1.57252,0 -1.57252,-0.94351 0,-1.57252 1.57252,-1.25801 2.51603,-1.25801 z m 0,3.77404 c -5.34655,-1.88702 -10.69311,-0.629 -16.35417,-0.94351 l -5.97557,17.61219 -7.23357,21.70073 -0.62901,2.20153 c 0,0 0,0.629 0,0.629 h 13.83815 l 3.45953,-0.3145 c 9.43511,-1.25801 17.61219,-8.49159 20.44272,-17.29768 2.51603,-6.91908 1.88702,-16.35418 -3.77404,-21.38623 -1.25801,-1.57252 -2.20152,-1.88702 -3.77404,-2.20153 z m -31.76484,44.34498 c -0.3145,0 -0.3145,0.629 -0.629,0.629 l -13.83815,40.88544 c 0,0.3145 -0.3145,0.62901 0,0.94351 h 20.44272 c 5.66106,-0.62901 10.69311,-1.88702 14.46715,-6.60457 5.97557,-6.91907 7.86259,-17.61219 4.40305,-26.41828 -1.88702,-5.34656 -7.23358,-9.74961 -13.52365,-9.74961 h -11.32212 z"
     id="path843"
     style="stroke-width:1;fill:#ffffff" /></g>
      </svg>
