<?xml version="1.0" encoding="UTF-8" standalone="no"?>
<!-- Created with Inkscape (http://www.inkscape.org/) -->

<svg
   version="1.1"
   id="svg1"
   width="1989.3821"
   height="1400.2112"
   viewBox="0 0 1989.3821 1400.2112"
   xmlns="http://www.w3.org/2000/svg"
   xmlns:svg="http://www.w3.org/2000/svg">
  <defs
     id="defs1" />
  <g
     id="g1"
     transform="translate(-29.133968,-67.961875)">
    <path
       style="fill:#ffffff;stroke-width:1.22852"
       d="m 140.12191,1465.7419 c -27.76058,-5.8363 -48.938575,-16.7572 -68.318027,-35.2298 -13.539452,-12.9057 -20.946574,-22.9514 -28.797192,-39.0551 -18.337214,-37.6148 -18.355434,-78.6716 -0.05172,-116.7092 7.427578,-15.4355 12.964528,-23.2417 25.599828,-36.0912 42.338651,-43.0572 109.109321,-53.5999 164.934471,-26.0425 31.64375,15.6206 54.526,40.6048 66.58015,72.6965 6.77061,18.0255 8.19034,26.4531 8.15445,48.4062 -0.028,17.1153 -0.43729,21.1766 -3.16634,31.4178 -5.33413,20.0171 -12.6709,34.7195 -27.21865,54.5445 -0.76173,1.038 4.31146,8.2499 16.31334,23.1907 l 17.41882,21.684 h -36.11817 -36.11816 l -39.16399,-48.7652 c -21.54022,-26.8209 -40.14062,-50.0006 -41.33426,-51.5104 -2.16793,-2.742 -2.14715,-2.7639 19.57433,-20.7475 21.07545,-17.4486 21.8038,-17.9269 23.66929,-15.5401 1.05859,1.3545 9.9408,12.4435 19.73823,24.6424 19.87286,24.7439 18.59553,24.1312 23.46781,11.2558 13.22865,-34.9577 2.07539,-75.7857 -26.44451,-96.8035 -16.22451,-11.9568 -29.93601,-16.6169 -49.23528,-16.7334 -13.78182,-0.084 -22.16519,1.5944 -33.59543,6.7231 -38.998805,17.4984 -57.690189,60.7729 -44.512217,103.0548 3.560562,11.4242 10.542997,22.6747 19.805447,31.9113 13.32047,13.2837 30.20196,21.516 47.4677,23.1482 l 8.86483,0.8381 18.52197,23.8228 c 10.18708,13.1027 18.31271,24.0324 18.05694,24.2881 -0.25577,0.2557 -4.7409,1.2831 -9.96697,2.283 -13.55098,2.5927 -40.151,2.2589 -54.12669,-0.6794 z m 277.93963,0.6226 c -12.71369,-2.3911 -22.81901,-5.8866 -34.69323,-12.0006 -13.83788,-7.1253 -31.21168,-24.5078 -38.37805,-38.3972 -6.55535,-12.7051 -10.94815,-27.976 -12.55675,-43.6514 -0.74183,-7.2289 -1.27718,-45.606 -1.27718,-91.5551 v -79.109 h 29.4844 29.48442 v 79.657 c 0,74.7918 0.14545,80.2258 2.38135,88.9681 2.89085,11.3031 6.12228,17.8648 12.00418,24.3753 9.15465,10.1331 21.08444,14.5898 39.05497,14.5898 29.07706,0 45.67827,-13.292 51.61874,-41.3292 1.44612,-6.8252 1.78308,-23.1697 1.80042,-87.3288 l 0.0213,-78.9322 h 29.48442 29.4844 l -0.011,77.0894 c -0.007,42.3991 -0.55051,83.1887 -1.21051,90.6433 -1.59252,17.9875 -4.96735,30.6576 -11.93313,44.8007 -4.89325,9.935 -7.4945,13.418 -17.48897,23.4182 -10.31741,10.3231 -13.30452,12.5168 -24.64016,18.0956 -18.30281,9.0074 -29.29081,11.4788 -53.4405,12.0191 -13.74022,0.3075 -22.52559,-0.099 -29.18965,-1.353 z m 579.97749,0.065 c -34.53075,-5.6599 -63.49928,-24.1991 -79.11678,-50.6328 l -3.03933,-5.1442 17.53014,-12.1699 c 9.64158,-6.6933 19.11724,-13.1929 21.05702,-14.4434 l 3.52686,-2.2735 2.52651,3.617 c 4.26528,6.1062 14.8907,15.9947 21.09147,19.6284 26.05638,15.2701 64.90678,14.3721 76.60058,-1.7707 9.4016,-12.9784 4.2472,-27.5601 -12.9611,-36.6664 -3.8975,-2.0627 -14.2733,-6.3079 -23.0572,-9.434 -40.71733,-14.4906 -54.03447,-21.0361 -67.86491,-33.3558 -32.1123,-28.6048 -31.26113,-78.0867 1.79479,-104.3361 17.24897,-13.6974 39.00577,-20.6429 64.84162,-20.6998 24.6884,-0.054 45.3846,5.647 63.5529,17.5074 10.0315,6.5485 25.81,21.7512 25.258,24.3362 -0.1968,0.9216 -8.6401,7.9686 -18.763,15.6598 l -18.4052,13.9842 -5.1329,-4.7312 c -10.3447,-9.5356 -25.7801,-14.8696 -43.405,-14.9997 -13.2533,-0.098 -22.459,2.5146 -29.20281,8.2871 -5.91552,5.0634 -7.95187,10.559 -6.42352,17.3356 2.30845,10.2353 10.0662,15.3186 37.43563,24.5292 44.6484,15.0258 62.7648,24.3845 77.5788,40.0765 11.7982,12.4976 16.8126,26.6789 16.849,47.6519 0.027,15.5763 -1.6404,23.2308 -7.9472,36.4842 -9.2954,19.5342 -28.0811,33.3655 -53.9249,39.7033 -13.8565,3.398 -45.1305,4.3593 -60.39947,1.8567 z m -407.6656,-133.3272 v -131.4512 h 28.87016 28.87016 v 131.4512 131.4514 h -28.87016 -28.87016 z m 94.59582,0 v -131.4512 h 28.87016 28.87016 v 61.5281 c 0,34.2674 0.47236,61.3469 1.06613,61.1188 0.58639,-0.2253 24.20956,-27.913 52.49593,-61.5283 l 51.42978,-61.1186 h 35.93353 35.93353 l -51.57394,61.3668 c -28.36567,33.7518 -51.57394,61.9176 -51.57394,62.5907 0,0.6729 24.12723,31.5199 53.61608,68.5488 29.48882,37.0286 54.15758,68.016 54.81942,68.8607 0.9568,1.2209 -6.19945,1.5356 -34.92465,1.5356 h -36.12802 l -36.19778,-45.0628 c -19.90879,-24.7845 -37.0398,-46.1122 -38.06895,-47.3948 -1.76746,-2.2028 -2.83963,-1.1778 -19.34914,18.4997 l -17.47798,20.832 v 26.5629 26.563 h -28.87016 -28.87016 z m 460.69395,0 v -131.4512 h 28.8702 28.87 v 131.4512 131.4514 h -28.87 -28.8702 z m 94.5958,0 v -131.4512 h 28.8702 28.8701 v 105.0382 105.0382 h 48.5265 48.5264 v 26.413 26.4132 h -77.3966 -77.3966 z m 206.5272,128.7104 c -3.3515,-8.9056 -92.2752,-259.0095 -92.2752,-259.5302 0,-0.3473 13.7619,-0.6314 30.5816,-0.6314 27.9832,0 30.6535,0.1826 31.4294,2.1498 0.4663,1.1825 13.5316,39.1898 29.0338,84.4606 15.5023,45.2708 28.485,83.1398 28.8505,84.1534 0.5909,1.6379 0.774,1.6379 1.6484,0 0.5412,-1.0136 8.2834,-24.509 17.2053,-52.212 8.9219,-27.703 21.1935,-65.7103 27.2704,-84.4606 l 11.0489,-34.0912 h 30.6321 c 16.8476,0 30.6293,0.4145 30.6259,0.9213 0,0.5068 -20.13,59.5217 -44.726,131.1443 l -44.7202,130.2228 -27.7779,0.3302 -27.778,0.3302 z m 169.399,-128.7104 v -131.4512 h 80.4679 80.4679 v 26.413 26.4132 h -51.5978 -51.5976 v 30.7128 30.713 h 41.7696 41.7695 v 25.1846 25.1846 h -41.7695 -41.7696 V 1389 v 22.7276 h 51.5976 51.5978 v 26.413 26.4132 h -80.4679 -80.4679 z m 191.6487,-0.064 v -131.5149 l 61.1187,0.3999 c 60.1446,0.3936 61.2558,0.4454 69.7184,3.2559 34.9612,11.6111 57.2667,37.776 62.0622,72.8002 2.518,18.3904 -2.6247,43.006 -12.4727,59.7017 -5.7876,9.8116 -19.7715,23.4776 -29.0328,28.3729 -4.9242,2.6028 -7.3957,4.5932 -6.8564,5.5221 0.4635,0.7988 15.3994,21.7127 33.1909,46.4751 17.7914,24.7627 32.3482,45.3556 32.3482,45.7624 0,0.4067 -14.5602,0.7393 -32.3558,0.7393 h -32.3558 l -30.2986,-45.4518 -30.2986,-45.4524 v -23.7947 -23.7945 l 12.1883,-0.5869 c 10.0087,-0.482 13.408,-1.1838 19.0102,-3.9247 13.5403,-6.6246 19.9,-18.3874 18.909,-34.9738 -0.8621,-14.431 -7.1484,-24.0066 -19.3945,-29.5435 -4.9954,-2.2586 -8.0453,-2.5023 -31.6344,-2.5265 l -26.106,-0.027 v 105.0382 105.0382 h -28.8702 -28.8701 z M 116.78009,1117.3063 c -44.815653,-9.5571 -80.821315,-48.2149 -86.621021,-93.0013 -0.876314,-6.7669 -1.183468,-78.15886 -0.949522,-220.69343 l 0.345828,-210.69068 15.348368,-0.90374 c 41.590072,-2.44895 85.456367,-14.82303 127.159617,-35.87001 22.83961,-11.52682 37.74691,-21.21545 60.81159,-39.52307 45.1476,-35.83594 94.41272,-83.85589 176.32018,-171.86364 121.62864,-130.68733 181.49795,-183.85114 249.55135,-221.60105 36.38113,-20.18101 87.18538,-38.695668 129.93851,-47.35369 27.17393,-5.503044 41.83703,-7.016442 74.41924,-7.680924 36.88584,-0.752256 57.49303,0.984388 90.91028,7.66134 l 21.49904,4.295634 76.16805,76.17367 76.168,76.1737 -8.5996,-3.286 c -38.7334,-14.80037 -85.6346,-25.60581 -133.29405,-30.7093 -24.22974,-2.59456 -73.40846,-2.97023 -89.68174,-0.68506 -79.00528,11.0943 -151.84181,42.27599 -214.8187,91.965 -15.48713,12.2194 -47.57236,44.36498 -60.09614,60.20915 -63.14544,79.88706 -89.46302,177.9949 -78.21987,291.59144 8.91724,90.09646 45.2507,169.78463 104.3658,228.89973 66.82884,66.82885 157.8896,105.01329 271.36775,113.79243 10.15579,0.78571 186.31855,1.22561 490.79685,1.22561 h 474.9548 l 66.9457,66.95419 66.9457,66.9541 -946.5681,-0.1003 c -834.441,-0.088 -947.58697,-0.3175 -955.16791,-1.9341 z M 917.77325,903.03451 c -61.18914,-4.34625 -124.92343,-24.87176 -171.0086,-55.07302 -23.5586,-15.4388 -41.12523,-31.40394 -55.37408,-50.32584 -6.66881,-8.8559 -17.47796,-27.85951 -17.47796,-30.72805 0,-0.72383 57.33204,-59.79252 127.40454,-131.26374 70.0725,-71.47123 156.9293,-160.07707 193.01511,-196.90187 85.50054,-87.25154 91.98024,-93.60362 102.27884,-100.26574 19.6485,-12.7106 38.8367,-18.70897 63.1801,-19.75058 18.742,-0.80193 29.5195,0.60597 45.6932,5.969 23.4703,7.78267 3.5864,-11.04982 302.9674,286.948 150.133,149.43922 277.6559,276.43259 283.3843,282.2075 l 10.4151,10.49981 -435.4821,-0.1778 c -239.5152,-0.0978 -441.56333,-0.60975 -448.99585,-1.13767 z M 1186.2042,699.07609 c 2.365,-1.40764 4.8526,-3.25336 5.5284,-4.10155 0.6756,-0.84821 18.8701,-18.21433 40.4322,-38.59136 l 39.2036,-37.04917 h 52.2418 c 51.9468,0 52.2576,-0.0151 55.0849,-2.67118 3.4347,-3.22682 3.7233,-8.88321 0.6853,-13.44346 -1.1779,-1.76835 -44.4334,-44.83908 -96.1234,-95.7127 -106.2962,-104.6177 -99.4009,-98.8679 -118.5518,-98.85715 -8.617,0.004 -12.2853,0.57341 -16.6248,2.57686 -3.9707,1.83316 -31.9904,27.50112 -97.6671,89.47002 -114.48236,108.01907 -108.68397,102.22649 -108.68397,108.57487 0,3.90629 0.69297,5.51543 3.23698,7.51654 3.16766,2.49168 4.44087,2.5462 59.46079,2.5462 h 56.2239 l 40.4342,-34.24846 c 22.2388,-18.83665 42.1684,-35.14522 44.2878,-36.24125 3.9188,-2.02642 10.7604,-2.61216 14.363,-1.22967 5.4382,2.08682 5.5831,4.01483 5.5904,74.42254 0,42.11493 0.4747,68.39314 1.2762,71.27878 0.6981,2.51388 2.4766,5.41626 3.952,6.44972 3.7569,2.6315 10.5748,2.33109 15.6496,-0.68958 z"
       id="path1" />
  </g>
</svg>
