<?xml version="1.0" encoding="utf-8"?>
<!-- Generator: Adobe Illustrator 26.0.3, SVG Export Plug-In . SVG Version: 6.00 Build 0)  -->
<svg version="1.0" id="Layer_1" xmlns="http://www.w3.org/2000/svg" xmlns:xlink="http://www.w3.org/1999/xlink" x="0px" y="0px"
	 viewBox="0 0 842 572.8" style="enable-background:new 0 0 842 572.8;" xml:space="preserve">
<style type="text/css">
	.st0{fill:#B3282D;}
</style>
<path d="M348.8,305c-0.6,3.4-9.6,7.8-18.3,7.8h-5.2l5.3-13.2c7.8-1.2,15-1.4,17.7,2.1C348.9,302.7,349.1,303.9,348.8,305 M372,298.6
	c-2.7-5.1-15.1-8.1-24.8-8.1h-37.8l-18.8,48.4h24.2l9.3-23.4l18.6,23.4h26.3c-6.2-6.2-12-12.7-17.4-19.6c4.8-1.8,18.6-7.3,20.7-12.7
	C373.5,303.9,373.3,301,372,298.6 M714.5,305c-0.7,3.4-9.9,7.8-18.8,7.8h-5.4l5.7-14c6.7,0,15.2-0.7,17.9,2.9
	C714.7,302.6,714.9,303.8,714.5,305 M733.2,298.5c-2.8-5.1-10.3-8.2-20.2-8.2h-38.9l-19.3,48.4h24.9l9.5-23.1l20.9,23.1h23.7
	c0,0-12.2-10.8-21.3-19.6c4.9-1.8,19.1-7.4,21.3-12.7c0.6-1.4,0.8-2.9,0.7-4.4C734.2,300.8,733.8,299.7,733.2,298.5 M393.4,290.4
	l-20.2,48.4h25.6l19.9-48.4H393.4z M470.3,304.9c-0.8,3.6-9.1,7.9-18.5,7.9h-5.6c0.3-0.8,3.4-8.5,5.7-14.1c8-0.9,15.2-0.6,17.9,3
	C470.4,302.7,470.5,303.8,470.3,304.9 M488.7,298.5c-2.8-5.1-10.2-8.1-19.9-8.1h-38.2l-20.5,48.4H436l7-18h15.4
	c14,0,27.4-6.3,30.6-14.3c0.6-1.4,0.8-2.9,0.7-4.4c-0.1-1.2-0.5-2.4-1.1-3.5 M558.8,290.4c-23,0-51.5,11.1-56.5,23.5
	c-1.6,3.8-1.4,8.1,0.6,11.6c4.4,7.8,19.2,13.2,36,13.2c11.1,0,24.5-4.3,33-7.6l1.5-10.1c-4.3,3.3-20.1,9.4-31.5,9.4
	c-7.1,0-12.2-2-14.2-5.7c-1.7-3.1-0.9-6.7,0.1-9.1c3.2-8,14.6-17.6,29.6-17.6c11,0,17.4,3.3,18.5,3.9c1.2,0.7,2.4,1.4,3.5,2.2
	l4.2-9.2C583.5,295,576.9,290.4,558.8,290.4"/>
<g>
	<path d="M757.1,291.6L738.8,337c-0.1,0.3-0.2,0.6-0.1,0.9l0,0c0,0.6,0.5,1.7,1.4,1.7h52.7l3.3-8h-29.5l16.6-40L757.1,291.6z"/>
</g>
<path d="M599,290.5l-11.4,27.3c-0.9,2.2-1.3,4.6-1.1,7c0.1,1.6,0.6,3.2,1.4,4.6c3.1,5.7,14.5,9.5,26.7,9.5c18.8,0,35.9-8.9,40-19.2
	l11.5-29.2h-11.2l-10.8,27.4c-2.2,5.5-12.8,10.2-23.2,10.2c-7.1,0-9.3-2.1-10-3.3s-0.1-4,0.3-5.1c0,0,11.6-29.1,11.3-29.1L599,290.5
	z"/>
<g>
	<path class="st0" d="M288.3,348.4c-24.8,0-54.7-6.2-78-16.2c-26.6-11.4-41.3-25.9-41.3-40.9c0-16.5,27.2-15.6,39.1-13.2
		c23.6,4.7,44.1,24.3,49.8,30.2l3.8,3.8l-0.3-2.3c-2.2-18.6-10.4-35.9-23.4-49.4c-16.8-17.4-41.9-29.5-74.3-35.8
		c-44.8-8.7-84.7-3.6-107.4,1.1c-2,0.4-8.1,2-9.5,2.5c-1,0.4-0.9,0.7,0,0.6l3.5-0.4c14.8-2,58.2-5.2,98,5.2
		c29.1,7.6,44.7,15.8,61.4,27.8c-11.7-3.1-23.8-4.7-35.9-4.8c-24,0-49.7,7.4-49.7,28.3c0,13.8,9.8,26.3,31.8,40.2
		c29.1,18.5,64,25,88.2,27.2c29.6,2.7,54.5-1.1,64.3-3.5c1.6-0.4,1.1-0.9-0.4-0.7C305.2,348.1,296.2,348.4,288.3,348.4L288.3,348.4z
		"/>
</g>
</svg>
