<?xml version="1.0" encoding="UTF-8" standalone="no"?>
<!-- Generator: Adobe Illustrator 24.0.0, SVG Export Plug-In . SVG Version: 6.00 Build 0)  -->

<svg
   version="1.1"
   id="Layer_1"
   x="0px"
   y="0px"
   viewBox="0 0 512 512"
   style="enable-background:new 0 0 512 512;"
   xml:space="preserve"
   sodipodi:docname="Salomon.svg"
   inkscape:version="1.4 (e7c3feb1, 2024-10-09)"
   xmlns:inkscape="http://www.inkscape.org/namespaces/inkscape"
   xmlns:sodipodi="http://sodipodi.sourceforge.net/DTD/sodipodi-0.dtd"
   xmlns="http://www.w3.org/2000/svg"
   xmlns:svg="http://www.w3.org/2000/svg"><defs
   id="defs1" /><sodipodi:namedview
   id="namedview1"
   pagecolor="#ffffff"
   bordercolor="#000000"
   borderopacity="0.25"
   inkscape:showpageshadow="2"
   inkscape:pageopacity="0.0"
   inkscape:pagecheckerboard="0"
   inkscape:deskcolor="#d1d1d1"
   inkscape:zoom="0.05078125"
   inkscape:cx="256"
   inkscape:cy="246.15385"
   inkscape:window-width="1576"
   inkscape:window-height="858"
   inkscape:window-x="0"
   inkscape:window-y="39"
   inkscape:window-maximized="0"
   inkscape:current-layer="Layer_1" />
<style
   type="text/css"
   id="style1">
	.st0{fill:#1D1D1D;}
</style>
<g
   id="XMLID_2_">
	<path
   id="XMLID_6_"
   class="st0"
   d="M475.9,393v-25.6c0-4.5-0.3-8.6-0.9-12.4c-1.6-11.3-9.5-16.9-24.1-16.9H445   c-14.6,0-22.5,5.6-24.2,16.9c-0.6,3.8-0.9,7.9-0.9,12.4V393h12.6v-25.6c0-2.7,0.2-5.1,0.5-7.3c0.9-6.6,4.8-9.9,12-9.9h5.9   c7.2,0,11.1,3.2,11.9,9.9c0.3,2.2,0.5,4.6,0.5,7.3V393H475.9z M414.7,378.1c0.6-3.3,0.8-6.9,0.9-10.6v-0.9v-0.9   c-0.1-3.8-0.3-7.4-0.9-10.6c-1.6-11.3-9.6-16.9-24.2-16.9H384c-14.6,0-22.5,5.6-24.2,16.9c-0.6,3.2-0.9,6.8-0.9,10.6v0.9v0.9   c0,3.8,0.3,7.4,0.9,10.6c1.6,11.3,9.5,16.8,24.2,16.8h6.6C405.1,394.9,413.1,389.3,414.7,378.1 M403,366.6c0,2.3-0.2,4.4-0.5,6.4   c-0.8,6.6-4.8,9.8-12,9.8H384c-7.2,0-11.2-3.2-12-9.8c-0.3-2-0.5-4.1-0.5-6.4c0-2.3,0.2-4.5,0.5-6.4c0.8-6.6,4.8-9.9,12-9.9h6.6   c7.2,0,11.2,3.2,12,9.9C402.8,362.1,403,364.2,403,366.6 M341.2,393.1h12.6v-25.7c0-4.4-0.2-8.5-0.9-12.4   c-1.6-11.3-9.5-16.8-24.1-16.8h-3.5c-8.5,0-14.7,1.9-18.8,5.7c-4-3.8-10.3-5.7-18.7-5.7h-3.5c-14.6,0-22.5,5.6-24.1,16.8   c-0.7,3.8-0.9,8-0.9,12.4v25.7h12.6v-25.7c0-2.6,0.2-5,0.5-7.3c0.8-6.6,4.7-9.8,11.9-9.8h3.5c7.2,0,11.1,3.2,12,9.8   c0.3,2.3,0.5,4.7,0.5,7.3v25.7h12.6v-25.7c0-2.6,0.2-5,0.5-7.3c0.9-6.6,4.8-9.8,12-9.8h3.5c7.2,0,11.1,3.2,11.9,9.8   c0.4,2.3,0.6,4.7,0.6,7.3V393.1z M253.7,378.1c0.6-3.3,0.9-6.9,0.9-10.6v-0.9v-0.9c-0.1-3.8-0.3-7.4-0.9-10.6   c-1.6-11.3-9.5-16.9-24.1-16.9h-6.6c-14.6,0-22.5,5.6-24.1,16.9c-0.6,3.2-0.9,6.8-0.9,10.6v0.9v0.9c0.1,3.8,0.3,7.4,0.9,10.6   c1.6,11.3,9.5,16.8,24.1,16.8h6.6C244.1,394.9,252,389.3,253.7,378.1 M242,366.6c-0.1,2.3-0.2,4.4-0.5,6.4c-0.9,6.6-4.8,9.8-12,9.8   h-6.6c-7.2,0-11.1-3.2-12-9.8c-0.2-2-0.4-4.1-0.5-6.4c0.1-2.3,0.2-4.5,0.5-6.4c0.9-6.6,4.8-9.9,12-9.9h6.6c7.2,0,11.1,3.2,12,9.9   C241.8,362.1,241.9,364.2,242,366.6 M182.4,393.5c4.5,0,10.3-0.1,14.5-0.8l-1.8-10.9c-3.5,0.4-8.6,0.6-12.6,0.6   c-7.1,0-12-2.9-12-8.3v-35.6h-12.4v36.6C158.1,390.3,171.4,393.5,182.4,393.5L182.4,393.5z M152.9,375.8v-19.6   c0-16.2-14.2-18.5-27.4-18.5c-6.5,0-15.8,1.4-23.3,3.2v11.6c9.4-1.9,17.9-3.1,23.3-3.1c6,0,13.8,0.4,13.8,4.8c0,3.8-4.6,5-13.8,6.2   c-16.5,2.2-28.4,4.3-28.4,17.1c0,13.1,10.3,16.9,28.4,16.9C145.8,394.4,152.9,387.3,152.9,375.8 M140.6,373.3   c0,7.9-6.8,9.5-16.4,9.5c-11.2,0-13.4-2.1-13.4-5.3c0-3.4,3.6-4.1,12.7-5.5c7.4-1,15.3-2.8,17.1-4.7V373.3z M49.9,354.8   c0-3.4,2-5.6,14.1-5.6c8,0,16.3,0.2,26.5,3.4V341c-5.1-1.5-13.3-2.8-26.2-2.8c-21.9,0-28.2,6.6-28.2,16.7   c0,12.3,9.2,15.5,27.9,17.5c10.3,1.1,15.6,1.3,15.6,5.2c0,3.5-2.7,5.1-14.4,5.2c-8.3,0-18.2-0.9-27.4-4.2V391   c9.6,2.5,17.4,3.3,27.5,3.3c16.5,0,28.2-3.3,28.2-17c0-13-9.4-14.7-27.5-16.7C57.1,359.7,49.9,359.1,49.9,354.8"
   style="fill:#ffffff" />
	<path
   id="XMLID_3_"
   class="st0"
   d="M322.6,273.4c0,3.9-3.2,7.1-7.1,7.5c-39.9,3.9-79.2,3.9-119.1,0c-3.8-0.5-7.1-3.5-7.1-7.5V253   c0-2,1.6-3.6,3.6-3.6h17.8c2,0,4.3,0.9,6.8,2.1v0l17.8,8.7c2.5,1.4,4.9,2.1,6.7,2.1h30.3c3.8,0,6.3-3.1,6.3-6.9   c0-2.4-1.3-4.8-3.1-5.8c0,0-71.3-36.6-78.3-41.9c-4.4-3-7.3-7.9-7.7-13.5v-37.4c0-3.9,3.2-7.1,7.1-7.5c39.9-3.9,79.2-3.9,119.1,0   c3.8,0.5,7.1,3.5,7.1,7.5v20.4c0,2-1.6,3.6-3.6,3.6h-17.8c-2,0-4.3-0.9-6.8-2.1v0l-17.8-8.7c-2.5-1.4-4.9-2.1-6.7-2.1h-30.3   c-3.8,0-6.3,3.1-6.3,6.9c0,2.4,1.3,4.8,3.2,5.8c0,0,71.3,36.6,78.3,41.9c4.4,3,7.3,7.9,7.7,13.5V273.4z M353.9,299.6v-169   c0,0,0-13.5-13.5-13.5h-169c0,0-13.5,0-13.5,13.5v169c0,0,0,13.5,13.5,13.5h169C340.4,313.1,353.9,313.1,353.9,299.6"
   style="fill:#ffffff" />
</g>
</svg>
