<?xml version="1.0" encoding="UTF-8" standalone="no"?>
<!-- Uploaded to: SVG Repo, www.svgrepo.com, Generator: SVG Repo Mixer Tools -->

<svg
   width="800"
   height="800"
   viewBox="0 0 20 20"
   version="1.1"
   id="svg1"
   xmlns="http://www.w3.org/2000/svg"
   xmlns:svg="http://www.w3.org/2000/svg">
  <title
     id="title1">instagram [#167]</title>
  <desc
     id="desc1">Created with Sketch.</desc>
  <defs
     id="defs1" />
  <g
     id="Page-1"
     stroke="none"
     stroke-width="1"
     fill="none"
     fill-rule="evenodd">
    <g
       id="Dribbble-Light-Preview"
       transform="translate(-340,-7439)"
       fill="#000000">
      <g
         id="icons"
         transform="translate(56,160)">
        <path
           d="m 289.86965,7279.1227 c -1.62788,0.074 -3.03885,0.4715 -4.17816,1.606 -1.1433,1.1405 -1.53634,2.5569 -1.60998,4.1678 -0.0458,1.0055 -0.31343,8.6017 0.4627,10.5938 0.52339,1.3439 1.55425,2.3772 2.91048,2.9023 0.63285,0.2461 1.35525,0.4129 2.41496,0.4615 8.86082,0.401 12.14544,0.1826 13.53053,-3.3638 0.24578,-0.6313 0.41493,-1.3529 0.4617,-2.41 0.40498,-8.8835 -0.0657,-10.8091 -1.60997,-12.3516 -1.22489,-1.2219 -2.66571,-2.0536 -12.38226,-1.606 m 0.0816,17.9448 c -0.97016,-0.044 -1.49653,-0.2055 -1.84778,-0.3415 -0.88359,-0.3434 -1.54729,-1.0045 -1.88858,-1.8829 -0.59106,-1.5137 -0.39503,-8.7029 -0.3423,-9.8662 0.0517,-1.1395 0.28259,-2.1807 1.08658,-2.9846 0.99504,-0.9926 2.28063,-1.479 11.03398,-1.0839 1.14231,0.052 2.1861,0.2819 2.99208,1.0839 0.99504,0.9925 1.48858,2.2878 1.08659,11.0076 -0.0438,0.9678 -0.20598,1.4928 -0.3423,1.8432 -0.90051,2.3077 -2.97218,2.6283 -11.77827,2.2244 m 8.13842,-13.3779 c 0,0.6571 0.53434,1.191 1.19405,1.191 0.65971,0 1.19504,-0.5339 1.19504,-1.191 0,-0.6571 -0.53533,-1.1911 -1.19504,-1.1911 -0.65971,0 -1.19405,0.534 -1.19405,1.1911 m -9.22699,5.2983 c 0,2.815 2.2876,5.0969 5.10952,5.0969 2.82193,0 5.10953,-2.2819 5.10953,-5.0969 0,-2.8149 -2.2876,-5.0958 -5.10953,-5.0958 -2.82192,0 -5.10952,2.2809 -5.10952,5.0958 m 1.79306,0 c 0,-1.8263 1.4846,-3.3082 3.31646,-3.3082 1.83187,0 3.31647,1.4819 3.31647,3.3082 0,1.8273 -1.4846,3.3093 -3.31647,3.3093 -1.83186,0 -3.31646,-1.482 -3.31646,-3.3093"
           id="instagram-[#167]" />
      </g>
    </g>
  </g>
</svg>
