<?xml version="1.0" encoding="UTF-8" standalone="no"?>
<!-- Uploaded to: SVG Repo, www.svgrepo.com, Generator: SVG Repo Mixer Tools -->

<svg
   width="800"
   height="800"
   viewBox="0 0 24 24"
   version="1.1"
   id="svg1"
   xmlns="http://www.w3.org/2000/svg"
   xmlns:svg="http://www.w3.org/2000/svg">
  <defs
     id="defs1" />
  <title
     id="title1">Phone</title>
  <g
     id="Page-1"
     stroke="none"
     stroke-width="1"
     fill="none"
     fill-rule="evenodd">
    <g
       id="Phone">
      <rect
         id="Rectangle"
         fill-rule="nonzero"
         x="0"
         y="0"
         width="24"
         height="24" />
      <path
         d="m 18.6651,14.3466 c -0.7706,-0.0981 -1.527,-0.2861 -2.2539,-0.56 -0.5909,-0.2175 -1.2543,-0.0776 -1.707,0.36 v 0 c -0.5978,0.6056 -1.537,0.7452 -2.2248,0.2443 C 11.3931,13.5997 10.4369,12.6438 9.64561,11.5577 9.1446,10.8701 9.28421,9.93092 9.8898,9.33332 v 0 C 10.3194,8.88183 10.4586,8.22718 10.2499,7.64 9.95089,6.89845 9.7405,6.1242 9.62308,5.33334 9.46986,4.55683 8.78769,3.99781 7.99605,4.0000035 H 5.60885 C 5.15395,3.99945 4.71925,4.18778 4.40859,4.52001 4.10745,4.85378 3.96205,5.29958 4.0085,5.74667 c 0.258,2.48293 1.10373,4.86873 2.46721,6.95993 1.23656,1.9428 2.88459,3.5904 4.82769,4.8267 2.0945,1.3477 4.4727,2.192 6.9483,2.466735 h 0.1333 c 0.4057,0.0027 0.797,-0.150035 1.0936,-0.426735 0.333,-0.3045 0.5218,-0.7355 0.5201,-1.1867 V 16.000003 C 20.0309,15.1928 19.4609,14.4862 18.6651,14.3466 Z"
         id="Path"
         stroke="#0c0310"
         stroke-width="2"
         stroke-linecap="round" />
    </g>
  </g>
</svg>
