<?xml version="1.0" encoding="UTF-8" standalone="no"?>
<!-- Created with Inkscape (http://www.inkscape.org/) -->

<svg
   version="1.1"
   id="svg1"
   width="1998.4352"
   height="413.52374"
   viewBox="0 0 1998.4352 413.52374"
   xmlns="http://www.w3.org/2000/svg"
   xmlns:svg="http://www.w3.org/2000/svg">
  <defs
     id="defs1" />
  <g
     id="g1"
     transform="translate(-1.5667108,-1.2567667)">
    <path
       style="fill:#ffffff"
       d="m 239,414.41226 c -16.53445,-1.42849 -27.67859,-2.74933 -36.90359,-4.37392 C 105.92484,393.10177 29.76097,332.5298 7.6901026,255.42994 2.5357221,237.42422 1.5667108,229.91855 1.5667108,208 c 0,-21.31561 1.0017673,-29.55006 5.5353309,-45.5 C 17.546512,125.75437 39.003429,93.159389 70.5,66.192814 135.28553,10.725065 230.31594,-11.055929 324.20141,8.0443848 384.53874,20.319574 440.28518,53.745544 473.14359,97.35119 l 5.91616,7.85119 -67.77988,40.53431 C 374.00094,168.03056 336.975,190.20133 329,195.00507 c -7.975,4.80375 -14.62965,8.62562 -14.78811,8.49306 -0.15846,-0.13256 20.9056,-32.7473 46.80903,-72.47721 25.90343,-39.729905 46.95808,-72.349299 46.78811,-72.48754 -0.16997,-0.138242 -4.7389,-2.840994 -10.15319,-6.006116 C 377.13588,40.531565 357.1894,32.376111 337.5,27.931536 c -8.19639,-1.850206 -13.06614,-2.26381 -27,-2.293195 -26.12915,-0.0551 -46.87408,4.332705 -70.60172,14.933126 -39.28594,17.551162 -70.25516,47.655465 -89.42604,86.928533 -7.43406,15.22926 -11.53294,27.23435 -15.19358,44.5 -2.36142,11.13783 -2.65486,14.73395 -2.69277,33 -0.0363,17.50895 0.2927,22.17125 2.25509,31.9544 13.6436,68.01758 64.58617,122.39082 131.65902,140.52546 17.06242,4.6132 26.79391,5.82724 47,5.86342 25.14871,0.045 40.6926,-2.87638 62.76133,-11.79578 28.75158,-11.62035 60.44043,-35.75506 80.81184,-61.5475 2.82361,-3.575 5.50127,-6.89151 5.95035,-7.37002 0.44909,-0.47851 2.23165,3.7158 3.96126,9.3207 l 3.14474,10.19073 -2.78694,3.67929 c -1.53281,2.02362 -6.84945,7.89573 -11.81476,13.04915 -38.8316,40.30276 -96.81109,66.65825 -163.02782,74.10687 -9.71501,1.09283 -46.15066,2.07049 -53.5,1.43554 z m 1191,-0.46218 c -67.2847,-7.35852 -125.1383,-53.67096 -146.3885,-117.18561 -11.8316,-35.36335 -12.0451,-74.40415 -0.6011,-109.92883 4.1039,-12.73965 15.5526,-35.33419 23.7316,-46.83564 8.7005,-12.23465 28.1318,-31.64606 40.258,-40.216702 33.5181,-23.690164 75.783,-35.432602 114.9278,-31.930336 23.502,2.102716 41.4968,6.967418 62.0602,16.777296 49.5023,23.615282 84.8157,69.681462 95.7229,124.869742 1.3855,7.01082 1.7787,13.97295 1.7787,31.5 0,25.2074 -0.9436,32.08933 -7.1287,51.99139 -16.082,51.74805 -56.5872,93.9038 -107.4293,111.80696 -23.1808,8.16273 -53.2584,11.74073 -76.9316,9.15173 z m 62.2537,-20.42795 c 9.2708,-2.41472 14.8888,-5.56923 21.3584,-11.99263 9.1876,-9.12211 13.3572,-18.61827 13.3771,-30.46666 0.01,-5.52241 -4.4872,-21.79334 -31.6418,-114.5 -17.4089,-59.43456 -32.4821,-111.56176 -33.496,-115.83822 -4.2512,-17.93102 -14.2331,-29.174232 -30.8514,-34.749838 -5.2378,-1.757325 -8.1623,-2.102762 -15.0603,-1.778888 -7.3246,0.3439 -9.6854,0.936181 -16.3532,4.102704 -10.2062,4.846902 -19.7593,14.237052 -24.8122,24.388982 -6.478,13.01527 -9.2606,1.03505 30.7321,132.31242 22.7693,74.74127 32.4936,107.70846 32.4936,110.15991 0,3.88776 3.5108,14.10493 6.4426,18.74912 5.8304,9.23596 15.7838,16.46064 26.5574,19.27669 8.1511,2.13057 14.0095,2.2233 21.2537,0.33641 z M 597.5,406.59433 C 564.36072,401.72508 535.73953,388.38359 515.68183,368.45558 502.08726,354.9489 493.10016,339.78988 489.02971,323.5 486.48419,313.31285 486.3029,295.95971 488.63489,285.70675 498.43506,242.61869 541.938,208.9075 598,200.95783 c 12.8048,-1.81574 44.87106,-0.72894 57.1157,1.93578 20.64285,4.49237 42.39969,13.95031 57.75827,25.10818 4.60568,3.34598 8.5356,5.92197 8.73316,5.72442 0.31475,-0.31476 -26.09195,-89.46445 -30.206,-101.97621 L 689.83927,127 623.16963,126.9121 556.5,126.8242 566,122.28918 c 20.36527,-9.72179 78.3256,-32.800307 110.5,-43.998645 44.60777,-15.525785 79.62429,-10.784486 106.50632,14.421145 15.33731,14.38086 21.99549,25.76408 29.03027,49.6319 4.37062,14.82876 28.39949,95.64759 44.9415,151.15645 6.12886,20.56617 19.38133,65.18436 29.52313,99.39791 2.02129,6.81886 3.90855,13.00636 4.19391,13.75 0.43233,1.12663 -9.2414,1.35209 -58.01292,1.35209 h -58.53177 l -1.5341,-5.25 c -9.59693,-32.84253 -21.24533,-70.74689 -21.74167,-70.74827 -0.34393,-9.5e-4 -2.46863,3.8398 -4.72155,8.53501 -15.5099,32.3235 -52.15079,57.23804 -95.65312,65.04083 -12.11771,2.17349 -41.31532,2.73363 -53,1.01676 z m 95.88861,-35.68148 C 722.18673,362.45217 742,335.95476 742,305.90209 c 0,-50.20232 -52.40326,-82.94522 -97.5,-60.92051 -27.42451,13.39381 -42.84471,43.75302 -37.11017,73.06234 1.06949,5.46622 3.29319,11.80736 6.28916,17.93435 3.80055,7.77239 6.10342,10.947 12.79534,17.63891 6.76103,6.76103 9.7784,8.93788 17.59316,12.69239 5.18788,2.49246 11.90751,5.01302 14.93251,5.60124 3.025,0.58823 6.4,1.27676 7.5,1.53008 4.19593,0.96628 20.07703,-0.52684 26.88861,-2.52804 z M 931,267.5 V 127 l -34.25,-0.0183 -34.25,-0.0183 18.5,-10.52259 c 36.62138,-20.829844 72.71068,-37.784594 93.82631,-44.079601 20.80741,-6.203118 41.38109,-1.252343 56.07279,13.493152 9.3106,9.344726 14.3529,19.496559 17.5807,35.395639 0.3071,1.5125 0.9956,2.75 1.53,2.75 0.5344,0 13.2384,-6.82576 28.2309,-15.16836 47.1448,-26.233584 69.7905,-36.195596 88.3154,-38.850461 23.9438,-3.431485 50.2169,10.447253 60.7993,32.117121 7.0788,14.49558 6.6446,3.86997 6.6446,162.6118 V 408 h -59.9851 -59.9851 l -0.2649,-127.75 -0.2649,-127.75 -2.6011,-5.54563 c -3.5879,-7.64956 -7.7386,-12.05077 -15.1137,-16.02586 -5.8254,-3.13985 -6.9436,-3.38645 -15.2852,-3.37064 -7.0175,0.0133 -10.0139,0.4827 -13.6029,2.13101 -5.9038,2.71139 -11.499,7.63264 -15.0724,13.2569 L 1049,147.39156 V 277.69578 408 h -59 -59 z m 765,0.0138 V 127.02771 l -32.25,-0.26386 -32.25,-0.26385 13,-7.62522 c 49.536,-29.055627 84.7618,-45.214031 106.6431,-48.91826 5.4052,-0.915041 8.1901,-0.832801 14.9457,0.441362 23.8623,4.500637 41.1096,21.496317 46.6779,45.996828 0.9507,4.18291 2.1511,7.60529 2.6675,7.60529 0.5165,0 11.5426,-5.94236 24.5024,-13.20524 55.7524,-31.244394 79.0109,-40.88492 99.0634,-41.061274 17.0068,-0.149568 30.2456,5.34331 42.606,17.67761 6.2143,6.201079 8.9354,9.839288 11.6593,15.588904 7.04,14.85986 6.7347,7.41989 6.7347,164.10696 V 408 H 1939.5 1879 V 281.03751 c 0,-125.62164 -0.022,-127.02046 -2.0538,-132.45163 -2.7149,-7.2564 -9.6034,-14.77919 -16.7436,-18.28552 -4.9945,-2.45265 -6.8201,-2.79512 -14.7026,-2.75817 -7.7384,0.0363 -9.7159,0.41399 -14.1074,2.69461 -7.1997,3.73895 -11.0592,7.25357 -14.442,13.15157 l -2.9318,5.11163 -0.01,129.75 L 1814,408 h -59 -59 z"
       id="path1" />
  </g>
</svg>
