<?xml version="1.0" encoding="UTF-8" standalone="no"?>
<!-- Created with Inkscape (http://www.inkscape.org/) -->

<svg
   version="1.1"
   id="svg1"
   width="721.23706"
   height="208.92529"
   viewBox="0 0 721.23706 208.92529"
   xmlns="http://www.w3.org/2000/svg"
   xmlns:svg="http://www.w3.org/2000/svg">
  <defs
     id="defs1" />
  <g
     id="g1"
     transform="translate(-0.01563749,-0.33333335)">
    <path
       style="fill:#ffffff"
       d="m 135.17603,208.66952 c -3.34571,-1.00741 -6.21044,-3.2417 -7.86809,-6.13659 -1.60348,-2.80026 -1.64608,-3.24485 -1.84972,-19.30656 -0.13223,-10.42926 0.057,-17.42605 0.51754,-19.13635 1.57102,-5.83434 6.71836,-9.38307 13.64709,-9.40872 7.84423,-0.029 12.52938,4.11368 13.78685,12.19064 1.00456,6.45246 0.40852,7.2413 -5.28232,6.99095 l -4.46072,-0.19623 -0.33333,-3.73094 C 142.94623,165.60297 141.87997,164 139.38503,164 136.08381,164 136,164.43978 136,181.76219 c 0,15.94581 0.0198,16.17609 1.48167,17.2 1.82992,1.28173 2.57414,1.29797 4.22424,0.0921 0.9906,-0.72389 1.37226,-2.01373 1.62742,-5.5 L 143.66666,189 l 4.81341,-0.19548 c 4.67765,-0.18995 4.82548,-0.14731 5.24197,1.51209 0.53634,2.13694 -0.24516,8.69176 -1.35444,11.36047 -2.36112,5.68033 -10.52344,9.00024 -17.19157,6.99244 z m 190.34066,0.0548 c -2.96348,-0.75681 -5.09639,-2.26246 -7.30564,-5.15716 l -1.87773,-2.46031 -0.20995,-17.72007 c -0.21994,-18.56329 0.0532,-21.06975 2.65727,-24.38023 3.42475,-4.35386 12.89858,-5.82115 18.19964,-2.81873 4.30449,2.43799 7.00731,7.54534 7.01599,13.25769 0.007,4.28122 -0.31331,4.55453 -5.32961,4.55453 -5.07096,0 -5.31897,-0.2264 -5.35454,-4.88786 -0.0254,-3.323 -1.21508,-5.11584 -3.38562,-5.10194 -3.56743,0.0229 -3.57775,0.069 -3.79395,16.94468 -0.21411,16.71184 -0.007,18.05003 2.91355,18.78292 2.7943,0.70133 4.28537,-1.26753 4.29743,-5.67446 0.0144,-5.2425 0.29173,-5.49788 5.71614,-5.26291 l 4.60699,0.19957 -0.0211,5.33333 c -0.0264,6.69194 -1.84469,10.49776 -6.15,12.87271 -3.08477,1.70166 -8.54886,2.39419 -11.97889,1.51824 z m 200.8791,-0.048 c -2.7387,-0.87176 -6.19563,-4.44092 -7.42885,-7.67005 -0.88066,-2.306 -1.01607,-5.59275 -0.84158,-20.42781 l 0.20796,-17.67964 1.78934,-2.70197 c 2.63909,-3.98512 6.69619,-5.74738 12.4794,-5.4206 7.47911,0.42261 11.56752,4.32147 12.88804,12.29053 0.91764,5.53781 0.34995,6.26656 -4.88162,6.26656 -4.29388,0 -5.27516,-0.83234 -5.27516,-4.4745 0,-2.54558 -1.72481,-4.85883 -3.62284,-4.85883 -3.18308,0 -3.37716,1.04352 -3.37716,18.1578 0,15.01995 0.0755,16.00567 1.29408,16.89634 1.69563,1.23934 2.59442,1.19312 4.29343,-0.22081 1.09037,-0.90741 1.44011,-2.05019 1.57386,-5.14258 0.15263,-3.52901 0.0221,-4.00027 -1.16137,-4.19262 -4.556,-0.7405 -4.41386,-0.58189 -4.19931,-4.6857 L 530.33332,181 h 7.66666 7.66667 v 13.66666 13.66667 l -1.90276,0.21765 c -1.25757,0.14384 -2.42493,-0.2729 -3.44267,-1.22902 l -1.5399,-1.44666 -1.906,1.40917 c -2.17725,1.6097 -7.55231,2.32359 -10.47953,1.39184 z m 154.66666,0 c -2.7387,-0.87176 -6.19563,-4.44092 -7.42884,-7.67005 -0.88067,-2.306 -1.01608,-5.59275 -0.84158,-20.42781 l 0.20795,-17.67964 1.78935,-2.70197 c 2.65221,-4.00495 6.69072,-5.74769 12.55183,-5.41651 5.05547,0.28566 6.82416,1.21303 10.14952,5.32162 1.34659,1.66376 2.11508,3.63963 2.63433,6.7732 0.95308,5.75167 0.42251,6.45818 -4.84987,6.45818 -4.29388,0 -5.27516,-0.83234 -5.27516,-4.4745 0,-2.54558 -1.7248,-4.85883 -3.62284,-4.85883 -3.01731,0 -3.36155,1.36354 -3.60193,14.26742 -0.29733,15.96081 0.1584,20.24571 2.25486,21.20092 2.61226,1.19023 4.69227,-0.67027 5.2231,-4.67189 0.55663,-4.19609 0.0581,-5.46049 -2.15785,-5.47333 -2.98402,-0.0173 -3.52411,-0.78961 -3.30044,-4.71955 L 684.99998,181 h 7.66667 7.66666 v 13.66666 13.66667 l -1.90276,0.21765 c -1.25757,0.14384 -2.42492,-0.2729 -3.44267,-1.22902 l -1.5399,-1.44666 -1.906,1.40917 c -2.17724,1.6097 -7.55231,2.32359 -10.47953,1.39184 z M 62.740289,207.75537 c -0.541866,-0.65291 -0.706777,-8.16652 -0.58163,-26.5 l 0.174673,-25.58871 h 12.333333 12.333333 l 0.203383,3.55412 c 0.293541,5.12962 -0.168242,5.44588 -7.95168,5.44588 H 72.666665 V 170.33333 176 h 4.866666 c 2.896296,0 5.190563,0.32389 5.666667,0.8 0.881976,0.88197 1.076501,6.39955 0.270333,7.66782 -0.301297,0.474 -2.543051,0.88235 -5.489791,1 l -4.980542,0.19884 V 192.33333 199 l 7.427779,0.18782 c 7.031884,0.17781 7.448909,0.26665 7.82423,1.66667 0.608232,2.26882 0.488901,5.09444 -0.275465,6.52267 -0.642718,1.20093 -1.507188,1.2895 -12.585037,1.2895 -9.245319,0 -12.06338,-0.20299 -12.651216,-0.91129 z m 28.37111,-0.0388 c -0.212586,-0.55399 1.700381,-6.56907 4.251039,-13.36684 2.550657,-6.79777 4.637559,-12.96904 4.637559,-13.71393 0,-0.74488 -1.948818,-6.47323 -4.330707,-12.72965 -2.38189,-6.25642 -4.164184,-11.64475 -3.960656,-11.97406 0.575821,-0.9317 8.690656,-0.73035 9.454066,0.23457 0.36261,0.45834 1.47294,3.30521 2.4674,6.3264 0.99446,3.02119 2.0621,5.65004 2.37254,5.8419 0.31044,0.19186 1.05211,-1.38002 1.64817,-3.49306 0.59606,-2.11305 1.46746,-5.0419 1.93646,-6.50857 l 0.85272,-2.66667 4.78,-0.19587 c 4.22376,-0.17308 4.78058,-0.0567 4.78489,1 0.003,0.65773 -1.84417,6.36624 -4.10412,12.68558 l -4.109,11.48971 4.83103,13.03917 c 2.65707,7.17153 4.66334,13.47616 4.45838,14.01028 -0.40821,1.06378 -7.37856,1.39694 -8.90772,0.42577 -0.45461,-0.28872 -1.89025,-3.88413 -3.19033,-7.98979 -1.30007,-4.10567 -2.58046,-7.46485 -2.84531,-7.46485 -0.26484,0 -1.6792,3.525 -3.14301,7.83334 l -2.66147,7.83333 -4.417705,0.19525 c -3.453482,0.15263 -4.502068,-0.0246 -4.804226,-0.81201 z m 70.526261,0.11491 c -0.17627,-0.45935 -0.24185,-12.38435 -0.14574,-26.5 l 0.17474,-25.66482 12.08506,-0.18139 c 12.07341,-0.18121 12.08546,-0.17993 12.4909,1.33334 0.60002,2.23948 0.49099,5.37606 -0.22645,6.51472 -0.46854,0.74362 -2.38875,1.08546 -7.48979,1.33333 L 171.66666,165 v 5.33333 5.33333 l 4,0.1716 c 7.15579,0.30699 7.09165,0.26012 6.86461,5.01562 L 182.33333,185 l -5.16098,0.1946 c -6.07521,0.22908 -6.01253,0.13596 -5.70336,8.4743 l 0.19767,5.3311 7.66667,0.33333 7.66666,0.33333 0.20307,3.93816 c 0.13918,2.69931 -0.0705,4.11169 -0.66667,4.48979 -0.47835,0.3034 -6.20414,0.55623 -12.72398,0.56184 -8.89011,0.008 -11.9344,-0.19862 -12.17475,-0.82497 z m 31.47345,0.39074 c -0.24445,-0.24445 -0.44445,-12.25759 -0.44445,-26.69588 v -26.25142 l 4.83333,0.19587 4.83334,0.19587 0.33333,21.66667 0.33333,21.66667 6.66667,0.33333 6.66667,0.33333 0.20306,3.93816 c 0.13919,2.69931 -0.0705,4.11169 -0.66667,4.48979 -1.03158,0.65429 -22.11373,0.7725 -22.75861,0.12761 z m 27.68888,-0.35556 c -0.59356,-0.59356 -0.8,-7.2027 -0.8,-25.61214 0,-13.64668 0.1821,-25.28668 0.40466,-25.86667 0.587,-1.52968 9.27036,-1.52968 9.85735,0 0.22256,0.57999 0.40466,10.47999 0.40466,22 v 20.94548 h 6.59534 c 5.3991,0 6.66874,0.19127 7,1.05452 0.69674,1.81567 0.44162,6.64185 -0.39534,7.47881 -0.55597,0.55597 -4.07407,0.8 -11.53333,0.8 -7.45926,0 -10.97737,-0.24403 -11.53334,-0.8 z m 27.89013,-0.4895 c -0.74478,-1.39163 -0.98933,-47.85913 -0.26609,-50.55855 0.40545,-1.51327 0.41749,-1.51455 12.4909,-1.33334 l 12.08506,0.18139 0.20307,3.93816 c 0.13918,2.69931 -0.0705,4.11169 -0.66667,4.48979 -0.47835,0.3034 -3.79473,0.55623 -7.36973,0.56184 l -6.5,0.0102 V 170.33333 176 l 4.83333,0.0102 c 2.65834,0.006 5.22471,0.25845 5.70307,0.56184 0.59613,0.3781 0.80585,1.79049 0.66666,4.48979 L 269.66666,185 l -5.33333,0.33333 -5.33334,0.33333 V 192.33333 199 l 7.30882,0.19066 c 4.81823,0.12569 7.48408,0.46645 7.82313,1 0.81016,1.27491 0.61952,6.7912 -0.26528,7.676 -0.56218,0.56218 -4.32071,0.8 -12.64321,0.8 -11.02673,0 -11.89079,-0.0889 -12.53333,-1.2895 z m 31.64473,-0.17922 c -0.20509,-0.8422 -0.28934,-12.78128 -0.18721,-26.53128 l 0.18569,-25 4.51053,-0.19736 4.51053,-0.19737 1.20394,2.86403 c 0.66216,1.57522 2.68243,6.98897 4.48947,12.03055 1.80704,5.04159 3.51052,9.16659 3.78552,9.16667 0.275,8e-5 0.5,-5.41356 0.5,-12.03031 v -12.03046 l 4.5,0.19713 4.5,0.19712 0.17461,25.95575 c 0.13671,20.32196 -0.008,26.07166 -0.66666,26.48979 -1.36492,0.86645 -7.00339,0.63096 -7.96033,-0.33246 -0.48452,-0.4878 -2.79375,-6.4878 -5.13162,-13.33333 C 292.41145,187.60088 290.24279,182 289.93008,182 c -0.31271,0 -0.64991,5.925 -0.74933,13.16666 l -0.18076,13.16667 -4.14611,0.19794 c -3.84907,0.18377 -4.17284,0.0882 -4.51903,-1.33333 z m 71.75094,0.57211 c -0.55764,-0.67192 -0.72056,-7.94642 -0.59381,-26.51468 l 0.17468,-25.58871 h 12.33333 12.33333 l 0.20339,3.55412 c 0.29354,5.12962 -0.16825,5.44588 -7.95168,5.44588 h -6.58504 V 170.33333 176 h 4.86667 c 2.89629,0 5.19056,0.32389 5.66666,0.8 0.88198,0.88197 1.0765,6.39955 0.27034,7.66782 -0.3013,0.474 -2.54306,0.88235 -5.48979,1 l -4.98055,0.19884 V 192.33333 199 l 7.33334,0.33333 7.33333,0.33333 V 204 v 4.33333 l -12.07286,0.18134 c -9.65644,0.14505 -12.22667,-0.004 -12.84134,-0.74462 z m 48.7142,0.0966 c -0.59356,-0.59356 -0.8,-7.2027 -0.8,-25.61214 0,-13.64668 0.1821,-25.28668 0.40466,-25.86667 0.58699,-1.52968 9.27035,-1.52968 9.85735,0 0.22256,0.57999 0.40466,12.21999 0.40466,25.86667 0,18.40944 -0.20644,25.01858 -0.8,25.61214 -1.0387,1.03869 -8.02798,1.03869 -9.06667,0 z m 18.69511,0.0284 c -0.63047,-0.63046 -0.82845,-6.75788 -0.82845,-25.64058 0,-13.64668 0.1821,-25.28668 0.40466,-25.86667 0.31037,-0.80881 1.39376,-1.05452 4.64955,-1.05452 5.07142,0 4.4579,-0.8769 9.67445,13.82752 1.98257,5.58847 3.82276,10.16347 4.08929,10.16667 0.26654,0.003 0.56654,-5.31919 0.66667,-11.82752 l 0.18205,-11.83334 h 4.33333 4.33334 V 182 208.33333 l -2.94653,0.21053 c -5.71194,0.40812 -5.41958,0.78988 -10.38352,-13.55884 -2.48012,-7.16901 -4.69545,-12.84922 -4.92296,-12.62268 -0.22751,0.22653 -0.56366,6.16267 -0.74699,13.19143 l -0.33334,12.77956 -3.67155,0.19511 c -2.28043,0.12118 -3.98545,-0.11878 -4.5,-0.63334 z m 50.81528,-0.0478 c -0.1796,-0.46804 -0.24791,-12.40016 -0.1518,-26.51581 l 0.17474,-25.66482 4.83333,-0.19587 4.83334,-0.19587 v 21.68317 21.68317 l 1.5,0.3448 c 0.825,0.18964 3.9,0.42035 6.83333,0.5127 l 5.33333,0.1679 V 204 v 4.33333 l -11.51485,0.18247 c -8.85908,0.14039 -11.59018,-0.0138 -11.84142,-0.66851 z m 29.32727,-0.0158 c -0.17627,-0.45935 -0.24185,-12.38435 -0.14574,-26.5 l 0.17474,-25.66482 4.74839,-0.19416 c 4.46304,-0.18249 4.77298,-0.10236 5.15757,1.33334 0.72556,2.7086 0.48414,49.17575 -0.26275,50.57132 -0.57357,1.07173 -1.42149,1.2895 -5.02092,1.2895 -2.85475,0 -4.44003,-0.28465 -4.65129,-0.83518 z m 54.49567,0.0352 c -0.93768,-0.93767 -1.15712,-50.27148 -0.23012,-51.7329 0.38582,-0.60823 1.92163,-0.80679 5.15646,-0.66666 l 4.60699,0.19956 0.18403,10.16667 L 564.03471,176 h 3.96527 3.96528 l 0.18403,-10.16667 0.18403,-10.16667 4.84101,-0.19603 4.841,-0.19602 -0.17434,26.52936 -0.17434,26.52936 h -4.66667 -4.66666 L 571.99998,197 571.66665,185.66666 h -3.66667 -3.66666 l -0.16159,10 c -0.22106,13.68066 0.0434,13 -5.05111,13 -2.3679,0 -4.53491,-0.3476 -4.9873,-0.8 z m 40.85928,-0.003 C 594.81527,207.3888 594.59439,197.55 594.50175,186 l -0.16843,-21 -2.66667,-0.1777 c -5.67778,-0.37834 -5.66667,-0.36818 -5.66667,-5.18214 v -4.33444 l 13.5,0.18047 13.5,0.18047 0.20339,3.55412 c 0.11349,1.98331 -0.13148,3.9576 -0.55428,4.46704 -0.41672,0.50211 -2.30824,1.00276 -4.20338,1.11255 L 604.99998,165 l -0.33333,21.66666 -0.33333,21.66667 -4.50916,0.19733 c -3.22935,0.14133 -4.60066,-0.0479 -4.83156,-0.66666 z m 23.80738,0.003 c -0.93767,-0.93767 -1.15712,-50.27148 -0.23011,-51.7329 0.38581,-0.60823 1.92162,-0.80679 5.15646,-0.66666 l 4.60699,0.19956 0.17467,25.58871 c 0.12515,18.33348 -0.0398,25.84709 -0.58163,26.5 -0.95245,1.14763 -8.00405,1.23362 -9.12638,0.11129 z m 18.60696,-0.11129 c -0.54187,-0.65291 -0.70678,-8.16652 -0.58163,-26.5 l 0.17467,-25.58871 4.39508,-0.19473 c 3.00097,-0.13297 4.60789,0.0785 5.066,0.66666 0.36901,0.47378 2.40347,5.66141 4.52102,11.52807 2.11755,5.86667 4.03785,10.96667 4.26733,11.33334 0.22948,0.36666 0.56724,-4.73334 0.75057,-11.33334 l 0.33333,-12 h 4.33334 4.33333 V 182 208.33333 l -3.77348,0.19815 c -3.15091,0.16546 -3.92729,-0.0215 -4.70579,-1.13291 -0.51277,-0.73208 -2.8647,-6.92014 -5.22652,-13.75123 l -4.29421,-12.42017 -0.33333,12.88641 c -0.18333,7.08753 -0.57604,13.26141 -0.87268,13.71975 -0.74939,1.15787 -7.41278,1.09594 -8.38703,-0.078 z M 16.771309,204.45942 c -0.401392,-0.48365 -0.809988,-4.27951 -0.914963,-8.5 l -0.18968,-7.62609 -7.3088189,-0.19066 c -4.8182313,-0.1257 -7.48407623,-0.46646 -7.82312456,-1 -0.82301532,-1.29514 -0.61744616,-8.79328 0.26527744,-9.67601 0.52345682,-0.52345 3.28888882,-0.8 7.99999982,-0.8 H 16 v -7.27881 c 0,-4.00334 0.182096,-7.75334 0.404659,-8.33333 C 16.717881,160.23828 17.817552,160 21.271325,160 c 2.581562,0 4.799156,0.33714 5.262008,0.8 0.527827,0.52782 0.8,3.36296 0.8,8.33333 v 7.53333 h 7.251703 c 5.426908,0 7.448011,0.23654 8.031827,0.93999 0.476956,0.5747 0.702987,2.71209 0.58163,5.5 l -0.198494,4.56001 -7.666667,0.33334 -7.666666,0.33333 -0.18968,7.62609 c -0.104975,4.22049 -0.513571,8.01635 -0.914963,8.5 -0.456734,0.55033 -2.269327,0.87391 -4.895357,0.87391 -2.62603,0 -4.438623,-0.32358 -4.895357,-0.87391 z M 179.589,137.77403 c -8.62647,-2.21631 -14.16176,-8.00308 -16.68277,-17.4407 -1.45455,-5.44524 -1.08263,-11.90577 1.38473,-24.053789 4.06697,-20.02362 12.45615,-59.203694 12.79348,-59.74951 0.44715,-0.7235 26.74642,-0.676374 27.19456,0.04873 0.19673,0.318319 -2.49591,14.193319 -5.98365,30.833333 -7.21944,34.443996 -7.84214,39.830396 -4.96202,42.921546 3.24923,3.4873 6.98039,4.5305 12.83296,3.58797 9.89957,-1.59427 14.24222,-6.81254 17.50034,-21.02897 0.91083,-3.974286 3.93246,-18.024167 6.71473,-31.221956 2.78227,-13.19779 5.3714,-24.372789 5.75362,-24.833333 0.81149,-0.977781 24.25234,-1.205248 25.75956,-0.249967 1.01597,0.643931 1.93278,-4.224575 -10.56053,56.07928 -4.44385,21.449996 -8.37351,40.124996 -8.73257,41.499996 l -0.65284,2.5 h -13.39284 -13.39284 l 0.44103,-2.75808 0.44104,-2.75808 -1.85583,1.22482 c -6.0632,4.00161 -12.07727,5.57213 -22.85583,5.96856 -5.64804,0.20774 -9.43248,0.0241 -11.74433,-0.56985 z m 243.14463,-0.82162 c -2.71317,-0.92408 -6.55069,-2.75389 -8.52782,-4.06624 -1.97714,-1.31235 -3.67913,-2.27361 -3.78221,-2.13613 -0.10308,0.13748 -0.62781,1.44996 -1.16608,2.91662 l -0.97865,2.66667 -13.80611,0.18019 -13.8061,0.18019 v -1.50014 c 0,-1.20166 19.97174,-100.243317 25.37971,-125.8602369 0.80985,-3.8361839 1.77168,-6.6619055 2.43941,-7.1666665 0.78303,-0.5919236 4.39692,-0.8306962 12.47496,-0.8242302 13.00843,0.010412 14.38181,0.2243429 14.35028,2.2353178 -0.0123,0.7822351 -1.49112,9.2183908 -3.28635,18.7470128 -1.79522,9.528623 -3.12305,17.465749 -2.95074,17.63806 0.17231,0.17231 1.12616,-0.21653 2.11967,-0.86409 6.35597,-4.142749 15.24392,-6.432071 24.97155,-6.432071 14.15847,0 24.22656,5.709009 29.70952,16.846481 2.97244,6.037896 4.1,11.96656 4.11374,21.629879 0.0394,27.705685 -14.17,52.326404 -36.32176,62.934984 -7.23906,3.46683 -12.07244,4.59189 -19.64006,4.57161 -5.01643,-0.0135 -7.40202,-0.37198 -11.29296,-1.69721 z m 17.91958,-24.6761 c 7.67238,-4.17584 16.77685,-16.444343 19.69484,-26.539299 1.52848,-5.287853 1.13264,-14.83032 -0.79107,-19.070346 -2.82318,-6.222562 -7.77927,-9.294962 -15.03198,-9.318692 -9.36288,-0.03063 -16.54943,4.917428 -21.3362,14.690322 -3.46893,7.082355 -4.57081,11.802993 -4.9908,21.3815 -0.34924,7.964805 -0.27986,8.613265 1.28399,11.999995 1.84716,4.00031 4.52036,6.97117 7.518,8.35512 3.15373,1.45601 9.50558,0.75882 13.65322,-1.4986 z M 4.6666665,134.77157 C 4.6666665,130.93989 24.63856,33.938372 26.247734,29.954457 28.817794,23.591629 31.988552,18.79721 36.999999,13.696242 42.134771,8.4697462 47.429382,4.9655687 54.420398,2.1667523 l 4.5796,-1.83341897 h 43.333332 c 43.01938,0 43.36772,0.010816 48.08002,1.49287187 6.05476,1.9042702 12.18889,5.9992162 15.26601,10.1910978 6.11038,8.323993 6.85485,17.798696 2.80113,35.649363 -1.33226,5.866666 -5.75789,26.866666 -9.83473,46.666665 -4.07685,19.799999 -7.7148,37.424999 -8.08435,39.166669 l -0.6719,3.16666 h -15.61142 -15.61143 v -1.55258 c 0,-0.85393 2.38625,-13.37893 5.30277,-27.83334 13.9645,-69.208636 13.24582,-65.246738 12.70914,-70.062635 -0.27267,-2.446708 -1.0767,-5.446708 -1.78674,-6.666666 -1.09774,-1.886074 -1.71613,-2.249083 -4.13108,-2.425043 -5.7817,-0.421271 -10.62517,3.432468 -14.74165,11.729298 -4.15889,8.382281 -4.28107,8.892562 -17.753472,74.144306 -2.006181,9.71666 -3.948222,18.79166 -4.315646,20.16666 l -0.668043,2.5 H 76.974302 c -15.358943,0 -16.307637,-0.071 -16.307637,-1.22015 0,-0.67108 4.35,-22.08455 9.666666,-47.585488 5.634616,-27.025954 9.66056,-47.859083 9.652025,-49.946517 -0.01886,-4.613442 -1.970708,-9.021804 -4.40413,-9.946989 -3.416455,-1.298934 -9.28358,0.998879 -12.812255,5.017817 C 56.86305,39.711805 54.971393,46.32757 45.608874,92.999998 41.048553,115.73333 37.150754,134.85833 36.947098,135.5 c -0.339062,1.06829 -1.715553,1.16666 -16.325357,1.16666 H 4.6666665 Z m 244.5116035,1.06176 c -0.16375,-0.45833 3.36209,-18.38333 7.83519,-39.833332 4.4731,-21.45 10.63181,-51.074261 13.68603,-65.831693 3.05422,-14.757431 5.78484,-27.2074308 6.06806,-27.6666657 0.76369,-1.2383171 25.10898,-1.57421108 26.74567,-0.3690122 1.11153,0.818487 0.81358,2.6263935 -5.14202,31.2014339 -3.47705,16.682932 -9.49405,45.632604 -13.37111,64.332603 -3.87705,18.699996 -7.34971,35.124996 -7.71701,36.499996 l -0.66781,2.5 h -13.56965 c -10.25249,0 -13.64242,-0.20371 -13.86735,-0.83333 z m 63.15505,-0.10382 c -9.02498,-2.23034 -13,-7.53111 -13,-17.33583 0,-2.0254 2.55,-16.60256 5.66667,-32.393682 3.11667,-15.791123 5.66667,-29.151128 5.66667,-29.688899 0,-0.789848 -1.20351,-0.977767 -6.26201,-0.977767 -4.99413,0 -6.34092,-0.205641 -6.65175,-1.015655 -0.47237,-1.230989 2.69362,-16.249143 3.67471,-17.431284 0.44956,-0.541691 2.98115,-0.907051 7.1346,-1.02967 l 6.43778,-0.190057 3.35204,-16.46315 c 1.84362,-9.054733 3.5929,-16.7047326 3.88728,-16.9999998 0.29438,-0.2952673 6.13596,-0.6274951 12.98129,-0.7382842 9.43621,-0.1527214 12.73048,0.0085 13.62216,0.6666667 1.11143,0.8203567 1.01371,1.6747501 -1.77674,15.5347673 -1.62406,8.066667 -3.16083,15.491667 -3.41504,16.5 l -0.4622,1.833333 h 9.09319 c 7.33826,0 9.16496,0.186999 9.46501,0.968931 0.34873,0.908776 -2.7032,16.548187 -3.47203,17.792178 -0.19451,0.314723 -4.34921,0.572224 -9.23267,0.572224 -6.30457,0 -9.0716,0.241624 -9.54318,0.833333 -1.09015,1.36784 -10.91844,53.591895 -10.44255,55.487995 0.85147,3.39252 3.11597,4.34534 10.32733,4.34534 3.59558,0 6.69832,0.26034 6.89498,0.57854 0.34753,0.56232 -2.99385,16.58353 -3.94625,18.92146 -0.43108,1.05818 -1.69291,1.16139 -13.57061,1.10997 -7.95514,-0.0344 -14.40375,-0.38005 -16.42868,-0.88046 z m 34.33334,-1.10097 c 0,-1.12096 0.29915,-3.29596 0.66479,-4.83333 0.36563,-1.53737 4.74278,-22.89521 9.72698,-47.461879 4.98421,-24.566666 9.37179,-45.041665 9.75017,-45.499999 0.50833,-0.615724 4.15387,-0.833333 13.96061,-0.833333 10.00663,0 13.34969,0.205059 13.5858,0.833333 0.31293,0.832691 -19.34052,98.064518 -20.05566,99.221628 -0.20944,0.33888 -6.45589,0.6117 -14.00537,0.6117 h -13.62732 z m 135.33333,1.11917 c 0,-0.50542 5.82117,-28.93042 12.93595,-63.166665 7.11477,-34.236242 13.28623,-63.9736432 13.71436,-66.0831148 0.50656,-2.4959274 1.2121,-4.0675067 2.02022,-4.4999999 1.32919,-0.7113635 23.83652,-0.9398249 25.60827,-0.2599378 0.57999,0.2225626 1.05453,1.0438789 1.05453,1.8251473 0,0.7812685 -2.68705,14.3241712 -5.97123,30.0953402 -3.28418,15.771168 -9.11883,43.824851 -12.9659,62.341518 -3.84707,18.516662 -7.33488,35.241662 -7.75068,37.166662 l -0.75601,3.5 h -13.94476 c -11.40429,0 -13.94475,-0.16741 -13.94475,-0.91895 z m 35.64286,0.0856 c -0.35713,-0.94391 18.66542,-96.017142 19.67484,-98.333331 0.64672,-1.483954 0.79672,-1.5 14.02226,-1.5 11.10439,0 13.4318,0.164822 13.74199,0.973176 0.31172,0.812336 -17.1551,89.439005 -19.15519,97.193485 l -0.64482,2.5 h -13.6619 c -10.31691,0 -13.73909,-0.20403 -13.97718,-0.83333 z m 62.69047,-0.10382 c -9.73867,-2.40671 -13.65375,-8.42565 -12.78551,-19.65612 0.21572,-2.79036 2.80572,-17.203652 5.75553,-32.029524 2.94982,-14.825872 5.36331,-27.350872 5.36331,-27.833333 0,-0.663802 -1.54582,-0.877201 -6.35426,-0.877201 -5.16751,0 -6.4295,-0.196087 -6.75715,-1.049922 -0.37458,-0.976165 2.00242,-13.440555 3.19616,-16.759808 0.49478,-1.375765 0.99846,-1.489365 7.38978,-1.666666 l 6.8588,-0.19027 3.03117,-15 c 3.85589,-19.0811974 3.66801,-18.4306436 5.46154,-18.911235 1.96953,-0.5277522 23.41692,-0.5428417 24.7861,-0.017438 1.55056,0.5950063 1.35929,2.4861124 -1.88418,18.628613 -1.61629,8.044149 -2.79859,14.852451 -2.62732,15.129559 0.17126,0.277109 4.17597,0.503834 8.89936,0.503834 5.15821,0 8.75701,0.273508 9.01124,0.684851 0.36905,0.597147 -1.13706,8.459928 -3.09323,16.148482 l -0.63607,2.5 -8.80764,0.01021 c -4.8442,0.0056 -9.12606,0.230614 -9.51524,0.499999 -0.38919,0.269386 -3.05067,12.672836 -5.9144,27.563223 -6.44649,33.519446 -6.82274,31.419786 5.78867,32.303956 5.54745,0.38893 5.83334,0.48511 5.83334,1.96245 0,2.50639 -3.33105,17.18745 -4.1137,18.13049 -0.96298,1.16031 -24.13173,1.10084 -28.8863,-0.0742 z m 33.66617,-0.89121 c -2.6e-4,-1.01107 0.79281,-5.81532 1.7624,-10.67612 l 1.76288,-8.83781 16.38687,-15.495518 c 32.19862,-30.447214 43.09139,-40.835597 43.29894,-41.293984 0.11583,-0.255821 -9.3946,-0.555821 -21.13428,-0.666666 -14.69228,-0.138724 -21.57868,-0.435636 -22.09504,-0.952646 -0.87981,-0.880919 2.75175,-19.055619 4.1424,-20.731243 0.72526,-0.873883 5.78035,-0.968968 39.97157,-0.751857 21.52772,0.136698 39.37489,0.482131 39.66039,0.767627 0.56572,0.565724 -2.80037,18.68165 -3.82799,20.601767 -0.49659,0.927894 -32.90456,31.242689 -56.51502,52.86481 L 653.77275,113 l 3.28028,0.44159 c 1.80416,0.24288 12.62319,0.46788 24.04229,0.5 15.98016,0.045 20.83585,0.25085 21.08264,0.89395 0.17634,0.45954 -0.61656,5.48454 -1.76201,11.16666 l -2.08264,10.33113 -42.16666,0.17164 -42.16667,0.17164 z M 370.04416,24.708072 c -0.81243,-0.514101 -0.63066,-2.087855 1.21161,-10.489792 2.80772,-12.8050543 2.52089,-12.0176848 4.5648,-12.5306727 0.97504,-0.2447196 7.26429,-0.231896 13.97611,0.028497 10.41083,0.4039003 12.20331,0.6262466 12.20331,1.5137516 0,2.0281237 -4.19043,20.4498331 -4.83837,21.2701431 -0.78867,0.998482 -25.56792,1.188613 -27.11746,0.208073 z m 170.62249,-1.683534 c 0,-3.194411 3.95591,-20.5854672 4.80507,-21.1241854 1.19518,-0.7582285 25.30127,-0.6901531 26.511,0.074867 0.85246,0.5390929 0.73743,1.869536 -0.86787,10.0372294 -1.01784,5.178668 -2.12764,10.144413 -2.46624,11.034989 l -0.61562,1.619228 H 554.34982 540.66665 Z M 707.3807,22.16563 c -3.08894,-1.575092 -4.80105,-4.094736 -5.15706,-7.589473 -0.96486,-9.4712824 10.38629,-14.11570348 17.0544,-6.9779599 2.27446,2.4346449 2.65744,7.8943839 0.76515,10.9078959 -2.8207,4.492018 -8.06024,6.006279 -12.66249,3.659537 z m 5.87268,-2.102119 c 0.76069,-0.4818 0.70295,-0.880569 -0.33334,-2.302175 -1.50382,-2.06298 -2.25339,-2.218439 -2.25339,-0.467348 0,0.711694 -0.33203,1.499194 -0.73785,1.75 -0.51435,0.317888 -0.46387,0.629608 0.16667,1.029136 1.14791,0.727352 1.99843,0.724763 3.15791,-0.0096 z M 707.31211,13.5 c -0.0193,-4.1020365 -0.10776,-4.3855559 -1,-3.205914 -1.13961,1.506706 -1.27739,4.568983 -0.28867,6.416408 0.37956,0.709228 0.82956,1.289506 1,1.289506 0.17043,0 0.30033,-2.025 0.28867,-4.5 z m 10.56396,0.524277 c 0.11518,-1.579652 -0.10982,-3.191336 -0.5,-3.58152 -0.50145,-0.5014542 -0.70942,-0.205679 -0.70942,1.008946 0,0.945104 -0.4437,2.086605 -0.98599,2.53667 -0.74573,0.618901 -0.81596,1.136013 -0.2882,2.12214 1.09177,2.039993 2.25392,1.063785 2.48361,-2.086236 z m -4.54276,-2.690944 c 0,-0.366667 -0.6,-0.666667 -1.33333,-0.666667 -0.73333,0 -1.33333,0.3 -1.33333,0.666667 0,0.366667 0.6,0.666667 1.33333,0.666667 0.73333,0 1.33333,-0.3 1.33333,-0.666667 z"
       id="path1" />
  </g>
</svg>
