<?xml version="1.0" encoding="UTF-8" standalone="no"?>
<!-- Created with Inkscape (http://www.inkscape.org/) -->

<svg
   version="1.1"
   id="svg1"
   width="1821.692"
   height="283.87994"
   viewBox="0 0 1821.6919 283.87994"
   xmlns="http://www.w3.org/2000/svg"
   xmlns:svg="http://www.w3.org/2000/svg">
  <defs
     id="defs1" />
  <g
     id="g1"
     transform="translate(0.02515433,-9.216118)">
    <path
       style="fill:#ffffff"
       d="m 938.66671,292.87529 c -2.01667,-0.15675 -3.95167,-0.56782 -4.3,-0.91348 -0.34834,-0.34566 -1.60563,-0.62848 -2.79399,-0.62848 -1.18836,0 -2.34607,-0.3 -2.57268,-0.66666 C 928.77343,290.3 927.57343,290 926.33337,290 c -1.24005,0 -2.44005,-0.3 -2.66666,-0.66667 -0.22661,-0.36666 -1.12661,-0.66666 -2,-0.66666 -0.87339,0 -1.77339,-0.3 -2,-0.66667 -0.22661,-0.36667 -1.12661,-0.66667 -2,-0.66667 -0.87339,0 -1.77339,-0.3 -2,-0.66666 C 915.44009,286.3 914.74918,286 914.13133,286 c -1.46208,0 -18.47428,-8.47338 -19.50452,-9.71474 -0.43452,-0.52356 -1.1568,-0.95193 -1.60508,-0.95193 -0.44827,0 -1.35803,-0.6 -2.02169,-1.33333 -0.66366,-0.73333 -1.55403,-1.33333 -1.9786,-1.33333 -0.42457,0 -1.6342,-0.9 -2.68807,-2 -1.05386,-1.1 -2.23949,-2 -2.63473,-2 -0.92495,0 -17.03193,-16.12555 -17.03193,-17.05157 0,-0.38444 -0.9,-1.56123 -2,-2.6151 -1.1,-1.05387 -2,-2.27326 -2,-2.70976 0,-0.43651 -0.42837,-1.14916 -0.95193,-1.58367 -1.24137,-1.03025 -9.71474,-18.04245 -9.71474,-19.50453 0,-0.61784 -0.3,-1.30876 -0.66667,-1.53537 -0.36667,-0.22662 -0.66667,-1.12662 -0.66667,-2 0,-0.87339 -0.3,-1.77339 -0.66666,-2 -0.36667,-0.22662 -0.66667,-1.12662 -0.66667,-2 0,-0.87339 -0.3,-1.77339 -0.66667,-2 -0.36666,-0.22662 -0.66666,-1.42662 -0.66666,-2.66667 0,-1.24005 -0.3,-2.44005 -0.66667,-2.66667 -0.36667,-0.22661 -0.66667,-2.02661 -0.66667,-4 0,-1.97338 -0.3,-3.77338 -0.66666,-4 -0.41302,-0.25526 -0.66667,-6.21603 -0.66667,-15.66666 0,-9.45064 0.25365,-15.41141 0.66667,-15.66667 0.36666,-0.22661 0.66666,-2.32661 0.66666,-4.66667 0,-2.34005 0.3,-4.44005 0.66667,-4.66666 0.36667,-0.22662 0.66667,-1.42662 0.66667,-2.66667 0,-1.24005 0.3,-2.44005 0.66666,-2.66667 0.36667,-0.22661 0.66667,-1.42661 0.66667,-2.66666 0,-1.24006 0.3,-2.44006 0.66667,-2.66667 0.36666,-0.22661 0.66666,-0.98519 0.66666,-1.68573 0,-0.70054 0.6,-2.34196 1.33334,-3.6476 0.73333,-1.30564 1.33333,-2.75313 1.33333,-3.21664 0,-1.0591 5.5338,-12.13859 6.82091,-13.65648 0.52556,-0.61979 1.43647,-2.18138 2.02426,-3.47022 0.58779,-1.28883 1.83808,-3.06612 2.77843,-3.94954 0.94036,-0.88341 1.70974,-1.92489 1.70974,-2.31439 0,-0.94521 17.44248,-18.39273 18.38741,-18.39273 0.4066,0 1.28226,-0.6 1.94592,-1.333337 C 887.6637,98.6 888.5637,98 889.00004,98 c 0.43634,0 1.33634,-0.6 2,-1.333333 0.66366,-0.733334 1.57342,-1.333334 2.02169,-1.333334 0.44828,0 1.17425,-0.432811 1.61328,-0.961802 0.90399,-1.089252 12.61042,-7.038198 13.84987,-7.038198 0.44437,0 1.87619,-0.6 3.18183,-1.333333 1.30564,-0.733333 2.94706,-1.333333 3.6476,-1.333333 0.70054,0 1.45912,-0.3 1.68573,-0.666667 0.22661,-0.366667 1.12661,-0.666667 2,-0.666667 0.87339,0 1.77339,-0.3 2,-0.666666 C 921.22665,82.3 922.42665,82 923.66671,82 c 1.24005,0 2.44005,-0.3 2.66666,-0.666667 0.22662,-0.366666 1.42662,-0.666666 2.66667,-0.666666 1.24006,0 2.44006,-0.3 2.66667,-0.666667 0.22661,-0.366667 1.72661,-0.666667 3.33333,-0.666667 1.60672,0 3.10672,-0.3 3.33334,-0.666666 C 938.55999,78.3 941.25999,78 944.33338,78 c 3.07338,0 5.77338,-0.3 6,-0.666667 0.55446,-0.897135 24.1122,-0.897135 24.66666,0 C 975.22666,77.7 977.62666,78 980.33338,78 c 2.70672,0 5.10672,0.3 5.33333,0.666667 0.22661,0.366666 2.02661,0.666666 4,0.666666 1.97339,0 3.77339,0.3 4,0.666667 0.22661,0.366667 1.42661,0.666667 2.66667,0.666667 1.24005,0 2.44005,0.3 2.66666,0.666666 C 999.22666,81.7 1000.4267,82 1001.6667,82 c 1.2401,0 2.4401,0.3 2.6667,0.666667 0.2266,0.366666 1.1266,0.666666 2,0.666666 0.8734,0 1.7734,0.3 2,0.666667 0.2266,0.366667 0.9852,0.666667 1.6857,0.666667 0.7006,0 2.342,0.6 3.6476,1.333333 1.3057,0.733333 2.757,1.333333 3.2252,1.333333 1.064,0 9.4529,4.191216 10.9784,5.484999 0.6214,0.526974 2.2134,1.452893 3.5379,2.057598 1.3245,0.604705 2.7862,1.555001 3.2483,2.111767 0.4621,0.556767 1.1973,1.012303 1.6338,1.012303 0.4365,0 1.6559,0.9 2.7097,2 1.0539,1.1 2.2395,2 2.6348,2 0.9383,0 17.0319,16.13241 17.0319,17.07297 0,0.39621 0.6,1.26337 1.3333,1.92703 0.7334,0.66366 1.3334,1.56366 1.3334,2 0,0.43634 0.6,1.33634 1.3333,2 0.7333,0.66366 1.3333,1.57342 1.3333,2.0217 0,0.44827 0.4329,1.17424 0.9618,1.61327 1.2428,1.03135 7.0382,12.69458 7.0382,14.16414 0,0.61721 0.3,1.30761 0.6667,1.53422 0.3667,0.22662 0.6667,1.12662 0.6667,2 0,0.87339 0.3,1.77339 0.6666,2 0.3667,0.22662 0.6667,1.12662 0.6667,2 0,0.87339 0.3,1.77339 0.6667,2 0.3666,0.22662 0.6666,1.12662 0.6666,2 0,0.87339 0.3,1.77339 0.6667,2 0.3667,0.22662 0.6667,1.72662 0.6667,3.33334 0,1.60672 0.3,3.10672 0.6666,3.33333 0.3667,0.22661 0.6667,2.32661 0.6667,4.66667 0,2.34005 0.3,4.44005 0.6667,4.66666 0.4083,0.25233 0.6666,5.54937 0.6666,13.66667 0,8.1173 -0.2583,13.41434 -0.6666,13.66667 -0.3667,0.22661 -0.6667,2.02661 -0.6667,4 0,1.97338 -0.3,3.77338 -0.6667,4 -0.3666,0.22661 -0.6666,1.72661 -0.6666,3.33333 0,1.60672 -0.3,3.10672 -0.6667,3.33333 -0.3667,0.22662 -0.6667,1.12662 -0.6667,2 0,0.87339 -0.3,1.77339 -0.6666,2 -0.3667,0.22662 -0.6667,1.12662 -0.6667,2 0,0.87339 -0.3,1.77339 -0.6667,2 -0.3666,0.22662 -0.6666,0.96386 -0.6666,1.63832 0,0.67446 -0.9,2.93722 -2,5.02835 -1.1,2.09113 -2,4.33486 -2,4.98607 0,0.6512 -0.4649,1.5698 -1.033,2.04132 -0.5682,0.47152 -1.6033,2.1092 -2.3004,3.63928 -0.697,1.53008 -1.7321,3.16775 -2.3003,3.63927 -0.5681,0.47153 -1.033,1.22409 -1.033,1.67236 0,0.44828 -0.6,1.35804 -1.3333,2.0217 -0.7334,0.66366 -1.3334,1.54927 -1.3334,1.96803 0,0.41875 -1.2,1.93314 -2.6666,3.3653 -1.4667,1.43217 -2.6667,2.92556 -2.6667,3.31865 0,0.90981 -9.4677,10.34802 -10.3804,10.34802 -0.3753,0 -1.8541,1.2 -3.2863,2.66667 -1.4321,1.46666 -2.9465,2.66666 -3.3653,2.66666 -0.4187,0 -1.3043,0.6 -1.968,1.33334 C 1035.0031,273.4 1034.0933,274 1033.645,274 c -0.4483,0 -1.1931,0.45554 -1.6552,1.0123 -0.462,0.55677 -1.9238,1.50706 -3.2483,2.11177 -1.3244,0.60471 -2.9188,1.53274 -3.5431,2.06231 -1.5403,1.3068 -7.2187,4.14695 -8.2911,4.14695 -0.4767,0 -1.9349,0.6 -3.2406,1.33334 -1.3056,0.73333 -2.8056,1.33333 -3.3333,1.33333 -0.5277,0 -2.0277,0.6 -3.3334,1.33333 -1.3056,0.73334 -3.247,1.33334 -4.3142,1.33334 -1.0672,0 -2.1258,0.3 -2.3524,0.66666 C 1000.1068,289.7 999.20677,290 998.33338,290 c -0.87339,0 -1.77339,0.3 -2,0.66667 -0.22661,0.36666 -1.68432,0.66666 -3.23935,0.66666 -1.55502,0 -3.19881,0.37149 -3.65285,0.82554 -0.62105,0.62104 -6.55769,0.84732 -23.96667,0.91348 -12.72762,0.0484 -24.79113,-0.0403 -26.8078,-0.19706 z m 26.33333,-59.54196 c 0.22662,-0.36666 1.72662,-0.66666 3.33334,-0.66666 1.60672,0 3.10672,-0.3 3.33333,-0.66667 0.22661,-0.36667 1.09782,-0.66667 1.93602,-0.66667 0.8382,0 2.06699,-0.6 2.73065,-1.33333 0.66365,-0.73333 1.52485,-1.33333 1.91376,-1.33333 0.96829,0 7.08624,-6.09527 7.08624,-7.05998 0,-0.42722 0.44377,-1.14506 0.98616,-1.59521 1.28234,-1.06425 3.01384,-4.55418 3.01384,-6.07456 0,-0.65536 0.3,-1.37697 0.66666,-1.60359 0.36667,-0.22661 0.66667,-1.12661 0.66667,-2 0,-0.87338 0.3,-1.77338 0.66667,-2 0.36666,-0.22661 0.66666,-1.72661 0.66666,-3.33333 0,-1.60672 0.3,-3.10672 0.66667,-3.33333 0.41865,-0.25874 0.66667,-7.32714 0.66667,-19 0,-11.67286 -0.24802,-18.74126 -0.66667,-19 -0.36667,-0.22662 -0.66667,-1.42662 -0.66667,-2.66667 0,-1.24005 -0.3,-2.44005 -0.66666,-2.66667 -0.36667,-0.22661 -0.66667,-0.93651 -0.66667,-1.57756 0,-2.27651 -4.64879,-10.35849 -7.79641,-13.55416 -3.51971,-3.57344 -8.78949,-6.53494 -11.62847,-6.53494 -1.00637,0 -2.01517,-0.3 -2.24179,-0.66667 -0.22661,-0.36667 -3.07661,-0.66667 -6.33333,-0.66667 -3.25672,0 -6.10672,0.3 -6.33333,0.66667 -0.22662,0.36667 -0.93542,0.66667 -1.57512,0.66667 -1.49448,0 -7.73605,3.10169 -8.78504,4.36565 -0.44171,0.53222 -1.22579,0.96768 -1.7424,0.96768 -0.51661,0 -1.12385,0.525 -1.34943,1.16667 -0.22558,0.64166 -1.13794,1.95581 -2.02748,2.92033 -1.92983,2.0925 -6.1872,10.35106 -6.1872,12.0021 0,0.64105 -0.3,1.35095 -0.66667,1.57757 -0.36667,0.22661 -0.66667,1.12661 -0.66667,2 0,0.87338 -0.3,1.77338 -0.66666,2 -0.36667,0.22661 -0.66667,2.02661 -0.66667,4 0,1.97338 -0.3,3.77338 -0.66667,4 -0.40422,0.24982 -0.66666,5.10492 -0.66666,12.33333 0,7.22841 0.26244,12.08351 0.66666,12.33333 0.36667,0.22662 0.66667,2.02662 0.66667,4 0,1.97339 0.3,3.77339 0.66667,4 0.36666,0.22662 0.66666,1.42662 0.66666,2.66667 0,1.24005 0.3,2.44005 0.66667,2.66667 0.36667,0.22661 0.66667,0.93651 0.66667,1.57756 0,2.3703 4.71249,10.42691 8.11296,13.87015 1.92949,1.95376 3.84691,3.55229 4.26094,3.55229 0.41403,0 1.29577,0.6 1.95943,1.33333 0.66366,0.73333 1.89245,1.33333 2.73065,1.33333 0.8382,0 1.70941,0.3 1.93602,0.66667 0.22661,0.36667 1.72661,0.66667 3.33333,0.66667 1.60672,0 3.10672,0.3 3.33334,0.66666 0.22661,0.36667 1.27661,0.66667 2.33333,0.66667 1.05672,0 2.10672,-0.3 2.33333,-0.66667 z m 339.00006,59.54196 c -2.0167,-0.15675 -3.9517,-0.56782 -4.3,-0.91348 -0.3484,-0.34566 -1.6057,-0.62848 -2.794,-0.62848 -1.1884,0 -2.3461,-0.3 -2.5727,-0.66666 C 1294.1068,290.3 1292.9068,290 1291.6667,290 c -1.24,0 -2.44,-0.3 -2.6666,-0.66667 -0.2267,-0.36666 -1.1267,-0.66666 -2,-0.66666 -0.8734,0 -1.7734,-0.3 -2,-0.66667 -0.2267,-0.36667 -0.9852,-0.66667 -1.6858,-0.66667 -0.7005,0 -2.3419,-0.6 -3.6476,-1.33333 -1.3056,-0.73333 -2.7377,-1.33333 -3.1824,-1.33333 -1.239,0 -15.6204,-7.2925 -16.5207,-8.3773 -0.4364,-0.52582 -1.1602,-0.95604 -1.6085,-0.95604 -0.4483,0 -1.3581,-0.6 -2.0217,-1.33333 -0.6637,-0.73333 -1.554,-1.33333 -1.9786,-1.33333 -0.4246,0 -1.6342,-0.9 -2.6881,-2 -1.0538,-1.1 -2.2399,-2 -2.6356,-2 -0.9248,0 -15.6977,-14.793 -15.6977,-15.71904 0,-0.384 -0.9,-1.56043 -2,-2.6143 -1.1,-1.05386 -2,-2.26349 -2,-2.68807 0,-0.42457 -0.6,-1.31494 -1.3333,-1.97859 -0.7334,-0.66366 -1.3334,-1.57342 -1.3334,-2.0217 0,-0.44827 -0.4302,-1.17209 -0.956,-1.60849 -1.242,-1.03074 -8.3773,-15.36984 -8.3773,-16.83495 0,-0.61756 -0.3,-1.30825 -0.6667,-1.53486 -0.3666,-0.22662 -0.6666,-1.12662 -0.6666,-2 0,-0.87339 -0.3,-1.77339 -0.6667,-2 -0.3667,-0.22662 -0.6667,-1.42662 -0.6667,-2.66667 0,-1.24005 -0.3,-2.44005 -0.6666,-2.66667 -0.3667,-0.22661 -0.6667,-1.42661 -0.6667,-2.66666 0,-1.24006 -0.3,-2.44006 -0.6667,-2.66667 -0.3666,-0.22661 -0.6666,-2.02661 -0.6666,-4 0,-1.97339 -0.3,-3.77339 -0.6667,-4 -0.4116,-0.25437 -0.6667,-5.99381 -0.6667,-15 0,-9.00619 0.2551,-14.74563 0.6667,-15 0.3667,-0.22661 0.6667,-2.02661 0.6667,-4 0,-1.97339 0.3,-3.77339 0.6666,-4 0.3667,-0.22661 0.6667,-1.72661 0.6667,-3.33333 0,-1.60672 0.3,-3.10672 0.6667,-3.33334 0.3666,-0.22661 0.6666,-1.12661 0.6666,-2 0,-0.87338 0.3,-1.77338 0.6667,-2 0.3667,-0.22661 0.6667,-1.12661 0.6667,-2 0,-0.87338 0.3,-1.77338 0.6666,-2 0.3667,-0.22661 0.6667,-1.12661 0.6667,-2 0,-0.87338 0.3,-1.77338 0.6667,-2 0.3666,-0.22661 0.6666,-0.91701 0.6666,-1.53422 0,-1.46956 5.7955,-13.13279 7.0382,-14.16414 0.529,-0.43903 0.9618,-1.165 0.9618,-1.61327 0,-0.44828 0.6,-1.35804 1.3334,-2.0217 0.7333,-0.66366 1.3333,-1.56366 1.3333,-2 0,-0.43634 0.6,-1.33634 1.3333,-2 0.7334,-0.66366 1.3334,-1.53966 1.3334,-1.94666 0,-0.93949 16.1121,-17.05334 17.0515,-17.05334 0.3845,0 1.5613,-0.9 2.6151,-2 1.0539,-1.1 2.2733,-2 2.7098,-2 0.4365,0 1.1717,-0.455536 1.6338,-1.012303 0.462,-0.556766 1.9238,-1.507062 3.2483,-2.111767 1.3245,-0.604705 2.9165,-1.530624 3.5379,-2.057598 1.5255,-1.293783 9.9143,-5.484999 10.9784,-5.484999 0.4682,0 1.9195,-0.6 3.2252,-1.333333 1.3056,-0.733333 2.947,-1.333333 3.6476,-1.333333 0.7005,0 1.4591,-0.3 1.6857,-0.666667 0.2266,-0.366667 1.1266,-0.666667 2,-0.666667 0.8734,0 1.7734,-0.3 2,-0.666666 C 1286.56,82.3 1287.76,82 1289.0001,82 c 1.24,0 2.44,-0.3 2.6666,-0.666667 0.2266,-0.366666 1.4266,-0.666666 2.6667,-0.666666 1.24,0 2.44,-0.3 2.6667,-0.666667 0.2266,-0.366667 1.7266,-0.666667 3.3333,-0.666667 1.6067,0 3.1067,-0.3 3.3333,-0.666666 C 1303.8933,78.3 1306.5933,78 1309.6667,78 c 3.0734,0 5.7734,-0.3 6,-0.666667 0.5545,-0.897135 24.1122,-0.897135 24.6667,0 C 1340.56,77.7 1343.26,78 1346.3334,78 c 3.0734,0 5.7734,0.3 6,0.666667 0.2266,0.366666 1.7266,0.666666 3.3333,0.666666 1.6067,0 3.1067,0.3 3.3334,0.666667 0.2266,0.366667 1.4266,0.666667 2.6666,0.666667 1.2401,0 2.4401,0.3 2.6667,0.666666 C 1364.56,81.7 1365.76,82 1367.0001,82 c 1.24,0 2.44,0.3 2.6666,0.666667 0.2266,0.366666 1.1266,0.666666 2,0.666666 0.8734,0 1.7734,0.3 2,0.666667 0.2266,0.366667 0.9852,0.666667 1.6858,0.666667 0.7005,0 2.3419,0.6 3.6476,1.333333 1.3056,0.733333 2.7374,1.333333 3.1818,1.333333 1.2394,0 12.9459,5.948946 13.8499,7.038198 0.439,0.528991 1.165,0.961802 1.6132,0.961802 0.4483,0 1.3581,0.6 2.0217,1.333334 0.6637,0.733333 1.5637,1.333333 2,1.333333 0.4364,0 1.3364,0.6 2,1.333333 0.6637,0.733337 1.5394,1.333337 1.946,1.333337 0.9395,0 18.3874,17.44478 18.3874,18.38421 0,0.38481 0.9,1.56192 2,2.61579 1.1,1.05386 2,2.27326 2,2.70976 0,0.4365 0.4283,1.14916 0.9519,1.58367 1.2414,1.03024 9.7147,18.04245 9.7147,19.50453 0,0.61784 0.3,1.30876 0.6667,1.53537 0.3667,0.22661 0.6667,1.12661 0.6667,2 0,0.87339 0.3,1.77339 0.6666,2 0.3667,0.22661 0.6667,1.42661 0.6667,2.66667 0,1.24005 0.3,2.44005 0.6667,2.66666 0.3666,0.22662 0.6666,1.42662 0.6666,2.66667 0,1.24005 0.3,2.44005 0.6667,2.66667 0.3667,0.22661 0.6667,2.02661 0.6667,4 0,1.97338 0.3,3.77338 0.6666,4 0.4144,0.25607 0.6667,6.43825 0.6667,16.33333 0,9.89508 -0.2523,16.07726 -0.6667,16.33333 -0.3666,0.22662 -0.6666,1.72662 -0.6666,3.33334 0,1.60672 -0.3,3.10672 -0.6667,3.33333 -0.3667,0.22661 -0.6667,1.42661 -0.6667,2.66667 0,1.24005 -0.3,2.44005 -0.6666,2.66666 -0.3667,0.22662 -0.6667,1.42662 -0.6667,2.66667 0,1.24005 -0.3,2.44005 -0.6667,2.66667 -0.3666,0.22661 -0.6666,0.98519 -0.6666,1.68573 0,0.70054 -0.6,2.34196 -1.3334,3.6476 -0.7333,1.30564 -1.3333,2.75696 -1.3333,3.22517 0,1.06406 -4.1912,9.45293 -5.485,10.97843 -0.527,0.62135 -1.4529,2.21341 -2.0576,3.53789 -0.6047,1.32449 -1.555,2.78622 -2.1118,3.2483 -0.5567,0.46207 -1.0123,1.19252 -1.0123,1.62321 0,0.43069 -1.2,1.95484 -2.6666,3.387 -1.4667,1.43216 -2.6667,2.92397 -2.6667,3.31513 0,0.91706 -12.1349,13.0182 -13.0545,13.0182 -0.3828,0 -1.5583,0.9 -2.6122,2 -1.0538,1.1 -2.2635,2 -2.688,2 -0.4246,0 -1.315,0.6 -1.9786,1.33334 -0.6637,0.73333 -1.5637,1.33333 -2,1.33333 -0.4364,0 -1.3364,0.6 -2,1.33333 -0.6637,0.73334 -1.5735,1.33334 -2.0217,1.33334 -0.4483,0 -1.1743,0.43281 -1.6133,0.9618 -0.904,1.08925 -12.6104,7.0382 -13.8499,7.0382 -0.4443,0 -1.8762,0.6 -3.1818,1.33333 -1.3056,0.73333 -2.9471,1.33333 -3.6476,1.33333 -0.7005,0 -1.4591,0.3 -1.6857,0.66667 -0.2267,0.36667 -1.1267,0.66667 -2,0.66667 -0.8734,0 -1.7734,0.3 -2,0.66666 -0.2267,0.36667 -1.4267,0.66667 -2.6667,0.66667 -1.2401,0 -2.4401,0.3 -2.6667,0.66667 -0.2266,0.36666 -1.6843,0.66666 -3.2393,0.66666 -1.555,0 -3.1988,0.37149 -3.6529,0.82554 -0.621,0.62104 -6.5577,0.84732 -23.9666,0.91348 -12.7277,0.0484 -24.7912,-0.0403 -26.8078,-0.19706 z m 26.3333,-59.54196 c 0.2266,-0.36666 1.7266,-0.66666 3.3333,-0.66666 1.6067,0 3.1067,-0.3 3.3334,-0.66667 0.2266,-0.36667 0.9482,-0.66667 1.6035,-0.66667 4.699,0 16.0631,-12.31486 16.0631,-17.40697 0,-0.64955 0.3,-1.36641 0.6667,-1.59303 0.3667,-0.22661 0.6667,-1.12661 0.6667,-2 0,-0.87338 0.3,-1.77338 0.6666,-2 0.3667,-0.22661 0.6667,-1.42661 0.6667,-2.66666 0,-1.24006 0.3,-2.44006 0.6667,-2.66667 0.3666,-0.22661 0.6666,-2.92661 0.6666,-6 0,-3.07339 0.3,-5.77339 0.6667,-6 0.3839,-0.23728 0.6667,-3.77159 0.6667,-8.33333 0,-4.56175 -0.2828,-8.09606 -0.6667,-8.33334 -0.3667,-0.22661 -0.6667,-2.92661 -0.6667,-6 0,-3.07338 -0.3,-5.77338 -0.6666,-6 -0.3667,-0.22661 -0.6667,-1.42661 -0.6667,-2.66666 0,-1.24006 -0.3,-2.44006 -0.6667,-2.66667 -0.3666,-0.22661 -0.6666,-0.93541 -0.6666,-1.57512 0,-2.37327 -3.4059,-7.87449 -7.1968,-11.62448 -4.2349,-4.18919 -9.2748,-7.13373 -12.2102,-7.13373 -1.0162,0 -2.0331,-0.3 -2.2597,-0.66667 -0.2266,-0.36667 -3.0766,-0.66667 -6.3333,-0.66667 -3.2568,0 -6.1068,0.3 -6.3334,0.66667 -0.2266,0.36667 -0.9354,0.66667 -1.5751,0.66667 -2.3725,0 -7.874,3.40528 -11.6207,7.19297 -3.7379,3.77867 -8.4708,11.72918 -8.4708,14.22946 0,0.64105 -0.3,1.35095 -0.6667,1.57757 -0.3667,0.22661 -0.6667,1.42661 -0.6667,2.66666 0,1.24006 -0.3,2.44006 -0.6666,2.66667 -0.3667,0.22661 -0.6667,2.32661 -0.6667,4.66667 0,2.34005 -0.3,4.44005 -0.6667,4.66666 -0.3926,0.24267 -0.6666,4.21603 -0.6666,9.66667 0,5.45064 0.274,9.424 0.6666,9.66667 0.3667,0.22661 0.6667,2.32661 0.6667,4.66666 0,2.34006 0.3,4.44006 0.6667,4.66667 0.3666,0.22661 0.6666,1.42661 0.6666,2.66667 0,1.24005 0.3,2.44005 0.6667,2.66666 0.3667,0.22662 0.6667,1.12662 0.6667,2 0,0.87339 0.3,1.77339 0.6666,2 0.3667,0.22662 0.6667,0.94823 0.6667,1.60359 0,1.52038 1.7315,5.01031 3.0138,6.07456 0.5424,0.45015 0.9862,1.14641 0.9862,1.54725 0,0.97121 6.0766,7.10794 7.0383,7.10794 0.4153,0 1.298,0.6 1.9617,1.33333 0.6636,0.73333 1.8924,1.33333 2.7306,1.33333 0.8382,0 1.7094,0.3 1.9361,0.66667 0.2266,0.36667 1.7266,0.66667 3.3333,0.66667 1.6067,0 3.1067,0.3 3.3333,0.66666 0.2266,0.36667 1.2766,0.66667 2.3334,0.66667 1.0567,0 2.1067,-0.3 2.3333,-0.66667 z m 191,59.54404 c -2.0167,-0.15789 -3.9517,-0.5699 -4.3,-0.91556 -0.3483,-0.34566 -1.6056,-0.62848 -2.794,-0.62848 -1.1883,0 -2.3461,-0.3 -2.5727,-0.66666 -0.2266,-0.36667 -1.1266,-0.66667 -2,-0.66667 -0.8734,0 -1.7734,-0.3 -2,-0.66667 -0.2266,-0.36666 -0.917,-0.66666 -1.5342,-0.66666 -1.4695,0 -13.1328,-5.79549 -14.1641,-7.0382 -0.4391,-0.52899 -1.165,-0.9618 -1.6133,-0.9618 -0.4483,0 -1.358,-0.6 -2.0217,-1.33334 C 1487.6697,278.6 1486.7841,278 1486.3654,278 c -2.4169,0 -11.6987,-14.35876 -11.6987,-18.09763 0,-0.63636 -0.3,-1.34242 -0.6666,-1.56904 -0.3667,-0.22661 -0.6667,-1.12661 -0.6667,-2 0,-0.87338 -0.3,-1.77338 -0.6667,-2 -0.3666,-0.22661 -0.6666,-1.12661 -0.6666,-2 0,-0.87338 -0.3,-1.77338 -0.6667,-2 -0.3667,-0.22661 -0.6667,-1.72661 -0.6667,-3.33333 0,-1.60672 -0.3,-3.10672 -0.6666,-3.33333 -0.3667,-0.22662 -0.6667,-1.98432 -0.6667,-3.90601 0,-1.9217 -0.298,-3.79203 -0.6623,-4.1563 -0.4235,-0.42344 -0.724,-18.32343 -0.8333,-49.63333 L 1467.6667,137 l -12.5,-0.18138 -12.5,-0.18137 v -25.9712 -25.971197 l 13.1667,-0.18076 13.1667,-0.18076 0.1822,-12.315615 c 0.1016,-6.858635 0.4708,-12.604092 0.8334,-12.966666 0.3906,-0.390618 0.651,-7.664736 0.651,-18.184385 V 23.333333 h 40.66 40.6599 l 0.1734,30.5 0.1734,30.5 18.5,0.177213 18.5,0.177212 v 27.978912 27.97891 l -18.5,0.17721 -18.5,0.17721 -0.1722,37.96111 c -0.1128,24.8586 0.06,38.19312 0.5,38.63333 0.3697,0.36972 0.6722,1.2163 0.6722,1.88127 0,2.57886 5.3472,9.09531 8.9358,10.88969 2.3146,1.15739 23.3722,1.42101 24.0642,0.30127 1.3293,-2.15082 1.6667,0.47283 1.6667,12.96065 0,8.36576 0.2574,13.78641 0.6666,14.03935 0.3988,0.24642 0.6667,4.62562 0.6667,10.89545 v 10.48343 l -3.521,3.47722 c -1.9365,1.91248 -3.8498,3.47723 -4.2517,3.47723 -0.4019,0 -1.099,0.44378 -1.5491,0.98617 -1.0643,1.28234 -4.5542,3.01383 -6.0746,3.01383 -0.6554,0 -1.377,0.3 -1.6036,0.66667 -0.2266,0.36666 -1.0843,0.66666 -1.906,0.66666 -0.8217,0 -1.8594,0.3654 -2.306,0.812 -0.5996,0.59956 -6.3466,0.83909 -21.9667,0.91556 -11.635,0.057 -22.8046,-0.0256 -24.8213,-0.18352 z m 160.6667,2.4e-4 c -1.65,-0.16232 -3.285,-0.57618 -3.6334,-0.9197 -0.3483,-0.34352 -1.9056,-0.62458 -3.4606,-0.62458 -1.555,0 -3.0127,-0.3 -3.2394,-0.66666 C 1671.4401,290.3 1670.2401,290 1669.0001,290 c -1.2401,0 -2.4401,-0.3 -2.6667,-0.66667 -0.2266,-0.36666 -1.1266,-0.66666 -2,-0.66666 -0.8734,0 -1.7734,-0.3 -2,-0.66667 -0.2266,-0.36667 -0.9852,-0.66667 -1.6857,-0.66667 -0.7006,0 -2.342,-0.6 -3.6476,-1.33333 -1.3057,-0.73333 -2.7532,-1.33333 -3.2167,-1.33333 -1.0591,0 -12.1386,-5.5338 -13.6564,-6.82092 -0.6198,-0.52555 -2.1814,-1.43647 -3.4703,-2.02425 -1.2888,-0.58779 -3.0661,-1.83808 -3.9495,-2.77843 -0.8834,-0.94036 -1.9478,-1.70974 -2.3653,-1.70974 -0.4175,0 -1.6213,-0.9 -2.6752,-2 -1.0538,-1.1 -2.2409,-2 -2.6379,-2 -0.9243,0 -13.0287,-12.12833 -13.0287,-13.05446 0,-0.38285 -0.9,-1.55834 -2,-2.6122 -1.1,-1.05387 -2,-2.2635 -2,-2.68807 0,-0.42457 -0.6,-1.31494 -1.3334,-1.9786 -0.7333,-0.66366 -1.3333,-1.57342 -1.3333,-2.0217 0,-0.44827 -0.4284,-1.17055 -0.9519,-1.60507 -1.2414,-1.03024 -9.7148,-18.04244 -9.7148,-19.50452 0,-0.61785 -0.3,-1.30876 -0.6666,-1.53538 -0.3667,-0.22661 -0.6667,-1.12661 -0.6667,-2 0,-0.87338 -0.3,-1.77338 -0.6667,-2 -0.3666,-0.22661 -0.6666,-1.42661 -0.6666,-2.66666 0,-1.24006 -0.3,-2.44006 -0.6667,-2.66667 -0.3667,-0.22661 -0.6667,-1.42661 -0.6667,-2.66667 0,-1.24005 -0.3,-2.44005 -0.6666,-2.66666 -0.3667,-0.22662 -0.6667,-2.62662 -0.6667,-5.33334 0,-2.70672 -0.3,-5.10672 -0.6667,-5.33333 -0.3991,-0.2467 -0.6666,-4.66047 -0.6666,-11 0,-6.33953 0.2675,-10.7533 0.6666,-11 0.3667,-0.22661 0.6667,-2.32661 0.6667,-4.66667 0,-2.34005 0.3,-4.44005 0.6667,-4.66666 0.3666,-0.22662 0.6666,-1.72662 0.6666,-3.33334 0,-1.60672 0.3,-3.10672 0.6667,-3.33333 0.3667,-0.22661 0.6667,-1.42661 0.6667,-2.66667 0,-1.24005 0.3,-2.44005 0.6666,-2.66666 0.3667,-0.22662 0.6667,-1.12662 0.6667,-2 0,-0.87339 0.3,-1.77339 0.6667,-2 0.3666,-0.22662 0.6666,-1.12662 0.6666,-2 0,-0.87339 0.3,-1.77339 0.6667,-2 0.3667,-0.22662 0.6667,-0.9173 0.6667,-1.53487 0,-1.46511 7.1353,-15.80421 8.3773,-16.83495 0.5258,-0.43639 0.956,-1.16021 0.956,-1.60849 0,-0.44827 0.6,-1.35804 1.3333,-2.02169 0.7334,-0.66366 1.3334,-1.55403 1.3334,-1.9786 0,-0.42457 0.9,-1.6342 2,-2.68807 1.1,-1.05387 2,-2.24092 2,-2.63789 0,-0.92431 12.1283,-13.02878 13.0544,-13.02878 0.3829,0 1.5584,-0.9 2.6122,-2 1.0539,-1.1 2.2635,-1.999997 2.6881,-1.999997 0.4246,0 1.3149,-0.6 1.9786,-1.333333 0.6637,-0.733333 1.5734,-1.333333 2.0217,-1.333333 0.4483,0 1.2008,-0.464851 1.6724,-1.033002 0.4715,-0.56815 2.14,-1.61736 3.7078,-2.331578 1.5678,-0.714217 3.0247,-1.580369 3.2376,-1.924782 0.4927,-0.797181 4.3012,-2.710638 5.3952,-2.710638 0.4565,0 2.5408,-0.9 4.632,-2 2.0911,-1.1 4.3539,-2 5.0283,-2 0.6745,0 1.4117,-0.3 1.6383,-0.666667 0.2267,-0.366667 1.1267,-0.666667 2,-0.666667 0.8734,0 1.7734,-0.3 2,-0.666666 C 1663.8934,82.3 1665.0934,82 1666.3334,82 c 1.2401,0 2.4401,-0.3 2.6667,-0.666667 0.2266,-0.366666 1.4266,-0.666666 2.6666,-0.666666 1.2401,0 2.4401,-0.3 2.6667,-0.666667 0.2266,-0.366667 2.0266,-0.666667 4,-0.666667 1.9734,0 3.7734,-0.3 4,-0.666666 C 1682.56,78.3 1684.96,78 1687.6667,78 c 2.7068,0 5.1068,-0.3 5.3334,-0.666667 0.5544,-0.897135 24.1122,-0.897135 24.6666,0 0.2267,0.366667 2.9267,0.666667 6,0.666667 3.0734,0 5.7734,0.3 6,0.666667 0.2267,0.366666 1.7267,0.666666 3.3334,0.666666 1.6067,0 3.1067,0.3 3.3333,0.666667 0.2266,0.366667 1.4266,0.666667 2.6667,0.666667 1.24,0 2.44,0.3 2.6666,0.666666 C 1741.8934,81.7 1743.0934,82 1744.3334,82 c 1.2401,0 2.4401,0.3 2.6667,0.666667 0.2266,0.366666 1.1266,0.666666 2,0.666666 0.8734,0 1.7734,0.3 2,0.666667 0.2266,0.366667 1.1266,0.666667 2,0.666667 0.8734,0 1.7734,0.3 2,0.666666 C 1755.2267,85.7 1755.9303,86 1756.5637,86 c 1.2851,0 14.885,6.663948 16.6446,8.15587 0.6188,0.524661 2.1796,1.434845 3.4684,2.022631 1.2889,0.587786 3.0662,1.838081 3.9496,2.778434 0.8834,0.940352 1.943,1.709735 2.3547,1.709735 0.4117,0 1.9203,1.2 3.3524,2.66666 1.4322,1.46667 2.9283,2.66667 3.3248,2.66667 0.9083,0 7.6752,6.80544 7.6752,7.719 0,0.37239 1.2,1.84884 2.6667,3.281 1.4666,1.43216 2.6666,2.94075 2.6666,3.35242 0,0.41167 0.7694,1.47129 1.7098,2.3547 0.9403,0.88342 2.1906,2.66071 2.7784,3.94955 0.5878,1.28883 1.4999,2.85171 2.0268,3.47306 1.2938,1.5255 5.485,9.91438 5.485,10.97844 0,0.4682 0.6,1.91952 1.3334,3.22516 0.7333,1.30564 1.3333,2.94706 1.3333,3.6476 0,0.70054 0.3,1.45912 0.6667,1.68574 0.3666,0.22661 0.6666,1.42661 0.6666,2.66666 0,1.24006 0.3,2.44006 0.6667,2.66667 0.3667,0.22661 0.6667,1.38432 0.6667,2.57268 0,1.18836 0.375,2.53565 0.8333,2.99399 0.6357,0.63571 0.8333,6.50889 0.8333,24.76666 0,18.25778 -0.1976,24.13095 -0.8333,24.76667 -0.4583,0.45833 -0.8333,1.80563 -0.8333,2.99399 0,1.18836 -0.3,2.34606 -0.6667,2.57268 -0.3667,0.22661 -0.6667,1.28519 -0.6667,2.3524 0,1.0672 -0.6,3.00862 -1.3333,4.31426 -0.7333,1.30564 -1.3333,2.73775 -1.3333,3.18247 0,1.239 -7.2925,15.62039 -8.3773,16.52068 -0.5258,0.4364 -0.9561,1.16022 -0.9561,1.60849 0,0.44828 -0.6,1.35804 -1.3333,2.0217 -0.7333,0.66365 -1.3333,1.55402 -1.3333,1.97859 0,0.42458 -0.9,1.63421 -2,2.68807 -1.1,1.05387 -2,2.23989 -2,2.63561 0,0.92478 -14.793,15.69773 -15.7191,15.69773 -0.384,0 -1.5604,0.9 -2.6143,2 -1.0538,1.1 -2.2635,2 -2.688,2 -0.4246,0 -1.315,0.6 -1.9786,1.33333 -0.6637,0.73333 -1.5734,1.33333 -2.0217,1.33333 -0.4483,0 -1.1721,0.43022 -1.6085,0.95604 -0.9003,1.0848 -15.2817,8.3773 -16.5207,8.3773 -0.4447,0 -1.8768,0.6 -3.1825,1.33333 -1.3056,0.73333 -2.947,1.33333 -3.6476,1.33333 -0.7005,0 -1.4591,0.3 -1.6857,0.66667 -0.2266,0.36667 -1.1266,0.66667 -2,0.66667 -0.8734,0 -1.7734,0.3 -2,0.66666 -0.2266,0.36667 -1.4266,0.66667 -2.6667,0.66667 -1.24,0 -2.44,0.3 -2.6666,0.66667 -0.2266,0.36666 -1.3843,0.66666 -2.5727,0.66666 -1.1884,0 -2.534,0.37333 -2.9903,0.82963 -0.6272,0.62724 -6.6363,0.85159 -24.6333,0.91969 -13.0921,0.0496 -25.1537,-0.0427 -26.8037,-0.20504 z m 25.6666,-59.54428 c 0.2267,-0.36666 1.8355,-0.66666 3.5752,-0.66666 4.3289,0 8.886,-2.40654 13.6207,-7.19298 3.7379,-3.77867 8.4708,-11.72918 8.4708,-14.22946 0,-0.64105 0.3,-1.35095 0.6667,-1.57756 0.3666,-0.22662 0.6666,-1.42662 0.6666,-2.66667 0,-1.24005 0.3,-2.44005 0.6667,-2.66667 0.3667,-0.22661 0.6667,-2.32661 0.6667,-4.66666 0,-2.34006 0.3,-4.44006 0.6666,-4.66667 0.4043,-0.24983 0.6667,-5.10492 0.6667,-12.33333 0,-7.22842 -0.2624,-12.08351 -0.6667,-12.33334 -0.3666,-0.22661 -0.6666,-2.32661 -0.6666,-4.66666 0,-2.34006 -0.3,-4.44006 -0.6667,-4.66667 -0.3667,-0.22661 -0.6667,-1.12661 -0.6667,-2 0,-0.87339 -0.3,-1.77339 -0.6666,-2 -0.3667,-0.22661 -0.6667,-0.94347 -0.6667,-1.59303 0,-1.63703 -2.8931,-7.19434 -4.8497,-9.31568 -0.8918,-0.96688 -1.8061,-2.28296 -2.0316,-2.92462 C 1726.2265,142.525 1725.6192,142 1725.1026,142 c -0.5166,0 -1.3007,-0.43546 -1.7424,-0.96768 -1.2585,-1.51641 -7.4271,-4.36565 -9.4517,-4.36565 -1.0063,0 -2.0151,-0.3 -2.2418,-0.66667 -0.2266,-0.36667 -2.7766,-0.66667 -5.6666,-0.66667 -2.8901,0 -5.4401,0.3 -5.6667,0.66667 -0.2266,0.36667 -1.2435,0.66667 -2.2597,0.66667 -1.0162,0 -3.2983,0.73438 -5.0712,1.63197 -3.3428,1.69232 -10.3358,8.07269 -10.3358,9.43029 0,0.42596 -0.4437,1.14278 -0.9861,1.59292 -1.2824,1.06425 -3.0139,4.55418 -3.0139,6.07456 0,0.65536 -0.3,1.37698 -0.6666,1.60359 -0.3667,0.22661 -0.6667,1.12661 -0.6667,2 0,0.87339 -0.3,1.77339 -0.6667,2 -0.3666,0.22661 -0.6666,1.42661 -0.6666,2.66667 0,1.24005 -0.3,2.44005 -0.6667,2.66666 -0.3667,0.22662 -0.6667,2.92662 -0.6667,6 0,3.07339 -0.3,5.77339 -0.6666,6 -0.3667,0.22662 -0.6667,2.77662 -0.6667,5.66667 0,2.89005 0.3,5.44005 0.6667,5.66667 0.3666,0.22661 0.6666,2.92661 0.6666,6 0,3.07338 0.3,5.77338 0.6667,6 0.3667,0.22661 0.6667,1.72661 0.6667,3.33333 0,1.60672 0.3,3.10672 0.6666,3.33333 0.3667,0.22662 0.6667,0.91666 0.6667,1.53344 0,1.47663 4.4527,10.45902 5.6962,11.49111 0.5338,0.44296 0.9705,1.1598 0.9705,1.59297 0,2.73111 11.5664,9.71582 16.0891,9.71582 1.3744,0 2.6843,0.3 2.9109,0.66666 0.2266,0.36667 1.2766,0.66667 2.3333,0.66667 1.0567,0 2.1067,-0.3 2.3333,-0.66667 z m -1656.000031,52 c -0.226613,-0.36666 -2.326613,-0.66666 -4.666667,-0.66666 -2.340054,0 -4.440054,-0.3 -4.666667,-0.66667 -0.226612,-0.36667 -1.126612,-0.66667 -2,-0.66667 -0.873387,0 -1.773387,-0.3 -2,-0.66666 C 38.106723,282.3 37.41632,282 36.799107,282 c -1.797135,0 -13.10235,-5.86055 -14.80844,-7.6766 -0.85603,-0.9112 -1.88779,-1.65673 -2.292801,-1.65673 -0.933993,0 -9.031199,-8.13056 -9.031199,-9.0684 0,-0.38455 -0.7455288,-1.39957 -1.6567307,-2.2556 -1.8160498,-1.70609 -7.6766029,-13.01131 -7.6766029,-14.80844 0,-0.61721 -0.3,-1.30762 -0.6666667,-1.53423 -0.92242804,-0.57009 -0.92242804,-194.763241 0,-195.333333 0.3666667,-0.226613 0.6666667,-0.917015 0.6666667,-1.534229 0,-1.797134 5.8605531,-13.102349 7.6766029,-14.808439 0.9112019,-0.85603 1.6567307,-1.886632 1.6567307,-2.290227 0,-0.955428 9.472451,-10.367105 10.434048,-10.367105 0.404815,0 1.093076,-0.430218 1.529469,-0.95604 1.251279,-1.507699 15.525981,-8.377294 17.407631,-8.377294 0.932536,0 2.070487,-0.375 2.528781,-0.833333 C 43.227689,9.8388488 77.20956,9.6292851 207.03327,9.4857459 L 370.66668,9.304825 V 121.61307 c 0,74.15303 -0.22649,112.44822 -0.66666,112.72026 -0.36667,0.22662 -0.66667,1.72662 -0.66667,3.33334 0,1.60672 -0.3,3.10672 -0.66667,3.33333 -0.36666,0.22661 -0.66666,1.28519 -0.66666,2.3524 0,1.06721 -0.6,3.00863 -1.33334,4.31427 -0.73333,1.30564 -1.33333,2.76867 -1.33333,3.25118 0,1.25567 -1.85264,4.79659 -3.01383,5.7603 -0.5424,0.45014 -0.98617,1.18521 -0.98617,1.63349 0,0.44827 -0.6,1.35804 -1.33333,2.02169 -0.73334,0.66366 -1.33334,1.54178 -1.33334,1.95138 0,0.95181 -10.7898,11.71529 -11.74393,11.71529 -0.39385,0 -1.25908,0.6 -1.92273,1.33333 -0.66366,0.73334 -1.57343,1.33334 -2.0217,1.33334 -0.44827,0 -1.18335,0.44377 -1.63349,0.98616 -0.96371,1.1612 -4.50463,3.01384 -5.7603,3.01384 -0.48251,0 -1.94554,0.6 -3.25118,1.33333 -1.30564,0.73333 -3.24706,1.33333 -4.31427,1.33333 -1.06721,0 -2.12579,0.3 -2.3524,0.66667 -0.22661,0.36667 -2.02661,0.66667 -4,0.66667 -1.97339,0 -3.77339,0.3 -4,0.66666 C 317.39423,285.77416 272.33954,286 184.66667,286 96.993812,286 51.939116,285.77416 51.666669,285.33333 Z m 276.866681,-78.8 c 0.9681,-0.9681 1.06424,-4.958 0.13333,-5.53333 -0.38126,-0.23563 -0.66667,-3.66047 -0.66667,-8 0,-4.33953 -0.2854,-7.76437 -0.66666,-8 -0.36667,-0.22661 -0.66667,-2.02661 -0.66667,-4 0,-1.97339 -0.3,-3.77339 -0.66667,-4 -0.36666,-0.22661 -0.66666,-1.42661 -0.66666,-2.66667 0,-1.24005 -0.3,-2.44005 -0.66667,-2.66666 -0.36667,-0.22662 -0.66667,-1.42662 -0.66667,-2.66667 0,-1.24005 -0.3,-2.44005 -0.66666,-2.66667 -0.36667,-0.22661 -0.66667,-1.14838 -0.66667,-2.04839 0,-0.9 -0.34684,-2.30729 -0.77075,-3.12732 -1.61868,-3.1312 -1.89592,-3.83664 -1.89592,-4.82429 0,-0.55995 -0.26499,-1.53902 -0.58888,-2.17571 -0.32389,-0.63669 -0.89161,-1.90762 -1.26161,-2.82429 -1.84796,-4.57827 -9.69956,-20.0166 -10.53092,-20.70656 -0.52355,-0.43452 -0.95192,-1.1568 -0.95192,-1.60507 0,-0.44828 -0.6,-1.35804 -1.33333,-2.0217 -0.73334,-0.66366 -1.33334,-1.56366 -1.33334,-2 0,-0.43634 -0.6,-1.33634 -1.33333,-2 -0.73333,-0.66366 -1.33333,-1.48422 -1.33333,-1.82346 0,-1.10459 -4.81003,-6.55412 -14.97206,-16.96262 C 280.87666,98.596264 276.0384,94 275.60959,94 275.18078,94 274.4419,93.53244 273.96763,92.960977 272.77865,91.528351 265.45083,86 264.74086,86 c -0.31767,0 -0.96338,-0.464851 -1.4349,-1.033001 -0.47153,-0.568151 -2.14007,-1.617361 -3.70787,-2.331578 -1.5678,-0.714217 -3.01902,-1.571163 -3.22493,-1.904325 -0.2059,-0.333162 -3.29909,-2.015988 -6.87376,-3.739615 -6.22448,-3.001313 -8.00532,-3.799695 -11.33272,-5.080678 -2.91513,-1.122264 -5.18027,-2.073282 -6.32429,-2.655251 -0.63669,-0.323887 -1.74399,-0.588885 -2.46066,-0.588885 -0.71666,0 -1.48844,-0.3 -1.71505,-0.666667 -0.22662,-0.366667 -1.42662,-0.666667 -2.66667,-0.666667 -1.24005,0 -2.44005,-0.3 -2.66667,-0.666666 C 222.10673,66.3 220.90673,66 219.66668,66 c -1.24006,0 -2.44006,-0.3 -2.66667,-0.666667 -0.22661,-0.366666 -1.72661,-0.666666 -3.33333,-0.666666 -1.60672,0 -3.10672,-0.3 -3.33334,-0.666667 -0.22661,-0.366667 -2.17661,-0.666667 -4.33333,-0.666667 -2.15672,0 -4.10672,-0.3 -4.33333,-0.666666 -0.55924,-0.904866 -32.7741,-0.904866 -33.33334,0 -0.22661,0.366666 -2.32661,0.666666 -4.66667,0.666666 -2.34005,0 -4.44005,0.3 -4.66666,0.666667 -0.22662,0.366667 -1.72662,0.666667 -3.33334,0.666667 -1.60672,0 -3.10672,0.3 -3.33333,0.666666 C 152.10673,65.7 150.90673,66 149.66667,66 c -1.24005,0 -2.44005,0.3 -2.66666,0.666667 -0.22662,0.366666 -1.27662,0.666666 -2.33334,0.666666 -1.05672,0 -2.10672,0.3 -2.33333,0.666667 -0.22661,0.366667 -0.99839,0.666667 -1.71506,0.666667 -1.25863,0 -1.90753,0.240788 -5.10923,1.895915 -0.82002,0.423913 -1.91667,0.770751 -2.437,0.770751 -0.52032,0 -2.24939,0.642599 -3.84238,1.427997 -1.59298,0.785398 -3.49633,1.6428 -4.22966,1.905337 -1.75632,0.628769 -6.01147,2.752228 -9.33334,4.657635 -1.46666,0.841273 -3.69322,2.111291 -4.94789,2.822263 -1.25467,0.710972 -4.06517,2.543847 -6.24554,4.073056 -2.18038,1.529208 -4.557179,3.122177 -5.281778,3.539929 -0.724599,0.417753 -2.426752,1.842753 -3.782563,3.166667 -1.355812,1.323914 -2.748292,2.407116 -3.0944,2.407116 -0.834623,0 -17.647829,16.795207 -17.647829,17.628937 0,0.3565 -1.083203,1.75748 -2.407117,3.11329 -1.323914,1.35581 -2.748914,3.05607 -3.166667,3.77835 -0.417752,0.72228 -2.33455,3.58708 -4.25955,6.36622 -1.925,2.77915 -3.5,5.23749 -3.5,5.46298 0,0.22549 -0.838122,1.66404 -1.862493,3.19677 -2.277627,3.40794 -6.205033,11.50974 -8.137507,16.78679 -0.728446,1.98918 -2.077557,5.17999 -2.744448,6.49095 -0.323887,0.63669 -0.588886,1.89399 -0.588886,2.79399 0,0.9 -0.3,1.82178 -0.666667,2.04839 -0.366666,0.22661 -0.666666,1.27661 -0.666666,2.33333 0,1.05672 -0.3,2.10672 -0.666667,2.33334 -0.366667,0.22661 -0.666667,1.42661 -0.666667,2.66666 0,1.24006 -0.3,2.44006 -0.666666,2.66667 -0.366667,0.22661 -0.666667,1.57661 -0.666667,3 0,1.42339 -0.3,2.77339 -0.666667,3 -0.366666,0.22661 -0.666666,2.17661 -0.666666,4.33333 0,2.15672 -0.3,4.10672 -0.666667,4.33334 -0.740265,0.45751 -0.948799,18.49564 -0.222222,19.22222 0.244444,0.24444 64.68445,0.44444 143.20001,0.44444 110.14321,0 142.93832,-0.18276 143.55556,-0.8 z m 360.80001,-21.2 V 84.666667 h 37.31863 37.31862 l 0.18138,12.444998 c 0.13405,9.197805 0.39774,12.516975 1.01061,12.720855 0.45608,0.15172 1.10347,-0.42353 1.43864,-1.27833 0.33518,-0.85481 1.98703,-2.89165 3.67077,-4.52633 1.68375,-1.63467 3.06136,-3.30082 3.06136,-3.70255 0,-0.902305 4.14795,-4.991977 5.0631,-4.991977 0.36647,0 1.83807,-1.2 3.27023,-2.666666 C 783.09886,91.2 784.62301,90 785.0537,90 c 0.43069,0 1.1455,-0.436692 1.58846,-0.970427 1.03209,-1.243593 10.01448,-5.69624 11.4911,-5.69624 0.61678,0 1.30683,-0.3 1.53344,-0.666666 C 799.89331,82.3 800.79331,82 801.6667,82 c 0.87339,0 1.77339,-0.3 2,-0.666667 0.22661,-0.366666 2.02661,-0.666666 4,-0.666666 1.97339,0 3.77339,-0.3 4,-0.666667 0.54284,-0.878331 14.7905,-0.878331 15.33334,0 0.23583,0.381589 3.67359,0.666667 8.03934,0.666667 h 7.62732 V 115.33333 150 h -10.29398 c -6.14354,0 -10.46012,0.26879 -10.70602,0.66667 -0.22661,0.36666 -2.02661,0.66666 -4,0.66666 -1.97338,0 -3.77338,0.3 -4,0.66667 -0.22661,0.36667 -1.42661,0.66667 -2.66666,0.66667 -1.24006,0 -2.44006,0.3 -2.66667,0.66666 C 808.10676,153.7 807.34818,154 806.64764,154 c -0.70055,0 -2.34197,0.6 -3.6476,1.33333 -1.30564,0.73334 -2.94706,1.33334 -3.6476,1.33334 -0.70055,0 -1.45913,0.3 -1.68574,0.66666 C 797.44009,157.7 796.73129,158 796.09159,158 c -1.49449,0 -7.73605,3.10169 -8.78505,4.36565 -0.4417,0.53223 -1.1539,0.96768 -1.58266,0.96768 -2.46653,0 -11.05718,12.50011 -11.05718,16.0891 0,0.64105 -0.3,1.35096 -0.66667,1.57757 -0.36666,0.22661 -0.66666,1.72661 -0.66666,3.33333 0,1.60672 -0.3,3.10672 -0.66667,3.33334 -0.43465,0.26863 -0.66667,17.45136 -0.66667,49.37267 V 286 H 730.6667 689.33336 Z M 428.00002,146.94139 V 9.2161181 l 84.30017,0.2252743 c 66.30805,0.1771941 84.478,0.403132 85.13334,1.0586076 0.48855,0.48865 2.55409,0.833333 4.99382,0.833333 2.28836,0 4.34606,0.3 4.57268,0.666667 0.22661,0.366667 1.72661,0.666667 3.33333,0.666667 1.60672,0 3.10672,0.3 3.33333,0.666666 C 613.89331,13.7 615.09331,14 616.33336,14 c 1.24006,0 2.44006,0.3 2.66667,0.666667 0.22661,0.366666 1.12661,0.666666 2,0.666666 0.87339,0 1.77339,0.3 2,0.666667 0.22661,0.366667 0.91701,0.666667 1.53423,0.666667 1.46955,0 13.13278,5.795488 14.16414,7.038197 0.43902,0.528992 1.16499,0.961803 1.61327,0.961803 0.44827,0 1.35803,0.6 2.02169,1.333333 0.66366,0.733333 1.54927,1.333333 1.96803,1.333333 0.41876,0 1.93314,1.2 3.36531,2.666667 1.43216,1.466667 2.92829,2.666667 3.32473,2.666667 0.90839,0 7.67527,6.805436 7.67527,7.718998 0,0.372389 1.2,1.84884 2.66666,3.281002 1.46667,1.432161 2.66667,2.946549 2.66667,3.365306 0,0.418758 0.6,1.304369 1.33333,1.968027 0.73334,0.663658 1.33334,1.57342 1.33334,2.021695 0,0.448275 0.43281,1.174247 0.9618,1.61327 1.24271,1.031357 7.0382,12.694586 7.0382,14.16414 0,0.617213 0.3,1.307616 0.66666,1.534228 0.36667,0.226613 0.66667,1.126613 0.66667,2 0,0.873388 0.3,1.773388 0.66667,2 0.36666,0.226613 0.66666,1.126613 0.66666,2 0,0.873388 0.3,1.773388 0.66667,2 0.36667,0.226613 0.66667,1.426613 0.66667,2.666667 0,1.240054 0.3,2.440054 0.66666,2.666667 0.36667,0.226612 0.66667,2.326612 0.66667,4.666666 0,2.340055 0.3,4.440055 0.66667,4.666667 0.39264,0.242666 0.66666,4.21603 0.66666,9.66667 0,5.45063 -0.27402,9.424 -0.66666,9.66666 -0.36667,0.22662 -0.66667,2.92662 -0.66667,6 0,3.07339 -0.3,5.77339 -0.66667,6 -0.36666,0.22662 -0.66666,1.72662 -0.66666,3.33334 0,1.60672 -0.3,3.10672 -0.66667,3.33333 -0.36667,0.22661 -0.66667,1.72661 -0.66667,3.33333 0,1.60672 -0.3,3.10672 -0.66666,3.33334 -0.36667,0.22661 -0.66667,1.12661 -0.66667,2 0,0.87338 -0.3,1.77338 -0.66667,2 -0.36666,0.22661 -0.66666,1.42661 -0.66666,2.66666 0,1.24006 -0.3,2.44006 -0.66667,2.66667 -0.36667,0.22661 -0.66667,0.96385 -0.66667,1.63831 0,0.67446 -0.9,2.93722 -2,5.02836 -1.1,2.09113 -2,4.1755 -2,4.63194 0,1.09401 -1.91345,4.90255 -2.71064,5.39523 -0.34441,0.21286 -1.21056,1.66977 -1.92478,3.23757 -0.71421,1.5678 -1.76343,3.23634 -2.33158,3.70787 -0.56815,0.47152 -1.033,1.2015 -1.033,1.62218 0,0.96708 -12.10849,13.07187 -13.07587,13.07187 -0.39461,0 -1.26047,0.6 -1.92413,1.33334 C 645.6697,185.4 644.75994,186 644.31167,186 c -0.44828,0 -1.17747,0.43669 -1.62043,0.97043 -0.90937,1.09572 -9.93624,5.69624 -11.17684,5.69624 -0.44393,0 -1.8754,0.6 -3.18104,1.33333 -1.30564,0.73333 -2.94706,1.33333 -3.6476,1.33333 -0.70054,0 -1.45912,0.3 -1.68573,0.66667 -0.22661,0.36667 -1.12661,0.66667 -2,0.66667 -0.87339,0 -1.77339,0.3 -2,0.66666 C 618.77342,197.7 617.57342,198 616.33336,198 c -1.24005,0 -2.44005,0.3 -2.66667,0.66667 -0.22661,0.36666 -1.42661,0.66666 -2.66666,0.66666 -1.24006,0 -2.44006,0.3 -2.66667,0.66667 -0.22661,0.36667 -2.02661,0.66667 -4,0.66667 -1.97339,0 -3.77339,0.3 -4,0.66666 C 600.10675,201.7 598.04904,202 595.76068,202 c -2.28836,0 -4.4579,0.29724 -4.82119,0.66054 -0.41457,0.41457 -13.43524,0.72488 -34.96667,0.83333 l -34.30613,0.1728 -0.17183,40.5 -0.17183,40.5 h -46.66151 -46.6615 z m 129,-14.94139 c 0.22662,-0.36667 2.32662,-0.66667 4.66667,-0.66667 2.34006,0 4.44006,-0.3 4.66667,-0.66666 0.22661,-0.36667 1.12661,-0.66667 2,-0.66667 0.87339,0 1.77339,-0.3 2,-0.66667 0.22661,-0.36666 0.94822,-0.66666 1.60358,-0.66666 1.52039,0 5.01032,-1.7315 6.07457,-3.01384 0.45014,-0.54239 1.17941,-0.98616 1.6206,-0.98616 1.35166,0 3.70235,-2.98379 6.09109,-7.73157 2.2325,-4.43722 2.27683,-4.68935 2.27683,-12.95056 0,-7.513802 -0.16896,-8.758973 -1.56185,-11.510281 -0.85902,-1.696775 -1.97231,-3.579614 -2.47397,-4.184087 -0.50167,-0.604473 -1.22975,-1.736134 -1.61796,-2.514802 -0.38821,-0.778668 -1.37286,-1.748306 -2.18811,-2.154752 -0.81524,-0.406446 -2.00933,-1.162358 -2.65352,-1.679805 -1.99672,-1.603865 -4.0968,-2.60748 -5.4562,-2.60748 -0.71667,0 -1.48845,-0.3 -1.71506,-0.666666 C 570.10675,78.3 568.94904,78 567.76068,78 c -1.18836,0 -2.46494,-0.30429 -2.83685,-0.6762 -0.43646,-0.436451 -8.2248,-0.613727 -21.96667,-0.5 L 521.66669,77 l -0.17437,26.99912 c -0.0959,14.84952 -0.0303,27.37452 0.14574,27.83334 0.40688,1.0603 34.70977,1.22282 35.36196,0.16754 z M 1102.503,210.83333 1102.3334,137 1088.5,136.81981 1074.6667,136.63962 V 110.66667 84.693718 l 13.8333,-0.180192 13.8334,-0.180193 0.1823,-12.315615 c 0.1015,-6.858635 0.4707,-12.604092 0.8333,-12.966666 0.3581,-0.358079 0.651,-1.623347 0.651,-2.811707 0,-1.188361 0.3,-2.346066 0.6667,-2.572678 0.3667,-0.226613 0.6667,-1.217302 0.6667,-2.201532 0,-1.950531 6.8283,-16.216091 8.3773,-17.501619 0.5258,-0.436393 0.956,-1.137069 0.956,-1.557057 0,-1.282924 13.5069,-14.133597 16.0748,-15.293813 1.3245,-0.598422 2.7863,-1.543577 3.2483,-2.100343 C 1134.4519,14.455536 1135.3841,14 1136.0614,14 c 0.6773,0 2.2997,-0.6 3.6053,-1.333333 1.3057,-0.733334 3.2048,-1.333334 4.2203,-1.333334 1.0155,0 2.2197,-0.373309 2.676,-0.829575 1.076,-1.0760357 32.1255,-1.514802 59.2704,-0.837562 l 19.5,0.486507 v 24.590315 24.590315 l -7.1667,0.06898 c -3.9416,0.03794 -9.4587,0.01321 -12.26,-0.05494 -3.0673,-0.07463 -5.2708,0.163124 -5.5394,0.597689 -0.2452,0.396885 -1.6796,0.72161 -3.1874,0.72161 -1.6196,0 -3.2423,0.453218 -3.9653,1.107479 -0.673,0.609114 -1.8736,1.434114 -2.6679,1.833334 -1.9159,0.962923 -3.7708,4.235303 -3.8313,6.759187 -0.027,1.118333 -0.3621,2.34679 -0.7453,2.729904 -0.403,0.403017 -0.6137,2.917538 -0.5,5.966667 l 0.1966,5.270095 15.1667,0.179183 15.1667,0.179183 v 25.974476 25.97448 l -14.5,0.17967 -14.5,0.17967 -0.1696,73.83333 -0.1696,73.83334 h -41.9942 -41.9942 z"
       id="path1" />
  </g>
</svg>
